<svg width="52" height="53" viewBox="0 0 52 53" fill="none" xmlns="http://www.w3.org/2000/svg">
<circle cx="47" cy="48" r="5" fill="#F7A539"/>
<path d="M23.8861 37.1349C23.8861 38.6458 24.3586 39.7209 25.3038 40.3602C26.308 40.9995 27.6962 41.3191 29.4684 41.3191C30.3544 41.3191 31.27 41.261 32.2152 41.1447C33.1603 40.9704 33.9873 40.767 34.6962 40.5345C35.2278 41.1738 35.6709 41.9002 36.0253 42.7138C36.4388 43.4693 36.6456 44.3991 36.6456 45.5033C36.6456 47.7116 35.789 49.5132 34.076 50.9079C32.4219 52.3026 29.4684 53 25.2152 53C20.0169 53 16 51.8377 13.1646 49.5132C10.3882 47.1886 9 43.4112 9 38.1809V0.871715C9.64979 0.697372 10.5654 0.523028 11.7468 0.348685C12.9873 0.116228 14.2869 0 15.6456 0C18.2447 0 20.2532 0.464913 21.6709 1.39474C23.1477 2.26645 23.8861 4.15515 23.8861 7.06086V12.6398H35.4937C35.8481 13.2791 36.173 14.0927 36.4684 15.0806C36.8228 16.0104 37 17.0565 37 18.2188C37 20.2527 36.5274 21.7347 35.5823 22.6645C34.6962 23.5362 33.4852 23.972 31.9494 23.972H23.8861V37.1349Z" fill="url(#paint0_linear)"/>
<path d="M1.49324 13H7V24H5.00676C3.48423 24 2.28378 23.5769 1.4054 22.7308C0.468468 21.8282 0 20.3897 0 18.4154C0 17.2872 0.175674 16.2718 0.527024 15.3692C0.819817 14.4103 1.14189 13.6205 1.49324 13Z" fill="url(#paint1_linear)"/>
<mask id="mask0" mask-type="alpha" maskUnits="userSpaceOnUse" x="9" y="0" width="28" height="53">
<path d="M23.8861 37.1349C23.8861 38.6458 24.3586 39.7209 25.3038 40.3602C26.308 40.9995 27.6962 41.3191 29.4684 41.3191C30.3544 41.3191 31.27 41.261 32.2152 41.1447C33.1603 40.9704 33.9873 40.767 34.6962 40.5345C35.2278 41.1738 35.6709 41.9002 36.0253 42.7138C36.4388 43.4693 36.6456 44.3991 36.6456 45.5033C36.6456 47.7116 35.789 49.5132 34.076 50.9079C32.4219 52.3026 29.4684 53 25.2152 53C20.0169 53 16 51.8377 13.1646 49.5132C10.3882 47.1886 9 43.4112 9 38.1809V0.871715C9.64979 0.697372 10.5654 0.523028 11.7468 0.348685C12.9873 0.116228 14.2869 0 15.6456 0C18.2447 0 20.2532 0.464913 21.6709 1.39474C23.1477 2.26645 23.8861 4.15515 23.8861 7.06086V12.6398H35.4937C35.8481 13.2791 36.173 14.0927 36.4684 15.0806C36.8228 16.0104 37 17.0565 37 18.2188C37 20.2527 36.5274 21.7347 35.5823 22.6645C34.6962 23.5362 33.4852 23.972 31.9494 23.972H23.8861V37.1349Z" fill="url(#paint2_linear)"/>
</mask>
<g mask="url(#mask0)">
<circle cx="33" cy="11" r="19" fill="#C4C4C4"/>
<circle cx="33" cy="11" r="19" fill="url(#paint3_linear)"/>
</g>
<defs>
<linearGradient id="paint0_linear" x1="9" y1="26" x2="37" y2="26" gradientUnits="userSpaceOnUse">
<stop stop-color="#FBC07E"/>
<stop offset="1" stop-color="#F7A539"/>
</linearGradient>
<linearGradient id="paint1_linear" x1="1.30747e-07" y1="18.3962" x2="7" y2="18.3962" gradientUnits="userSpaceOnUse">
<stop stop-color="#FBC07E"/>
<stop offset="1" stop-color="#F7A539"/>
</linearGradient>
<linearGradient id="paint2_linear" x1="9" y1="26" x2="37" y2="26" gradientUnits="userSpaceOnUse">
<stop stop-color="#03E5DF"/>
<stop offset="1" stop-color="#04B2D9"/>
</linearGradient>
<linearGradient id="paint3_linear" x1="33" y1="-8" x2="33" y2="30" gradientUnits="userSpaceOnUse">
<stop stop-color="#F5900A"/>
<stop offset="1" stop-color="#FBC07E"/>
</linearGradient>
</defs>
</svg>
