<svg width="25" height="30" viewBox="0 0 25 30" fill="none" xmlns="http://www.w3.org/2000/svg">
<path d="M18.5 4.5V3C18.5 2.20435 18.1839 1.44129 17.6213 0.87868C17.0587 0.31607 16.2956 0 15.5 0H9.5C8.70435 0 7.94129 0.31607 7.37868 0.87868C6.81607 1.44129 6.5 2.20435 6.5 3V4.5C4.9087 4.5 3.38258 5.13214 2.25736 6.25736C1.13214 7.38258 0.5 8.9087 0.5 10.5V27C0.5 27.7956 0.81607 28.5587 1.37868 29.1213C1.94129 29.6839 2.70435 30 3.5 30H21.5C22.2956 30 23.0587 29.6839 23.6213 29.1213C24.1839 28.5587 24.5 27.7956 24.5 27V10.5C24.5 8.9087 23.8679 7.38258 22.7426 6.25736C21.6174 5.13214 20.0913 4.5 18.5 4.5ZM9.5 3H15.5V4.5H9.5V3ZM12.5 10.5L15.5 13.5L12.5 16.5L9.5 13.5L12.5 10.5ZM21.5 27H3.5V21H6.5V24H8V21H21.5V27ZM21.5 19.5H3.5V10.5C3.5 9.70435 3.81607 8.94129 4.37868 8.37868C4.94129 7.81607 5.70435 7.5 6.5 7.5H18.5C19.2956 7.5 20.0587 7.81607 20.6213 8.37868C21.1839 8.94129 21.5 9.70435 21.5 10.5V19.5Z" fill="currentColor"/>
</svg>
