<svg width="27" height="26" viewBox="0 0 27 26" fill="none" xmlns="http://www.w3.org/2000/svg">
<path d="M13.5 0C9.91146 0 6.84766 1.26953 4.30859 3.80859C1.76953 6.34766 0.5 9.41146 0.5 13C0.5 16.5885 1.76953 19.6523 4.30859 22.1914C6.84766 24.7305 9.91146 26 13.5 26C17.0885 26 20.1523 24.7305 22.6914 22.1914C25.2305 19.6523 26.5 16.5885 26.5 13C26.5 9.41146 25.2305 6.34766 22.6914 3.80859C20.1523 1.26953 17.0885 0 13.5 0ZM6.03516 16.8086C6.74609 18.6029 7.10156 20.2279 7.10156 21.6836C5.7474 20.7357 4.67253 19.4915 3.87695 17.9512C3.08138 16.4108 2.68359 14.7604 2.68359 13C2.68359 9.51302 4.05469 6.70312 6.79688 4.57031C7.40625 5.04427 7.96484 5.66211 8.47266 6.42383C8.98047 7.18555 9.21745 7.90495 9.18359 8.58203C9.04818 9.63151 8.35417 10.6641 7.10156 11.6797C6.45833 12.3568 6.02669 13.1608 5.80664 14.0918C5.58659 15.0228 5.66276 15.9284 6.03516 16.8086ZM24.3164 13C24.3164 15.9792 23.2585 18.5267 21.1426 20.6426C19.0267 22.7585 16.4792 23.8164 13.5 23.8164C12.0104 23.8164 10.6055 23.5286 9.28516 22.9531C9.45443 20.7526 9.01432 18.4505 7.96484 16.0469C7.59245 14.8958 7.8125 13.9818 8.625 13.3047C10.3177 11.612 11.2148 10.1055 11.3164 8.78516C11.5195 6.95703 10.6562 5.11198 8.72656 3.25C10.0469 2.53906 11.638 2.18359 13.5 2.18359C14.3802 2.18359 15.2096 2.28516 15.9883 2.48828L13.8047 4.67188L13.043 5.43359L16.1914 8.58203L23.8086 9.64844C24.1471 10.8333 24.3164 11.9505 24.3164 13ZM17.3086 6.60156L16.0898 5.43359L18.2734 3.25C20.1354 4.13021 21.6081 5.5013 22.6914 7.36328L17.3086 6.60156ZM14.1602 11.1719L13.2969 12.4414C12.6198 13.5247 12.5352 14.6081 13.043 15.6914L13.5 16.707L14.2617 20.3633C14.3633 21.1419 14.8372 21.6497 15.6836 21.8867C15.819 21.9544 15.9883 21.9883 16.1914 21.9883C16.6992 21.9883 17.1732 21.8021 17.6133 21.4297L18.832 20.2617L18.9336 20.0586C19.4414 18.1628 20.0169 16.8932 20.6602 16.25C21.5742 15.6068 21.8281 14.4557 21.4219 12.7969C21.1849 11.8828 20.5586 11.2227 19.543 10.8164L16.9531 9.75H16.75C15.5651 9.75 14.7018 10.224 14.1602 11.1719ZM15.125 13.6602L15.9883 12.3398C16.1237 12.069 16.3438 11.9336 16.6484 11.9336L18.832 12.6953C19.1029 12.8307 19.2383 12.9661 19.2383 13.1016C19.306 13.3385 19.3398 13.7448 19.3398 14.3203C18.4258 14.9974 17.5964 16.5378 16.8516 18.9414L16.293 19.5L15.6836 16.0469L15.0234 14.7266C14.8203 14.4219 14.8542 14.0664 15.125 13.6602Z" fill="#E08308"/>
</svg>
