<svg width="29" height="30" viewBox="0 0 29 30" fill="none" xmlns="http://www.w3.org/2000/svg">
<path d="M14.5 21C17.7776 21 20.443 18.309 20.443 15C20.443 11.691 17.7776 9 14.5 9C11.2224 9 8.55699 11.691 8.55699 15C8.55699 18.309 11.2224 21 14.5 21ZM14.5 12C16.1106 12 17.4715 13.374 17.4715 15C17.4715 16.626 16.1106 18 14.5 18C12.8894 18 11.5285 16.626 11.5285 15C11.5285 13.374 12.8894 12 14.5 12Z" fill="black"/>
<path d="M0.897928 21.204L2.38368 23.799C3.17262 25.1745 5.07141 25.6905 6.43979 24.894L7.22575 24.435C8.08532 25.1176 9.03304 25.6788 10.0427 26.103V27C10.0427 28.6545 11.3755 30 13.0142 30H15.9858C17.6245 30 18.9573 28.6545 18.9573 27V26.103C19.9666 25.6787 20.9143 25.1181 21.7742 24.4365L22.5602 24.8955C23.9316 25.6905 25.8259 25.1775 26.6178 23.799L28.1021 21.2055C28.4958 20.5165 28.6026 19.698 28.399 18.9296C28.1953 18.1612 27.6979 17.5059 27.016 17.1075L26.2657 16.6695C26.4252 15.5633 26.4252 14.4397 26.2657 13.3335L27.016 12.8955C27.6976 12.4968 28.1948 11.8415 28.3984 11.0732C28.602 10.305 28.4954 9.48654 28.1021 8.7975L26.6178 6.204C25.8289 4.824 23.9316 4.3065 22.5602 5.106L21.7742 5.565C20.9147 4.88236 19.967 4.32119 18.9573 3.897V3C18.9573 1.3455 17.6245 0 15.9858 0H13.0142C11.3755 0 10.0427 1.3455 10.0427 3V3.897C9.03338 4.32126 8.08574 4.88188 7.22575 5.5635L6.43979 5.1045C5.06695 4.308 3.17113 4.824 2.3822 6.2025L0.897928 8.796C0.504177 9.48495 0.397395 10.3035 0.601037 11.0719C0.80468 11.8403 1.30209 12.4956 1.98401 12.894L2.73432 13.332C2.5742 14.4376 2.5742 15.5609 2.73432 16.6665L1.98401 17.1045C1.30229 17.5034 0.805111 18.1591 0.60151 18.9276C0.397909 19.6961 0.504508 20.5147 0.897928 21.204ZM5.83954 17.067C5.67178 16.391 5.58646 15.6969 5.58548 15C5.58548 14.307 5.67165 13.611 5.83806 12.933C5.91642 12.617 5.89064 12.2838 5.76464 11.9839C5.63864 11.684 5.41927 11.4337 5.13975 11.271L3.47125 10.296L4.95403 7.7025L6.65522 8.6955C6.93265 8.85757 7.25466 8.92442 7.57293 8.88602C7.89119 8.84761 8.18852 8.70602 8.4203 8.4825C9.42544 7.51733 10.6375 6.79922 11.9623 6.384C12.2667 6.2902 12.5331 6.10024 12.7225 5.84209C12.9118 5.58394 13.0141 5.27124 13.0142 4.95V3H15.9858V4.95C15.9859 5.27124 16.0882 5.58394 16.2775 5.84209C16.4669 6.10024 16.7333 6.2902 17.0377 6.384C18.3622 6.79982 19.5742 7.51785 20.5797 8.4825C20.8117 8.70559 21.109 8.84688 21.4272 8.88527C21.7453 8.92367 22.0672 8.85709 22.3448 8.6955L24.0445 7.704L25.5302 10.2975L23.8602 11.271C23.5809 11.4339 23.3617 11.6842 23.2357 11.9841C23.1097 12.2839 23.0838 12.617 23.1619 12.933C23.3283 13.611 23.4145 14.307 23.4145 15C23.4145 15.6915 23.3283 16.3875 23.1605 17.067C23.0825 17.3832 23.1086 17.7164 23.2349 18.0162C23.3611 18.3161 23.5806 18.5663 23.8602 18.729L25.5287 19.7025L24.046 22.296L22.3448 21.3045C22.0674 21.1422 21.7454 21.0752 21.427 21.1136C21.1087 21.152 20.8114 21.2938 20.5797 21.5175C19.5746 22.4827 18.3625 23.2008 17.0377 23.616C16.7333 23.7098 16.4669 23.8998 16.2775 24.1579C16.0882 24.4161 15.9859 24.7288 15.9858 25.05L15.9887 27H13.0142V25.05C13.0141 24.7288 12.9118 24.4161 12.7225 24.1579C12.5331 23.8998 12.2667 23.7098 11.9623 23.616C10.6378 23.2002 9.42583 22.4821 8.4203 21.5175C8.18897 21.2931 7.89145 21.1511 7.57289 21.1129C7.25434 21.0747 6.93215 21.1425 6.65522 21.306L4.95552 22.299L3.46977 19.7055L5.13975 18.729C5.41936 18.5663 5.63889 18.3161 5.76515 18.0162C5.89141 17.7164 5.91752 17.3832 5.83954 17.067Z" fill="black"/>
</svg>
