<svg width="674" height="577" viewBox="0 0 674 577" fill="none" xmlns="http://www.w3.org/2000/svg">
<g opacity="0.17">
<path opacity="0.17" d="M114.5 210.3V251.2H32.7001" stroke="#1B3242" stroke-width="8" stroke-miterlimit="10" stroke-linecap="round" stroke-linejoin="round"/>
<path opacity="0.17" d="M196.3 251.2H114.5V210.3" stroke="#1B3242" stroke-width="8" stroke-miterlimit="10" stroke-linecap="round" stroke-linejoin="round"/>
<path opacity="0.17" d="M155.4 251.2H73.6001V292.1H155.4V251.2Z" stroke="#1B3242" stroke-width="8" stroke-miterlimit="10" stroke-linecap="round" stroke-linejoin="round"/>
<path opacity="0.17" d="M137.8 333.1H114.5V292.1H196.3" stroke="#1B3242" stroke-width="8" stroke-miterlimit="10" stroke-linecap="round" stroke-linejoin="round"/>
<path opacity="0.17" d="M32.7001 292.1H114.5V333.1H48.1001" stroke="#1B3242" stroke-width="8" stroke-miterlimit="10" stroke-linecap="round" stroke-linejoin="round"/>
<path opacity="0.17" d="M4.80005 251.2H73.6001V292.1H32.7" stroke="#1B3242" stroke-width="8" stroke-miterlimit="10" stroke-linecap="round" stroke-linejoin="round"/>
<path opacity="0.17" d="M214.5 292.1H155.4V251.2H183.8" stroke="#1B3242" stroke-width="8" stroke-miterlimit="10" stroke-linecap="round" stroke-linejoin="round"/>
</g>
<g opacity="0.17">
<path opacity="0.17" d="M519.1 549H489.1V572H519.1V549Z" stroke="#1B3242" stroke-width="10" stroke-miterlimit="10" stroke-linecap="round" stroke-linejoin="round"/>
<path opacity="0.17" d="M632.4 549H602.4V572H632.4V549Z" stroke="#1B3242" stroke-width="10" stroke-miterlimit="10" stroke-linecap="round" stroke-linejoin="round"/>
<path opacity="0.17" d="M657.75 548.95L657.75 27.9502L463.75 27.9502L463.75 548.95H657.75Z" stroke="#1B3242" stroke-width="10" stroke-miterlimit="10" stroke-linecap="round" stroke-linejoin="round"/>
<path opacity="0.17" d="M639.8 46H481.8V520H639.8V46Z" stroke="#1B3242" stroke-width="10" stroke-miterlimit="10" stroke-linecap="round" stroke-linejoin="round"/>
<path opacity="0.17" d="M639.8 87.2998H611.8V198.8H639.8V87.2998Z" stroke="#1B3242" stroke-width="10" stroke-miterlimit="10" stroke-linecap="round" stroke-linejoin="round"/>
<path opacity="0.17" d="M499.583 334.541L499.583 361.041L611.083 361.041L611.083 334.541L499.583 334.541Z" stroke="#1B3242" stroke-width="10" stroke-miterlimit="10" stroke-linecap="round" stroke-linejoin="round"/>
<path opacity="0.17" d="M514.213 307.988L514.213 334.488L625.713 334.488L625.713 307.988L514.213 307.988Z" stroke="#1B3242" stroke-width="10" stroke-miterlimit="10" stroke-linecap="round" stroke-linejoin="round"/>
<path opacity="0.17" d="M500.238 286.063L500.238 308.163L611.738 308.163L611.738 286.063L500.238 286.063Z" stroke="#1B3242" stroke-width="10" stroke-miterlimit="10" stroke-linecap="round" stroke-linejoin="round"/>
<path opacity="0.17" d="M611.8 115H639.8" stroke="#1B3242" stroke-width="10" stroke-miterlimit="10" stroke-linecap="round" stroke-linejoin="round"/>
<path opacity="0.17" d="M611.8 95.5H588V198.8H611.8V95.5Z" stroke="#1B3242" stroke-width="10" stroke-miterlimit="10" stroke-linecap="round" stroke-linejoin="round"/>
<path opacity="0.17" d="M588 121.101H611.8" stroke="#1B3242" stroke-width="10" stroke-miterlimit="10" stroke-linecap="round" stroke-linejoin="round"/>
<path opacity="0.17" d="M586.754 113.345L567.356 102.145L518.706 186.406L538.104 197.606L586.754 113.345Z" stroke="#1B3242" stroke-width="10" stroke-miterlimit="10" stroke-linecap="round" stroke-linejoin="round"/>
<path opacity="0.17" d="M555.3 123L574.7 134.2" stroke="#1B3242" stroke-width="10" stroke-miterlimit="10" stroke-linecap="round" stroke-linejoin="round"/>
<path opacity="0.17" d="M543.7 308.101V334.501" stroke="#1B3242" stroke-width="10" stroke-miterlimit="10" stroke-linecap="round" stroke-linejoin="round"/>
<path opacity="0.17" d="M525.3 286V307.9" stroke="#1B3242" stroke-width="10" stroke-miterlimit="10" stroke-linecap="round" stroke-linejoin="round"/>
<path opacity="0.17" d="M528.2 334.5V361" stroke="#1B3242" stroke-width="10" stroke-miterlimit="10" stroke-linecap="round" stroke-linejoin="round"/>
<path opacity="0.17" d="M639.8 203.7H481.8V218.5H639.8V203.7Z" stroke="#1B3242" stroke-width="10" stroke-miterlimit="10" stroke-linecap="round" stroke-linejoin="round"/>
<path opacity="0.17" d="M639.8 361H481.8V376H639.8V361Z" stroke="#1B3242" stroke-width="10" stroke-miterlimit="10" stroke-linecap="round" stroke-linejoin="round"/>
<path opacity="0.17" d="M639.8 368.5H481.8V520H639.8V368.5Z" stroke="#1B3242" stroke-width="10" stroke-miterlimit="10" stroke-linecap="round" stroke-linejoin="round"/>
<path opacity="0.17" d="M604.1 411.2V477.3" stroke="#1B3242" stroke-width="11" stroke-miterlimit="10" stroke-linecap="round" stroke-linejoin="round"/>
</g>
<path d="M661.4 572H668.8" stroke="#013711" stroke-width="10" stroke-miterlimit="10" stroke-linecap="round" stroke-linejoin="round"/>
<path d="M580.8 572H625.8" stroke="#013711" stroke-width="10" stroke-miterlimit="10" stroke-linecap="round" stroke-linejoin="round"/>
<path d="M137.5 572H561" stroke="#013711" stroke-width="10" stroke-miterlimit="10" stroke-linecap="round" stroke-linejoin="round"/>
<path d="M57.6 572H114.5" stroke="#013711" stroke-width="10" stroke-miterlimit="10" stroke-linecap="round" stroke-linejoin="round"/>
<path d="M390 85H298.5C274.2 85 254.5 104.7 254.5 129V166.9H280.5V129C280.5 119.1 288.6 111 298.5 111H390C399.9 111 408 119.1 408 129V166.9H434V129C434 104.7 414.3 85 390 85Z" fill="#0B7C3E"/>
<path opacity="0.5" d="M281.4 132.7H254.7V145.7H281.4V132.7Z" fill="#049448"/>
<path opacity="0.5" d="M434 132.7H407.3V145.7H434V132.7Z" fill="#049448"/>
<path opacity="0.46" d="M390 85H298.5C274.2 85 254.5 104.7 254.5 129V138.3C254.5 114 274.2 94.3 298.5 94.3H390C414.3 94.3 434 114 434 138.3V129C434 104.7 414.3 85 390 85Z" fill="#70BF43"/>
<path d="M390 85H298.5C274.2 85 254.5 104.7 254.5 129V166.9H280.5V129C280.5 119.1 288.6 111 298.5 111H390C399.9 111 408 119.1 408 129V166.9H434V129C434 104.7 414.3 85 390 85Z" stroke="#013711" stroke-width="10" stroke-miterlimit="10" stroke-linecap="round" stroke-linejoin="round"/>
<path d="M208.7 524.9H183.3C163.3 524.9 146.6 509.4 145.3 489.5C141.7 434.7 147.5 391.9 159.5 358.8C166 340.9 191.5 340.9 198 358.8C212.5 398.7 217.9 452.7 208.7 524.9Z" fill="#0B7C3E"/>
<path opacity="0.2" d="M200 358.8C194.9 344.6 177.8 341.7 167.7 350L170.6 466C171 482 163.8 496.4 152.3 505.8C158.9 517.3 171.3 525 185.4 525H210.8C219.9 452.7 214.5 398.7 200 358.8Z" fill="#0B7C3E"/>
<path d="M208.7 524.9H183.3C163.3 524.9 146.6 509.4 145.3 489.5C141.7 434.7 147.5 391.9 159.5 358.8C166 340.9 191.5 340.9 198 358.8C212.5 398.7 217.9 452.7 208.7 524.9Z" stroke="#013711" stroke-width="10" stroke-miterlimit="10" stroke-linecap="round" stroke-linejoin="round"/>
<path d="M479.8 518H505.2C525.2 518 541.9 502.5 543.2 482.6C546.8 427.8 541 385 529 351.9C522.5 334 497 334 490.5 351.9C476 391.8 470.7 445.8 479.8 518Z" fill="#0B7C3E"/>
<path opacity="0.2" d="M518 457.9L520.8 343C510.7 334.7 493.6 337.6 488.5 351.8C474 391.8 468.7 445.8 477.8 518H503.2C517.6 518 530.3 510 536.7 498C525 488.6 517.6 474.1 518 457.9Z" fill="#0B7C3E"/>
<path d="M479.8 518H505.2C525.2 518 541.9 502.5 543.2 482.6C546.8 427.8 541 385 529 351.9C522.5 334 497 334 490.5 351.9C476 391.8 470.7 445.8 479.8 518Z" stroke="#013711" stroke-width="10" stroke-miterlimit="10" stroke-linecap="round" stroke-linejoin="round"/>
<path d="M453.5 572H235.1C211.1 572 191.1 553.7 188.9 529.8C181.5 449.9 181.5 369.4 188.9 289.5C191.1 265.6 211.1 247.3 235.1 247.3H453.5C477.5 247.3 497.5 265.6 499.7 289.5C507.1 369.4 507.1 449.9 499.7 529.8C497.4 553.7 477.5 572 453.5 572Z" fill="#049448"/>
<path opacity="0.29" d="M499.7 515.9C497.5 539.8 477.5 558.1 453.5 558.1H235.1C211.1 558.1 191.1 539.8 188.9 515.9C185.4 478.2 183.6 440.5 183.4 402.7C183.2 445.1 185 487.5 188.9 529.8C191.1 553.7 211.1 572 235.1 572H453.5C477.5 572 497.5 553.7 499.7 529.8C503.6 487.5 505.5 445.1 505.2 402.7C505 440.4 503.2 478.2 499.7 515.9Z" fill="#0B7C3E"/>
<path opacity="0.5" d="M344.3 495.3C362.36 495.3 377 486.301 377 475.2C377 464.099 362.36 455.1 344.3 455.1C326.24 455.1 311.6 464.099 311.6 475.2C311.6 486.301 326.24 495.3 344.3 495.3Z" stroke="#049448" stroke-width="8" stroke-miterlimit="10"/>
<path opacity="0.5" d="M217.7 413.6C259.7 415.8 302.2 416.9 344.3 416.9C386.3 416.9 428.9 415.8 470.9 413.6C483.8 412.9 495.6 408 505.3 400C504.9 364.1 503.1 328.3 499.8 292.5C497.6 268.6 477.6 250.3 453.6 250.3H235.1C211.1 250.3 191.1 268.6 188.9 292.5C185.6 328.3 183.7 364.1 183.4 400C193 408 204.8 412.9 217.7 413.6Z" fill="#049448"/>
<path d="M235.1 558.1C218.2 558.1 204.3 545.4 202.7 528.5C195.4 449.6 195.4 369.6 202.7 290.8C204.3 273.9 218.2 261.2 235.1 261.2H453.5C470.4 261.2 484.3 273.9 485.9 290.8C493.2 369.7 493.2 449.7 485.9 528.5C484.3 545.4 470.4 558.1 453.5 558.1H235.1Z" stroke="#013711" stroke-width="4" stroke-linecap="round" stroke-linejoin="round" stroke-dasharray="4.01 4.01"/>
<path d="M453.5 572H235.1C211.1 572 191.1 553.7 188.9 529.8C181.5 449.9 181.5 369.4 188.9 289.5C191.1 265.6 211.1 247.3 235.1 247.3H453.5C477.5 247.3 497.5 265.6 499.7 289.5C507.1 369.4 507.1 449.9 499.7 529.8C497.4 553.7 477.5 572 453.5 572Z" stroke="#013711" stroke-miterlimit="10"/>
<path d="M453.5 572H235.1C211.1 572 191.1 553.7 188.9 529.8C181.5 449.9 181.5 369.4 188.9 289.5C191.1 265.6 211.1 247.3 235.1 247.3H453.5C477.5 247.3 497.5 265.6 499.7 289.5C507.1 369.4 507.1 449.9 499.7 529.8C497.4 553.7 477.5 572 453.5 572Z" stroke="#013711" stroke-width="10" stroke-miterlimit="10" stroke-linecap="round" stroke-linejoin="round"/>
<path d="M470.3 400.6C386.3 404.9 302.2 404.9 218.2 400.6C189.2 399.1 167.1 371.7 167.4 338.3C167.8 292.4 169.5 247.4 172.5 203.2C174.6 172.1 197.4 147.3 225 145.9C304.5 142 384.1 142 463.6 145.9C491.2 147.2 514 172.1 516.1 203.2C519.1 247.4 520.8 292.3 521.2 338.3C521.4 371.7 499.3 399.1 470.3 400.6Z" fill="#70BF43"/>
<path opacity="0.41" d="M470.3 391.6C386.3 395.9 302.2 395.9 218.2 391.6C190.3 390.2 168.8 364.8 167.4 333.1C167.4 335.2 167.3 337.3 167.3 339.3C167 372.8 189.1 400.1 218.1 401.6C302.1 405.9 386.2 405.9 470.2 401.6C499.2 400.1 521.3 372.7 521 339.3C521 337.2 520.9 335.1 520.9 333.1C519.7 364.8 498.2 390.1 470.3 391.6Z" fill="#013711"/>
<path opacity="0.65" d="M174 346.6C174.4 301.1 176 256.6 178.9 212.9C180.9 182.1 202.9 157.5 229.4 156.2C305.9 152.4 382.5 152.4 459 156.2C485.5 157.5 507.5 182.1 509.5 212.9C512.4 256.7 514 301.2 514.4 346.6C514.5 358.3 511.9 369.3 507.2 378.6C515.9 367.5 521.1 352.6 521 336.3C520.6 290.4 518.9 245.4 515.9 201.2C513.8 170.1 491 145.3 463.4 143.9C383.9 140 304.3 140 224.8 143.9C197.2 145.2 174.4 170.1 172.3 201.2C169.3 245.4 167.6 290.3 167.2 336.3C167.1 352.6 172.3 367.5 181 378.6C176.5 369.2 173.9 358.3 174 346.6Z" fill="#70BF43"/>
<path opacity="0.41" d="M376.9 279.5C355 279.8 333.2 279.7 311.3 279.5C284.5 279.1 262.8 258.5 262.8 234.2C262.8 227.8 262.8 221.4 262.8 214.9C262.8 207.4 269.4 201.2 277.6 201C322 200 366.5 200 411 201C419.2 201.2 425.8 207.3 425.8 214.9V233.8C425.8 258.2 403.8 279.1 376.9 279.5Z" stroke="#013711" stroke-width="10" stroke-miterlimit="10" stroke-linecap="round" stroke-linejoin="round"/>
<path d="M470.3 400.6C386.3 404.9 302.2 404.9 218.2 400.6C189.2 399.1 167.1 371.7 167.4 338.3C167.8 292.4 169.5 247.4 172.5 203.2C174.6 172.1 197.4 147.3 225 145.9C304.5 142 384.1 142 463.6 145.9C491.2 147.2 514 172.1 516.1 203.2C519.1 247.4 520.8 292.3 521.2 338.3C521.4 371.7 499.3 399.1 470.3 400.6Z" stroke="#013711" stroke-width="10" stroke-miterlimit="10" stroke-linecap="round" stroke-linejoin="round"/>
<path d="M344.3 389.9C302.7 389.9 260.5 388.8 219 386.7C197.7 385.6 181.2 364.4 181.4 338.4C181.8 293.2 183.5 248 186.5 204.1C188.1 180.2 205.4 160.8 225.8 159.8C265.1 157.9 305.1 156.9 344.4 156.9C383.8 156.9 423.7 157.9 463 159.8C483.4 160.8 500.7 180.3 502.3 204.1C505.3 248 507 293.2 507.4 338.4C507.6 364.4 491.1 385.6 469.8 386.7C428 388.8 385.9 389.9 344.3 389.9Z" stroke="#013711" stroke-width="4" stroke-linecap="round" stroke-linejoin="round" stroke-dasharray="4 4"/>
<path d="M376.9 271.5C355 271.8 333.2 271.7 311.3 271.5C284.5 271.1 262.8 250.5 262.8 226.2C262.8 219.8 262.8 213.4 262.8 206.9C262.8 199.4 269.4 193.2 277.6 193C322 192 366.5 192 411 193C419.2 193.2 425.8 199.3 425.8 206.9V225.8C425.8 250.2 403.8 271.1 376.9 271.5Z" fill="#0BB68F"/>
<path opacity="0.43" d="M376.9 254.4C355 254.7 333.2 254.6 311.3 254.4C284.5 254 262.8 233.4 262.8 209.1C262.8 208.4 262.8 207.6 262.8 206.9C262.8 213.3 262.8 219.7 262.8 226.2C262.8 250.5 284.5 271.1 311.3 271.5C333.2 271.8 355 271.8 376.9 271.5C403.8 271.1 425.8 250.2 425.8 225.8V208.7C425.8 233.1 403.8 254 376.9 254.4Z" fill="#0BB68F"/>
<path opacity="0.7" d="M410.9 193C366.5 192 322 192 277.5 193C269.3 193.2 262.7 199.3 262.7 206.9C262.7 209.6 262.7 212.2 262.7 214.9C262.7 207.4 269.3 201.2 277.5 201C321.9 200 366.4 200 410.9 201C419.1 201.2 425.7 207.3 425.7 214.9V206.9C425.8 199.3 419.2 193.2 410.9 193Z" fill="#0BB68F"/>
<path d="M376.9 271.5C355 271.8 333.2 271.7 311.3 271.5C284.5 271.1 262.8 250.5 262.8 226.2C262.8 219.8 262.8 213.4 262.8 206.9C262.8 199.4 269.4 193.2 277.6 193C322 192 366.5 192 411 193C419.2 193.2 425.8 199.3 425.8 206.9V225.8C425.8 250.2 403.8 271.1 376.9 271.5Z" stroke="#013711" stroke-width="10" stroke-miterlimit="10" stroke-linecap="round" stroke-linejoin="round"/>
<path d="M376.9 271.5C355 271.8 333.2 271.7 311.3 271.5C284.5 271.1 262.8 250.5 262.8 226.2C262.8 219.8 262.8 213.4 262.8 206.9C262.8 199.4 269.4 193.2 277.6 193C322 192 366.5 192 411 193C419.2 193.2 425.8 199.3 425.8 206.9V225.8C425.8 250.2 403.8 271.1 376.9 271.5Z" stroke="#013711" stroke-width="10" stroke-miterlimit="10" stroke-linecap="round" stroke-linejoin="round"/>
<g opacity="0.41">
<path opacity="0.41" d="M281.2 392.6H234.1C232.3 392.6 230.6 391.6 229.7 390L215.1 362.8C205.3 344.7 209.1 323.5 224.8 308.8L245.8 289.2C252.2 283.2 263 283.3 269.4 289.2L290.4 308.9C306.1 323.6 309.9 344.7 300.1 362.8L285.6 390C284.7 391.6 283 392.6 281.2 392.6ZM237.1 382.6H278.2L291.4 358.1C299 344.2 295.9 327.8 283.6 316.3L262.6 296.6C260.1 294.3 255.2 294.2 252.7 296.6L231.7 316.2C219.4 327.7 216.3 344.2 223.9 358.1L237.1 382.6Z" fill="#013711"/>
</g>
<g opacity="0.41">
<path opacity="0.41" d="M257.2 517.7C246.8 517.7 238.3 509.2 238.3 498.8V337.6C238.3 334.8 240.5 332.6 243.3 332.6H271.1C273.9 332.6 276.1 334.8 276.1 337.6V498.8C276.1 509.2 267.6 517.7 257.2 517.7ZM248.3 342.6V498.8C248.3 503.7 252.3 507.7 257.2 507.7C262.1 507.7 266.1 503.7 266.1 498.8V342.6H248.3Z" fill="#013711"/>
</g>
<path d="M236.3 380.6H279.1L292.4 354.7C300.3 339.5 297.2 321.6 284.4 309.1L265.3 290.3C261.3 286.3 254.1 286.3 250.1 290.3L231 308.9C218.3 321.4 215.2 339.5 223 354.7L236.3 380.6Z" fill="#049448"/>
<path d="M234.1 380.6H281.2L295.8 353.4C304.5 337.5 301 318.7 287 305.6L266 285.9C261.6 281.7 253.7 281.7 249.3 285.9L228.3 305.5C214.3 318.6 210.9 337.5 219.5 353.5L234.1 380.6Z" stroke="#013711" stroke-width="10" stroke-miterlimit="10" stroke-linecap="round" stroke-linejoin="round"/>
<path d="M241.6 370.6H240.1L239.4 369.3" stroke="#013711" stroke-width="3" stroke-linecap="round" stroke-linejoin="round"/>
<path d="M236.1 363.1L228.4 348.7C221.9 336.8 224.6 322.7 235.2 312.8L256.2 293.2C256.4 293 256.9 292.8 257.7 292.8C258.5 292.8 259.1 293.1 259.3 293.2L280.3 312.9C291 322.9 293.6 336.6 287.1 348.7L277.7 366.2" stroke="#013711" stroke-width="3" stroke-linecap="round" stroke-linejoin="round" stroke-dasharray="2.99 2.99"/>
<path d="M275.9 369.3L275.2 370.6H273.7" stroke="#013711" stroke-width="3" stroke-linecap="round" stroke-linejoin="round"/>
<path d="M267.6 370.6H244.7" stroke="#013711" stroke-width="3" stroke-linecap="round" stroke-linejoin="round" stroke-dasharray="2.6 2.6"/>
<path d="M257.3 506.5C249.6 506.5 243.4 500.3 243.4 492.6V331.4H271.2V492.6C271.3 500.3 265 506.5 257.3 506.5Z" fill="#F9941C"/>
<path opacity="0.37" d="M257.3 497.2C249.6 497.2 243.4 491 243.4 483.3V492.6C243.4 500.3 249.6 506.5 257.3 506.5C265 506.5 271.2 500.3 271.2 492.6V483.3C271.3 491 265 497.2 257.3 497.2Z" fill="#F9941C"/>
<path opacity="0.37" d="M271.2 414.5H243.4V437H271.2V414.5Z" fill="#F9941C"/>
<path d="M257.3 506.5C249.6 506.5 243.4 500.3 243.4 492.6V331.4H271.2V492.6C271.3 500.3 265 506.5 257.3 506.5Z" stroke="#013711" stroke-width="8" stroke-miterlimit="10" stroke-linecap="round" stroke-linejoin="round"/>
<path d="M243.4 435V414.5H271.2V435H282.8V408.5C282.8 405.4 280.3 402.9 277.2 402.9H237.4C234.3 402.9 231.8 405.4 231.8 408.5V435H243.4Z" fill="white"/>
<path d="M243.4 435V414.5H271.2V435H282.8V412.2C282.8 407.1 278.7 403 273.6 403H241.1C236 403 231.9 407.1 231.9 412.2V435H243.4Z" stroke="#013711" stroke-width="8" stroke-miterlimit="10" stroke-linecap="round" stroke-linejoin="round"/>
<path d="M261.9 342.4L252.7 351.6" stroke="#013711" stroke-width="4" stroke-miterlimit="10" stroke-linecap="round" stroke-linejoin="round"/>
<path d="M261.9 351.6L252.7 342.4" stroke="#013711" stroke-width="4" stroke-miterlimit="10" stroke-linecap="round" stroke-linejoin="round"/>
<path d="M257.2 439C259.74 439 261.8 436.94 261.8 434.4C261.8 431.859 259.74 429.8 257.2 429.8C254.659 429.8 252.6 431.859 252.6 434.4C252.6 436.94 254.659 439 257.2 439Z" fill="white"/>
<path d="M257.2 437C259.74 437 261.8 434.94 261.8 432.4C261.8 429.859 259.74 427.8 257.2 427.8C254.659 427.8 252.6 429.859 252.6 432.4C252.6 434.94 254.659 437 257.2 437Z" stroke="#013711" stroke-width="4" stroke-miterlimit="10" stroke-linecap="round" stroke-linejoin="round"/>
<path d="M257.2 455C259.74 455 261.8 452.94 261.8 450.4C261.8 447.859 259.74 445.8 257.2 445.8C254.659 445.8 252.6 447.859 252.6 450.4C252.6 452.94 254.659 455 257.2 455Z" fill="white"/>
<path d="M257.2 455C259.74 455 261.8 452.94 261.8 450.4C261.8 447.859 259.74 445.8 257.2 445.8C254.659 445.8 252.6 447.859 252.6 450.4C252.6 452.94 254.659 455 257.2 455Z" stroke="#013711" stroke-width="4" stroke-miterlimit="10" stroke-linecap="round" stroke-linejoin="round"/>
<path d="M257.2 475.3C259.74 475.3 261.8 473.24 261.8 470.7C261.8 468.159 259.74 466.1 257.2 466.1C254.659 466.1 252.6 468.159 252.6 470.7C252.6 473.24 254.659 475.3 257.2 475.3Z" fill="white"/>
<path d="M257.2 475.3C259.74 475.3 261.8 473.24 261.8 470.7C261.8 468.159 259.74 466.1 257.2 466.1C254.659 466.1 252.6 468.159 252.6 470.7C252.6 473.24 254.659 475.3 257.2 475.3Z" stroke="#013711" stroke-width="4" stroke-miterlimit="10" stroke-linecap="round" stroke-linejoin="round"/>
<path d="M257.2 435C255.3 435 253.8 433.5 253.8 431.6V402.2C253.8 400.3 255.3 398.8 257.2 398.8C259.1 398.8 260.6 400.3 260.6 402.2V431.6C260.6 433.5 259.1 435 257.2 435Z" fill="white"/>
<path d="M257.2 435C255.3 435 253.8 433.5 253.8 431.6V402.2C253.8 400.3 255.3 398.8 257.2 398.8C259.1 398.8 260.6 400.3 260.6 402.2V431.6C260.6 433.5 259.1 435 257.2 435Z" stroke="#013711" stroke-width="4" stroke-miterlimit="10" stroke-linecap="round" stroke-linejoin="round"/>
<g opacity="0.41">
<path opacity="0.41" d="M454.4 393.6H407.3C405.5 393.6 403.8 392.6 402.9 391L388.3 363.8C378.5 345.7 382.3 324.5 398 309.8L419 290.2C425.4 284.2 436.2 284.3 442.6 290.2L463.6 309.9C479.3 324.6 483.1 345.7 473.3 363.8L458.8 391C457.9 392.6 456.2 393.6 454.4 393.6ZM410.3 383.6H451.4L464.6 359.1C472.2 345.2 469.1 328.8 456.8 317.3L435.8 297.6C433.3 295.3 428.4 295.2 425.9 297.6L404.9 317.2C392.6 328.7 389.5 345.2 397.1 359.1L410.3 383.6Z" fill="#013711"/>
</g>
<path d="M409.4 380.6H452.2L465.5 354.7C473.4 339.5 470.3 321.6 457.5 309.1L438.4 290.3C434.4 286.3 427.2 286.3 423.2 290.3L404.1 309C391.4 321.5 388.3 339.6 396.1 354.8L409.4 380.6Z" fill="#049448"/>
<path d="M407.3 380.6H454.4L469 353.4C477.7 337.5 474.2 318.7 460.2 305.6L439.2 285.9C434.8 281.7 426.9 281.7 422.5 285.9L401.5 305.5C387.5 318.6 384.1 337.5 392.7 353.5L407.3 380.6Z" stroke="#013711" stroke-width="10" stroke-miterlimit="10" stroke-linecap="round" stroke-linejoin="round"/>
<path d="M414.8 370.6H413.3L412.6 369.3" stroke="#013711" stroke-width="3" stroke-linecap="round" stroke-linejoin="round"/>
<path d="M409.3 363.1L401.6 348.7C395.1 336.8 397.8 322.7 408.4 312.8L429.4 293.2C429.6 293 430.1 292.8 430.9 292.8C431.7 292.8 432.3 293.1 432.5 293.2L453.5 312.9C464.2 322.9 466.8 336.6 460.3 348.7L450.9 366.2" stroke="#013711" stroke-width="3" stroke-linecap="round" stroke-linejoin="round" stroke-dasharray="2.99 2.99"/>
<path d="M449.1 369.3L448.4 370.6H446.9" stroke="#013711" stroke-width="3" stroke-linecap="round" stroke-linejoin="round"/>
<path d="M440.8 370.6H417.8" stroke="#013711" stroke-width="3" stroke-linecap="round" stroke-linejoin="round" stroke-dasharray="2.6 2.6"/>
<g opacity="0.41">
<path opacity="0.41" d="M430.5 517.5C420.1 517.5 411.6 509 411.6 498.6V337.4C411.6 334.6 413.8 332.4 416.6 332.4H444.4C447.2 332.4 449.4 334.6 449.4 337.4V498.6C449.4 509 440.9 517.5 430.5 517.5ZM421.6 342.4V498.6C421.6 503.5 425.6 507.5 430.5 507.5C435.4 507.5 439.4 503.5 439.4 498.6V342.4H421.6Z" fill="#013711"/>
</g>
<path d="M430.5 506.5C422.8 506.5 416.6 500.3 416.6 492.6V331.4H444.4V492.6C444.4 500.3 438.2 506.5 430.5 506.5Z" fill="#F9941C"/>
<path opacity="0.37" d="M430.5 496.9C422.8 496.9 416.6 490.7 416.6 483V493.6C416.6 501.3 422.8 507.5 430.5 507.5C438.2 507.5 444.4 501.3 444.4 493.6V483C444.4 490.6 438.2 496.9 430.5 496.9Z" fill="#F9941C"/>
<path opacity="0.37" d="M444.3 414.5H416.5V437H444.3V414.5Z" fill="#F9941C"/>
<path d="M430.5 506.5C422.8 506.5 416.6 500.3 416.6 492.6V331.4H444.4V492.6C444.4 500.3 438.2 506.5 430.5 506.5Z" stroke="#013711" stroke-width="8" stroke-miterlimit="10" stroke-linecap="round" stroke-linejoin="round"/>
<path d="M416.6 435V414.5H444.4V435H456V408.5C456 405.4 453.5 402.9 450.4 402.9H410.6C407.5 402.9 405 405.4 405 408.5V435H416.6Z" fill="white"/>
<path d="M416.6 435V414.5H444.4V435H456V412.2C456 407.1 451.9 403 446.8 403H414.3C409.2 403 405.1 407.1 405.1 412.2V435H416.6Z" stroke="#013711" stroke-width="8" stroke-miterlimit="10" stroke-linecap="round" stroke-linejoin="round"/>
<path d="M435.1 342.4L425.9 351.6" stroke="#013711" stroke-width="4" stroke-miterlimit="10" stroke-linecap="round" stroke-linejoin="round"/>
<path d="M435.1 351.6L425.9 342.4" stroke="#013711" stroke-width="4" stroke-miterlimit="10" stroke-linecap="round" stroke-linejoin="round"/>
<path d="M430.4 439C432.941 439 435 436.94 435 434.4C435 431.859 432.941 429.8 430.4 429.8C427.86 429.8 425.8 431.859 425.8 434.4C425.8 436.94 427.86 439 430.4 439Z" fill="white"/>
<path d="M430.4 437C432.941 437 435 434.94 435 432.4C435 429.859 432.941 427.8 430.4 427.8C427.86 427.8 425.8 429.859 425.8 432.4C425.8 434.94 427.86 437 430.4 437Z" stroke="#013711" stroke-width="4" stroke-miterlimit="10" stroke-linecap="round" stroke-linejoin="round"/>
<path d="M430.4 455C432.941 455 435 452.94 435 450.4C435 447.859 432.941 445.8 430.4 445.8C427.86 445.8 425.8 447.859 425.8 450.4C425.8 452.94 427.86 455 430.4 455Z" fill="white"/>
<path d="M430.4 455C432.941 455 435 452.94 435 450.4C435 447.859 432.941 445.8 430.4 445.8C427.86 445.8 425.8 447.859 425.8 450.4C425.8 452.94 427.86 455 430.4 455Z" stroke="#013711" stroke-width="4" stroke-miterlimit="10" stroke-linecap="round" stroke-linejoin="round"/>
<path d="M430.4 475.3C432.941 475.3 435 473.24 435 470.7C435 468.159 432.941 466.1 430.4 466.1C427.86 466.1 425.8 468.159 425.8 470.7C425.8 473.24 427.86 475.3 430.4 475.3Z" fill="white"/>
<path d="M430.4 475.3C432.941 475.3 435 473.24 435 470.7C435 468.159 432.941 466.1 430.4 466.1C427.86 466.1 425.8 468.159 425.8 470.7C425.8 473.24 427.86 475.3 430.4 475.3Z" stroke="#013711" stroke-width="4" stroke-miterlimit="10" stroke-linecap="round" stroke-linejoin="round"/>
<path d="M430.4 435C428.5 435 427 433.5 427 431.6V402.2C427 400.3 428.5 398.8 430.4 398.8C432.3 398.8 433.8 400.3 433.8 402.2V431.6C433.8 433.5 432.3 435 430.4 435Z" fill="white"/>
<path d="M430.4 435C428.5 435 427 433.5 427 431.6V402.2C427 400.3 428.5 398.8 430.4 398.8C432.3 398.8 433.8 400.3 433.8 402.2V431.6C433.8 433.5 432.3 435 430.4 435Z" stroke="#013711" stroke-width="4" stroke-miterlimit="10" stroke-linecap="round" stroke-linejoin="round"/>
<path d="M418.8 241.2C422.3 245.6 429.1 245.6 432.6 241.2C434.7 238.6 435.1 235 433.7 231.9L425.7 214.6L417.7 231.9C416.3 234.9 416.8 238.5 418.8 241.2Z" fill="white"/>
<path d="M418.8 241.2C422.3 245.6 429.1 245.6 432.6 241.2C434.7 238.6 435.1 235 433.7 231.9L425.7 214.6L417.7 231.9C416.3 234.9 416.8 238.5 418.8 241.2Z" stroke="#013711" stroke-width="6" stroke-miterlimit="10" stroke-linecap="round" stroke-linejoin="round"/>
<path d="M262.7 220H423.5" stroke="#013711" stroke-width="9" stroke-miterlimit="10" stroke-linejoin="round" stroke-dasharray="5 5"/>
<path d="M344.3 490.3C362.36 490.3 377 481.301 377 470.2C377 459.099 362.36 450.1 344.3 450.1C326.24 450.1 311.6 459.099 311.6 470.2C311.6 481.301 326.24 490.3 344.3 490.3Z" fill="#FCCA86"/>
<path opacity="0.6" d="M344.3 455.8C360.8 455.8 374.5 463.3 376.7 473.1C376.9 472.2 377 471.2 377 470.3C377 459.2 362.3 450.2 344.3 450.2C326.3 450.2 311.6 459.2 311.6 470.3C311.6 471.3 311.7 472.2 311.9 473.1C314.1 463.3 327.7 455.8 344.3 455.8Z" fill="#FCCA86"/>
<path opacity="0.77" d="M344.3 481.3C329.8 481.3 317.3 476.5 311.6 469.7C311.6 469.9 311.6 470.1 311.6 470.2C311.6 481.3 326.3 490.3 344.3 490.3C362.3 490.3 377 481.3 377 470.2C377 470 377 469.8 377 469.7C371.2 476.6 358.8 481.3 344.3 481.3Z" fill="#FCCA86"/>
<path d="M344.3 490.3C362.36 490.3 377 481.301 377 470.2C377 459.099 362.36 450.1 344.3 450.1C326.24 450.1 311.6 459.099 311.6 470.2C311.6 481.301 326.24 490.3 344.3 490.3Z" stroke="#013711" stroke-width="6" stroke-miterlimit="10" stroke-linecap="round" stroke-linejoin="round"/>
<path d="M344.3 490.3C362.36 490.3 377 481.301 377 470.2C377 459.099 362.36 450.1 344.3 450.1C326.24 450.1 311.6 459.099 311.6 470.2C311.6 481.301 326.24 490.3 344.3 490.3Z" stroke="#013711" stroke-width="6" stroke-miterlimit="10" stroke-linecap="round" stroke-linejoin="round"/>
<path d="M366.1 466.4C367.3 467.7 368 469 368 470.2C368 473 364.3 476.6 358 479" stroke="#013711" stroke-width="3" stroke-miterlimit="10" stroke-linecap="round" stroke-linejoin="round"/>
<path d="M344.3 459.1C351.4 459.1 357.4 460.8 361.5 463" stroke="#013711" stroke-width="3" stroke-miterlimit="10" stroke-linecap="round" stroke-linejoin="round"/>
<g opacity="0.17">
<path opacity="0.17" d="M142.7 132.6C177.881 132.6 206.4 104.081 206.4 68.9002C206.4 33.7197 177.881 5.2002 142.7 5.2002C107.519 5.2002 79 33.7197 79 68.9002C79 104.081 107.519 132.6 142.7 132.6Z" stroke="#1B3242" stroke-width="10" stroke-miterlimit="10" stroke-linecap="round" stroke-linejoin="round"/>
<path opacity="0.17" d="M142.7 11.7002V17.9002" stroke="#1B3242" stroke-width="6" stroke-miterlimit="10" stroke-linecap="round" stroke-linejoin="round"/>
<path opacity="0.17" d="M142.7 119.9V126.2" stroke="#1B3242" stroke-width="6" stroke-miterlimit="10" stroke-linecap="round" stroke-linejoin="round"/>
<path opacity="0.17" d="M199.9 68.9004H193.7" stroke="#1B3242" stroke-width="6" stroke-miterlimit="10" stroke-linecap="round" stroke-linejoin="round"/>
<path opacity="0.17" d="M91.7 68.9004H85.5" stroke="#1B3242" stroke-width="6" stroke-miterlimit="10" stroke-linecap="round" stroke-linejoin="round"/>
<path opacity="0.17" d="M142.7 73.9998C145.517 73.9998 147.8 71.7164 147.8 68.8998C147.8 66.0831 145.517 63.7998 142.7 63.7998C139.883 63.7998 137.6 66.0831 137.6 68.8998C137.6 71.7164 139.883 73.9998 142.7 73.9998Z" fill="#1B3242"/>
<path opacity="0.17" d="M142.7 68.9004L170.2 34.9004" stroke="#1B3242" stroke-width="4" stroke-miterlimit="10" stroke-linecap="round" stroke-linejoin="round"/>
<path opacity="0.17" d="M125.4 51.9004L142.7 68.9004" stroke="#1B3242" stroke-width="6" stroke-miterlimit="10" stroke-linecap="round" stroke-linejoin="round"/>
</g>
</svg>
