<svg width="695" height="582" viewBox="0 0 695 582" fill="none" xmlns="http://www.w3.org/2000/svg">
<path d="M579.5 431.1C545.6 431.3 520.2 416.4 499.1 395.5C495 391.3 491.2 385.8 487.6 379.7C469.5 348.6 464.6 312.5 472.9 278.2C486.5 221.8 516.2 120.7 567.8 46.8002C573.2 39.0002 585.8 39.0002 591.2 46.8002C642.8 120.7 672.5 221.8 686.1 278.2C694.4 312.6 689.5 348.6 671.4 379.7C667.8 385.8 664 391.3 659.9 395.5C638.8 416.3 613.4 431.3 579.5 431.1Z" stroke="#00233A" stroke-width="8" stroke-miterlimit="10" stroke-linecap="round" stroke-linejoin="round"/>
<path d="M579.5 358.9L632.9 320.4" stroke="#00233A" stroke-width="8" stroke-miterlimit="10" stroke-linecap="round" stroke-linejoin="round"/>
<path d="M579.5 305.6L531.9 268.8" stroke="#00233A" stroke-width="8" stroke-miterlimit="10" stroke-linecap="round" stroke-linejoin="round"/>
<path d="M579.5 573.5V215.5" stroke="#00233A" stroke-width="8" stroke-miterlimit="10" stroke-linecap="round" stroke-linejoin="round"/>
<path d="M82.7 471.999C106.9 472.199 124.9 460.399 140 443.999C142.9 440.699 145.7 436.399 148.2 431.499C161.1 407.099 164.6 378.699 158.7 351.699C149 307.399 127.8 227.999 91.1 169.899C87.2 163.799 78.3 163.799 74.4 169.899C37.6 227.999 16.5 307.399 6.79998 351.699C0.899976 378.699 4.39998 406.999 17.3 431.499C19.8 436.299 22.6 440.599 25.5 443.999C40.4 460.499 58.5 472.199 82.7 471.999Z" stroke="#00233A" stroke-width="8" stroke-miterlimit="10" stroke-linecap="round" stroke-linejoin="round"/>
<path d="M82.7 420.699L44.6 393.199" stroke="#00233A" stroke-width="8" stroke-miterlimit="10" stroke-linecap="round" stroke-linejoin="round"/>
<path d="M82.7 382.7L116.5 356.5" stroke="#00233A" stroke-width="8" stroke-miterlimit="10" stroke-linecap="round" stroke-linejoin="round"/>
<path d="M136 448.1V463.2C136 482 151.3 497.3 170.1 497.3H221.3C240.1 497.3 255.4 482 255.4 463.2V361.2C255.4 342.4 240.1 327.1 221.3 327.1H170.1C164.2 327.1 158.7 328.6 153.8 331.2" stroke="#00233A" stroke-width="8" stroke-miterlimit="10" stroke-linecap="round" stroke-linejoin="round"/>
<path d="M195.7 471.999L170.4 448.699" stroke="#00233A" stroke-width="8" stroke-miterlimit="10" stroke-linecap="round" stroke-linejoin="round"/>
<path d="M195.7 433.299L223.8 420.699" stroke="#00233A" stroke-width="8" stroke-miterlimit="10" stroke-linecap="round" stroke-linejoin="round"/>
<path d="M82.7 573.5V318.5" stroke="#00233A" stroke-width="8" stroke-miterlimit="10" stroke-linecap="round" stroke-linejoin="round"/>
<path d="M195.7 393.5V573.5" stroke="#00233A" stroke-width="8" stroke-miterlimit="10" stroke-linecap="round" stroke-linejoin="round"/>
<path d="M72 45.3992L93.7 50.2992L99.6 30.6992" stroke="#00233A" stroke-width="8" stroke-miterlimit="10" stroke-linecap="round" stroke-linejoin="round"/>
<path d="M169.5 7L179.3 19.4L191.3 11.3" stroke="#00233A" stroke-width="8" stroke-miterlimit="10" stroke-linecap="round" stroke-linejoin="round"/>
<path d="M262.1 12.7996L277 17.9996L282.8 4.59961" stroke="#00233A" stroke-width="8" stroke-miterlimit="10" stroke-linecap="round" stroke-linejoin="round"/>
<path d="M479 153.8C476.6 153.8 474.2 153.8 471.8 153.8C467 153.8 462.5 149.9 461.9 145C460.2 128.4 460.2 111.6 461.9 94.8996C462.5 89.9996 467 86.0996 471.8 86.0996C474.2 86.0996 476.6 86.0996 479 86.0996C483.8 86.0996 488.3 89.9996 488.9 94.8996C490.6 111.5 490.6 128.3 488.9 145C488.4 149.8 483.8 153.8 479 153.8Z" fill="#9BA589"/>
<path d="M479 153.8C476.6 153.8 474.2 153.8 471.8 153.8C467 153.8 462.5 149.9 461.9 145C460.2 128.4 460.2 111.6 461.9 94.8996C462.5 89.9996 467 86.0996 471.8 86.0996C474.2 86.0996 476.6 86.0996 479 86.0996C483.8 86.0996 488.3 89.9996 488.9 94.8996C490.6 111.5 490.6 128.3 488.9 145C488.4 149.8 483.8 153.8 479 153.8Z" stroke="#3E3442" stroke-width="10" stroke-miterlimit="10" stroke-linecap="round" stroke-linejoin="round"/>
<path d="M170.4 153.8C168 153.8 165.6 153.8 163.2 153.8C158.4 153.8 153.9 149.9 153.3 145C151.6 128.4 151.6 111.6 153.3 94.8996C153.9 89.9996 158.4 86.0996 163.2 86.0996C165.6 86.0996 168 86.0996 170.4 86.0996C175.2 86.0996 179.7 89.9996 180.3 94.8996C182 111.5 182 128.3 180.3 145C179.8 149.8 175.2 153.8 170.4 153.8Z" fill="#9BA589"/>
<path d="M170.4 153.8C168 153.8 165.6 153.8 163.2 153.8C158.4 153.8 153.9 149.9 153.3 145C151.6 128.4 151.6 111.6 153.3 94.8996C153.9 89.9996 158.4 86.0996 163.2 86.0996C165.6 86.0996 168 86.0996 170.4 86.0996C175.2 86.0996 179.7 89.9996 180.3 94.8996C182 111.5 182 128.3 180.3 145C179.8 149.8 175.2 153.8 170.4 153.8Z" stroke="#3E3442" stroke-width="10" stroke-miterlimit="10" stroke-linecap="round" stroke-linejoin="round"/>
<path d="M182.5 515.9L158.7 507.4C124.4 495.1 103.1 453 109.1 409.6L117.4 349.9C120.1 330.7 133.6 316.6 149.4 316.6H182.5V515.9Z" stroke="#3E3442" stroke-width="10" stroke-miterlimit="10" stroke-linecap="round" stroke-linejoin="round"/>
<path d="M168.6 409.099C178.9 404.599 186.7 400.599 192.7 397.199V303.899H149.4C128.5 303.899 110.8 322.299 107.3 347.699L99 407.399C98.4 411.499 98.1 415.499 97.9 419.499C113.4 421.599 139.2 421.899 168.6 409.099Z" stroke="#3E3442" stroke-width="10" stroke-miterlimit="10" stroke-linecap="round" stroke-linejoin="round"/>
<path d="M182.5 515.9L158.7 507.4C124.4 495.1 103.1 453 109.1 409.6L117.4 349.9C120.1 330.7 133.6 316.6 149.4 316.6H182.5V515.9Z" stroke="#3E3442" stroke-width="10" stroke-miterlimit="10" stroke-linecap="round" stroke-linejoin="round"/>
<path d="M182.5 515.9L158.7 507.4C124.4 495.1 103.1 453 109.1 409.6L117.4 349.9C120.1 330.7 133.6 316.6 149.4 316.6H182.5V515.9Z" fill="#F26161"/>
<path opacity="0.3" d="M117.4 353.8L109.1 413.5C108.2 419.9 107.9 426.2 108.2 432.4C110.3 432.5 112.3 432.6 114.4 432.6C133.9 432.6 153.2 428.5 171.8 420.4C175.6 418.8 179.1 417.1 182.5 415.5V320.5H149.4C133.6 320.5 120 334.6 117.4 353.8Z" fill="#994A4A"/>
<path d="M182.5 515.9L158.7 507.4C124.4 495.1 103.1 453 109.1 409.6L117.4 349.9C120.1 330.7 133.6 316.6 149.4 316.6H182.5V515.9Z" stroke="#3E3442" stroke-width="10" stroke-miterlimit="10" stroke-linecap="round" stroke-linejoin="round"/>
<path d="M168.6 409.099C178.9 404.599 186.7 400.599 192.7 397.199V303.899H149.4C128.5 303.899 110.8 322.299 107.3 347.699L99 407.399C98.4 411.499 98.1 415.499 97.9 419.499C113.4 421.599 139.2 421.899 168.6 409.099Z" fill="#604957"/>
<path opacity="0.26" d="M105.4 412.999L113.7 353.299C117.2 327.899 134.9 309.499 155.8 309.499H192.7V303.899H149.4C128.5 303.899 110.8 322.299 107.3 347.699L99 407.399C98.4 411.499 98.1 415.499 97.9 419.499C100 419.799 102.2 419.999 104.6 420.199C104.8 417.799 105.1 415.399 105.4 412.999Z" fill="#725865"/>
<path d="M168.6 409.099C178.9 404.599 186.7 400.599 192.7 397.199V303.899H149.4C128.5 303.899 110.8 322.299 107.3 347.699L99 407.399C98.4 411.499 98.1 415.499 97.9 419.499C113.4 421.599 139.2 421.899 168.6 409.099Z" stroke="#3E3442" stroke-width="10" stroke-miterlimit="10" stroke-linecap="round" stroke-linejoin="round"/>
<path d="M114.4 410.599C112.5 410.599 110.6 410.599 108.7 410.499C108.8 409.899 108.8 409.399 108.9 408.799L117.2 349.099C120 328.699 133.6 313.899 149.4 313.899H182.7V391.299C177.5 394.099 171.4 396.999 164.6 399.999C148.3 406.999 131.4 410.599 114.4 410.599Z" stroke="#3E3442" stroke-width="3" stroke-miterlimit="10" stroke-linecap="round" stroke-linejoin="round" stroke-dasharray="5 5"/>
<path d="M461.4 515.9L485.2 507.4C519.5 495.1 540.8 453 534.8 409.6L526.5 349.9C523.8 330.7 510.3 316.6 494.5 316.6H461.4V515.9Z" stroke="#3E3442" stroke-width="10" stroke-miterlimit="10" stroke-linecap="round" stroke-linejoin="round"/>
<path d="M475.3 409.099C465 404.599 457.2 400.599 451.2 397.199V303.899H494.5C515.4 303.899 533.1 322.299 536.6 347.699L544.9 407.399C545.5 411.499 545.8 415.499 546 419.499C530.5 421.599 504.7 421.899 475.3 409.099Z" stroke="#3E3442" stroke-width="10" stroke-miterlimit="10" stroke-linecap="round" stroke-linejoin="round"/>
<path d="M461.4 515.9L485.2 507.4C519.5 495.1 540.8 453 534.8 409.6L526.5 349.9C523.8 330.7 510.3 316.6 494.5 316.6H461.4V515.9Z" stroke="#3E3442" stroke-width="10" stroke-miterlimit="10" stroke-linecap="round" stroke-linejoin="round"/>
<path d="M461.4 515.9L485.2 507.4C519.5 495.1 540.8 453 534.8 409.6L526.5 349.9C523.8 330.7 510.3 316.6 494.5 316.6H461.4V515.9Z" fill="#F26161"/>
<path opacity="0.3" d="M534.8 413.5L526.5 353.8C523.8 334.6 510.3 320.5 494.5 320.5H461.4V415.5C464.8 417.1 468.3 418.7 472.1 420.4C490.7 428.5 510 432.6 529.5 432.6C531.6 432.6 533.7 432.5 535.7 432.4C536 426.2 535.7 419.9 534.8 413.5Z" fill="#994A4A"/>
<path d="M461.4 515.9L485.2 507.4C519.5 495.1 540.8 453 534.8 409.6L526.5 349.9C523.8 330.7 510.3 316.6 494.5 316.6H461.4V515.9Z" stroke="#3E3442" stroke-width="10" stroke-miterlimit="10" stroke-linecap="round" stroke-linejoin="round"/>
<path d="M475.3 409.099C465 404.599 457.2 400.599 451.2 397.199V303.899H494.5C515.4 303.899 533.1 322.299 536.6 347.699L544.9 407.399C545.5 411.499 545.8 415.499 546 419.499C530.5 421.599 504.7 421.899 475.3 409.099Z" fill="#604957"/>
<path opacity="0.26" d="M487.5 309.299C508.4 309.299 526.1 327.399 529.6 352.399L537.9 411.099C538.3 413.799 538.6 416.599 538.7 419.299C541.3 419.099 543.7 418.899 545.9 418.599C545.7 414.699 545.4 410.699 544.8 406.699L536.5 347.999C533 322.999 515.3 304.899 494.4 304.899H451.1V309.299H487.5Z" fill="#725865"/>
<path d="M529.5 410.6C512.5 410.6 495.6 407 479.3 399.9C472.5 396.9 466.4 394 461.2 391.2V313.8H494.5C510.3 313.8 523.9 328.6 526.7 349L535 408.7C535.1 409.3 535.2 409.8 535.2 410.4C533.3 410.6 531.4 410.6 529.5 410.6Z" stroke="#3E3442" stroke-width="3" stroke-miterlimit="10" stroke-linecap="round" stroke-linejoin="round" stroke-dasharray="5 5"/>
<path d="M475.3 409.099C465 404.599 457.2 400.599 451.2 397.199V303.899H494.5C515.4 303.899 533.1 322.299 536.6 347.699L544.9 407.399C545.5 411.499 545.8 415.499 546 419.499C530.5 421.599 504.7 421.899 475.3 409.099Z" stroke="#3E3442" stroke-width="10" stroke-miterlimit="10" stroke-linecap="round" stroke-linejoin="round"/>
<path d="M452.5 167.7C364.8 167.7 277.2 167.7 189.5 167.7C162.7 167.9 161.1 148.5 161.4 121.6C161.1 94.6996 162.7 75.2996 189.5 75.4996C277.2 75.4996 364.8 75.4996 452.5 75.4996C479.3 75.2996 480.9 94.6996 480.6 121.6C480.9 148.5 479.3 167.9 452.5 167.7Z" fill="#9BA589"/>
<path opacity="0.25" d="M480.7 121.6C480.7 119.5 480.7 117.5 480.7 115.5C480.6 139.1 477.3 155.6 452.6 155.4C364.9 155.4 277.3 155.4 189.6 155.4C164.9 155.6 161.6 139.1 161.5 115.5C161.5 117.5 161.5 119.6 161.5 121.7C161.2 148.6 162.8 168 189.6 167.8C277.3 167.8 364.9 167.8 452.6 167.8C479.3 167.9 480.9 148.5 480.7 121.6Z" fill="#9BA589"/>
<path opacity="0.31" d="M161.4 121.6C161.4 123.7 161.4 125.8 161.4 127.8C161.6 104.2 164.9 87.6996 189.5 87.8996C277.2 87.8996 364.8 87.8996 452.5 87.8996C477.2 87.6996 480.5 104.2 480.6 127.8C480.6 125.8 480.6 123.7 480.6 121.6C480.9 94.6996 479.3 75.2996 452.5 75.4996C364.8 75.4996 277.2 75.4996 189.5 75.4996C162.8 75.2996 161.2 94.6996 161.4 121.6Z" fill="#9BA589"/>
<path d="M452.5 167.7C364.8 167.7 277.2 167.7 189.5 167.7C162.7 167.9 161.1 148.5 161.4 121.6C161.1 94.6996 162.7 75.2996 189.5 75.4996C277.2 75.4996 364.8 75.4996 452.5 75.4996C479.3 75.2996 480.9 94.6996 480.6 121.6C480.9 148.5 479.3 167.9 452.5 167.7Z" stroke="#3E3442" stroke-width="10" stroke-miterlimit="10" stroke-linecap="round" stroke-linejoin="round"/>
<path d="M407.9 72.0996V139.9" stroke="#3E3442" stroke-width="14" stroke-miterlimit="10" stroke-linecap="round" stroke-linejoin="round"/>
<path d="M237.7 72.0996V139.9" stroke="#3E3442" stroke-width="14" stroke-miterlimit="10" stroke-linecap="round" stroke-linejoin="round"/>
<path d="M481.3 266.799C479.1 255.199 475.9 243.899 471.9 233.099C448 169.299 388.4 127.899 322.8 127.899H322.7C257.1 127.899 197.6 169.299 173.6 233.099C169.6 243.899 166.4 255.099 164.2 266.799C152.8 338.399 148.7 410.399 153.9 481.699C158.6 533.099 202.5 576.899 241.9 576.899C295.8 576.899 349.6 576.899 403.5 576.899C443 576.899 486.9 533.099 491.5 481.699C496.8 410.399 492.7 338.399 481.3 266.799Z" fill="#F26161"/>
<path opacity="0.3" d="M491.6 469.499C486.9 519.899 443 562.699 403.6 562.699C349.7 562.699 295.9 562.699 242 562.699C202.5 562.699 158.6 519.799 154 469.499C152.7 452.299 152 435.099 151.8 417.899C151.6 440.899 152.3 463.799 154 486.599C158.7 536.999 202.6 579.799 242 579.799C295.9 579.799 349.7 579.799 403.6 579.799C443.1 579.799 487 536.899 491.6 486.599C493.3 463.699 494 440.799 493.8 417.899C493.6 435.099 492.9 452.399 491.6 469.499Z" fill="#994A4A"/>
<path opacity="0.39" d="M481.3 266.799C479.1 255.199 475.9 243.899 471.9 233.099C448 169.299 388.4 127.899 322.8 127.899H322.7C257.1 127.899 197.6 169.299 173.6 233.099C169.6 243.899 166.4 255.099 164.2 266.799C152.8 338.399 148.7 410.399 153.9 481.699C156.3 508.199 169.2 532.799 186.5 550.199C173.4 533.899 164 512.899 162.1 490.499C157.1 420.499 161 349.999 171.9 279.799C174 268.399 177 257.399 180.9 246.799C203.7 184.199 260.4 143.599 322.8 143.599H322.9C385.3 143.599 442 184.199 464.8 246.799C468.6 257.399 471.7 268.399 473.8 279.799C484.7 349.999 488.5 420.499 483.6 490.499C481.6 512.899 472.3 533.899 459.2 550.199C476.5 532.699 489.4 508.199 491.8 481.699C496.8 410.399 492.7 338.399 481.3 266.799Z" fill="#F26161"/>
<path d="M267.7 271C256.2 271 246.8 280.4 246.8 291.9C246.8 303.4 256.2 312.8 267.7 312.8C279.2 312.8 288.6 303.4 288.6 291.9C288.6 280.3 279.2 271 267.7 271ZM267.7 303.8C261.1 303.8 255.8 298.5 255.8 291.9C255.8 285.3 261.1 280 267.7 280C274.3 280 279.6 285.3 279.6 291.9C279.6 298.5 274.2 303.8 267.7 303.8Z" fill="#EAE6E5"/>
<path d="M267.7 271C256.2 271 246.8 280.4 246.8 291.9C246.8 303.4 256.2 312.8 267.7 312.8C279.2 312.8 288.6 303.4 288.6 291.9C288.6 280.3 279.2 271 267.7 271ZM267.7 303.8C261.1 303.8 255.8 298.5 255.8 291.9C255.8 285.3 261.1 280 267.7 280C274.3 280 279.6 285.3 279.6 291.9C279.6 298.5 274.2 303.8 267.7 303.8Z" stroke="#3E3442" stroke-width="2" stroke-miterlimit="10" stroke-linecap="round" stroke-linejoin="round"/>
<path d="M389 271C377.5 271 368.1 280.4 368.1 291.9C368.1 303.4 377.5 312.8 389 312.8C400.5 312.8 409.9 303.4 409.9 291.9C409.9 280.3 400.5 271 389 271ZM389 303.8C382.4 303.8 377.1 298.5 377.1 291.9C377.1 285.3 382.4 280 389 280C395.6 280 400.9 285.3 400.9 291.9C400.9 298.5 395.6 303.8 389 303.8Z" fill="#EAE6E5"/>
<path opacity="0.3" d="M479.3 263.999C479.4 263.899 479.5 263.799 479.7 263.699C477.7 254.899 475.1 246.399 472 238.099C448.1 174.299 388.5 132.899 322.9 132.899H322.8C257.2 132.899 197.7 174.299 173.7 238.099C170.6 246.399 168 254.899 166 263.699C166.1 263.799 166.2 263.899 166.4 263.999C210.8 301.999 273.3 308.899 322.9 308.899C372.3 308.899 434.9 301.999 479.3 263.999Z" fill="#994A4A"/>
<path opacity="0.3" d="M417.2 533.9H235.5C223.5 533.9 213.7 524.2 213.7 512.1V431.1C213.7 419.1 223.4 409.3 235.5 409.3H417.2C429.2 409.3 439 419 439 431.1V512.1C439 524.2 429.3 533.9 417.2 533.9Z" fill="#994A4A" stroke="#994A4A" stroke-width="10" stroke-miterlimit="10" stroke-linecap="round" stroke-linejoin="round"/>
<path d="M389 271C377.5 271 368.1 280.4 368.1 291.9C368.1 303.4 377.5 312.8 389 312.8C400.5 312.8 409.9 303.4 409.9 291.9C409.9 280.3 400.5 271 389 271ZM389 303.8C382.4 303.8 377.1 298.5 377.1 291.9C377.1 285.3 382.4 280 389 280C395.6 280 400.9 285.3 400.9 291.9C400.9 298.5 395.6 303.8 389 303.8Z" stroke="#3E3442" stroke-width="2" stroke-miterlimit="10" stroke-linecap="round" stroke-linejoin="round"/>
<path d="M417.2 523.9H235.5C223.5 523.9 213.7 514.2 213.7 502.1V421.1C213.7 409.1 223.4 399.3 235.5 399.3H417.2C429.2 399.3 439 409 439 421.1V502.1C439 514.2 429.3 523.9 417.2 523.9Z" fill="#725865"/>
<path opacity="0.4" d="M333.1 469.5L327.1 475.7C324.8 478.1 320.8 478.1 318.5 475.7L312.5 469.5C312 469 311.8 468.4 311.8 467.8V392.6C311.8 391.2 313 390.1 314.6 390.1H331C332.5 390.1 333.8 391.2 333.8 392.6V467.8C333.8 468.5 333.5 469.1 333.1 469.5Z" fill="#3E3442" stroke="#3E3442" stroke-width="6" stroke-miterlimit="10" stroke-linecap="round" stroke-linejoin="round"/>
<path d="M417.2 523.9H235.5C223.5 523.9 213.7 514.2 213.7 502.1V421.1C213.7 409.1 223.4 399.3 235.5 399.3H417.2C429.2 399.3 439 409 439 421.1V502.1C439 514.2 429.3 523.9 417.2 523.9Z" stroke="#3E3442" stroke-width="10" stroke-miterlimit="10" stroke-linecap="round" stroke-linejoin="round"/>
<path d="M235.5 511.9C230.1 511.9 225.7 507.5 225.7 502.1V421.1C225.7 415.7 230.1 411.3 235.5 411.3H417.2C422.6 411.3 427 415.7 427 421.1V502.1C427 507.5 422.6 511.9 417.2 511.9H235.5Z" stroke="#3E3442" stroke-width="3" stroke-linecap="round" stroke-linejoin="round" stroke-dasharray="4.99 4.99"/>
<path d="M481.3 266.799C479.1 255.199 475.9 243.899 471.9 233.099C448 169.299 388.4 127.899 322.8 127.899H322.7C257.1 127.899 197.6 169.299 173.6 233.099C169.6 243.899 166.4 255.099 164.2 266.799C152.8 338.399 148.7 410.399 153.9 481.699C158.6 533.099 202.5 576.899 241.9 576.899C295.8 576.899 349.6 576.899 403.5 576.899C443 576.899 486.9 533.099 491.5 481.699C496.8 410.399 492.7 338.399 481.3 266.799Z" stroke="#3E3442" stroke-width="10" stroke-miterlimit="10" stroke-linecap="round" stroke-linejoin="round"/>
<path d="M322.8 291.899C381.8 291.899 435 283.799 472.8 251.399C479.8 245.399 482.6 234.999 479.5 225.799C479.5 225.699 479.5 225.699 479.4 225.599C467.1 189.499 445.8 158.899 417.6 137.099C389.5 115.399 356.8 103.899 322.8 103.899C288.9 103.899 256.1 115.399 228 137.099C199.8 158.899 178.5 189.599 166.2 225.599C166.2 225.699 166.2 225.699 166.1 225.799C163 234.999 165.7 245.399 172.8 251.399C210.6 283.699 263.8 291.899 322.8 291.899Z" fill="#725865"/>
<path opacity="0.4" d="M276.1 188.799L270.1 195.499C267.8 198.099 263.8 198.099 261.5 195.499L255.5 188.799C255 188.299 254.8 187.599 254.8 186.999V104.699C254.8 103.199 256 101.899 257.6 101.899H274.1C275.6 101.899 276.9 103.099 276.9 104.699V186.999C276.8 187.599 276.6 188.299 276.1 188.799Z" fill="#3E3442" stroke="#3E3442" stroke-width="6" stroke-miterlimit="10" stroke-linecap="round" stroke-linejoin="round"/>
<path opacity="0.4" d="M388.5 188.799L382.5 195.499C380.2 198.099 376.2 198.099 373.9 195.499L367.9 188.799C367.4 188.299 367.2 187.599 367.2 186.999V104.699C367.2 103.199 368.4 101.899 370 101.899H386.5C388 101.899 389.3 103.099 389.3 104.699V186.999C389.2 187.599 388.9 188.299 388.5 188.799Z" fill="#3E3442" stroke="#3E3442" stroke-width="6" stroke-miterlimit="10" stroke-linecap="round" stroke-linejoin="round"/>
<path opacity="0.32" d="M472.8 242.4C435 274.7 381.8 282.9 322.8 282.9C263.8 282.9 210.6 274.8 172.8 242.4C168.8 239 166.2 234.2 165.3 229.1C163.8 237.4 166.6 246.1 172.8 251.4C210.6 283.7 263.8 291.9 322.8 291.9C381.8 291.9 435 283.8 472.8 251.4C479 246.1 481.9 237.4 480.3 229.1C479.3 234.3 476.7 239 472.8 242.4Z" fill="#725865"/>
<path opacity="0.58" d="M479.4 225.799C479.4 225.699 479.4 225.699 479.3 225.599C467 189.499 445.7 158.899 417.5 137.099C389.4 115.399 356.7 103.899 322.7 103.899C288.8 103.899 256 115.399 227.9 137.099C199.7 158.899 178.4 189.599 166.1 225.599C166.1 225.699 166.1 225.699 166 225.799C163 234.599 165.4 244.499 171.8 250.599C168.6 244.999 167.8 237.899 170 231.399C170 231.399 170 231.299 170.1 231.299C182.1 196.099 202.9 166.299 230.3 144.999C257.6 123.799 289.6 112.599 322.6 112.599C355.7 112.599 387.7 123.799 415 144.999C442.4 166.299 463.3 196.099 475.2 231.299V231.399C477.4 237.899 476.6 244.999 473.4 250.599C480 244.499 482.4 234.599 479.4 225.799Z" fill="#725865"/>
<path d="M322.8 291.899C381.8 291.899 435 283.799 472.8 251.399C479.8 245.399 482.6 234.999 479.5 225.799C479.5 225.699 479.5 225.699 479.4 225.599C467.1 189.499 445.8 158.899 417.6 137.099C389.5 115.399 356.8 103.899 322.8 103.899C288.9 103.899 256.1 115.399 228 137.099C199.8 158.899 178.5 189.599 166.2 225.599C166.2 225.699 166.2 225.699 166.1 225.799C163 234.999 165.7 245.399 172.8 251.399C210.6 283.699 263.8 291.899 322.8 291.899Z" stroke="#3E3442" stroke-width="10" stroke-miterlimit="10" stroke-linecap="round" stroke-linejoin="round"/>
<path d="M322.8 279.9C254.8 279.9 211 268.3 180.6 242.3C177.2 239.4 175.9 234.2 177.5 229.7V229.6C189 195.7 209 167.1 235.3 146.7C261.2 126.6 291.5 116 322.7 116C354 116 384.2 126.6 410.2 146.7C436.5 167.1 456.5 195.8 468 229.6V229.7C469.5 234.3 468.3 239.5 464.9 242.3C434.6 268.3 390.8 279.9 322.8 279.9Z" stroke="#3E3442" stroke-width="3" stroke-miterlimit="10" stroke-linecap="round" stroke-linejoin="round" stroke-dasharray="5 5"/>
<path d="M333.1 460.099L326.4 467.599C324.5 469.799 321.1 469.799 319.1 467.599L312.4 460.099C311.9 459.599 311.7 458.899 311.7 458.299V392.999C311.7 391.499 312.9 390.199 314.5 390.199H331C332.5 390.199 333.8 391.399 333.8 392.999V458.299C333.8 458.899 333.5 459.599 333.1 460.099Z" fill="#EDAB7A"/>
<path d="M333.1 460.099L327.1 466.799C324.8 469.399 320.8 469.399 318.5 466.799L312.5 460.099C312 459.599 311.8 458.899 311.8 458.299V392.999C311.8 391.499 313 390.199 314.6 390.199H331C332.5 390.199 333.8 391.399 333.8 392.999V458.299C333.8 458.899 333.5 459.599 333.1 460.099Z" stroke="#3E3442" stroke-width="6" stroke-miterlimit="10" stroke-linecap="round" stroke-linejoin="round"/>
<path d="M333.8 427.6H311.8V441.1H333.8V427.6Z" stroke="#3E3442" stroke-width="6" stroke-miterlimit="10" stroke-linecap="round" stroke-linejoin="round"/>
<path d="M322.8 428.799V441.099" stroke="#3E3442" stroke-width="6" stroke-miterlimit="10" stroke-linecap="round" stroke-linejoin="round"/>
<path d="M322.8 406.999C324.678 406.999 326.2 405.477 326.2 403.599C326.2 401.721 324.678 400.199 322.8 400.199C320.922 400.199 319.4 401.721 319.4 403.599C319.4 405.477 320.922 406.999 322.8 406.999Z" fill="#3E3442"/>
<path d="M322.8 420.999C324.678 420.999 326.2 419.477 326.2 417.599C326.2 415.721 324.678 414.199 322.8 414.199C320.922 414.199 319.4 415.721 319.4 417.599C319.4 419.477 320.922 420.999 322.8 420.999Z" fill="#3E3442"/>
<path d="M322.8 454.4C324.678 454.4 326.2 452.877 326.2 451C326.2 449.122 324.678 447.6 322.8 447.6C320.922 447.6 319.4 449.122 319.4 451C319.4 452.877 320.922 454.4 322.8 454.4Z" fill="#3E3442"/>
<path d="M276.1 179.799L269.4 187.299C267.5 189.499 264.1 189.499 262.1 187.299L255.4 179.799C254.9 179.299 254.7 178.599 254.7 177.999V95.6994C254.7 94.1994 255.9 92.8994 257.5 92.8994H274C275.5 92.8994 276.8 94.0994 276.8 95.6994V177.999C276.8 178.599 276.6 179.299 276.1 179.799Z" fill="#EDAB7A"/>
<path d="M276.1 179.799L270.1 186.499C267.8 189.099 263.8 189.099 261.5 186.499L255.5 179.799C255 179.299 254.8 178.599 254.8 177.999V95.6994C254.8 94.1994 256 92.8994 257.6 92.8994H274.1C275.6 92.8994 276.9 94.0994 276.9 95.6994V177.999C276.8 178.599 276.6 179.299 276.1 179.799Z" stroke="#3E3442" stroke-width="6" stroke-miterlimit="10" stroke-linecap="round" stroke-linejoin="round"/>
<path opacity="0.6" d="M276.8 147.3H254.8V160.8H276.8V147.3Z" fill="#EDAB7A"/>
<path d="M276.8 147.3H254.8V160.8H276.8V147.3Z" stroke="#3E3442" stroke-width="6" stroke-miterlimit="10" stroke-linecap="round" stroke-linejoin="round"/>
<path d="M265.8 148.499V160.799" stroke="#3E3442" stroke-width="6" stroke-miterlimit="10" stroke-linecap="round" stroke-linejoin="round"/>
<path d="M265.8 126.699C267.678 126.699 269.2 125.177 269.2 123.299C269.2 121.422 267.678 119.899 265.8 119.899C263.922 119.899 262.4 121.422 262.4 123.299C262.4 125.177 263.922 126.699 265.8 126.699Z" fill="#3E3442"/>
<path d="M265.8 140.699C267.678 140.699 269.2 139.177 269.2 137.299C269.2 135.422 267.678 133.899 265.8 133.899C263.922 133.899 262.4 135.422 262.4 137.299C262.4 139.177 263.922 140.699 265.8 140.699Z" fill="#3E3442"/>
<path d="M265.8 174.1C267.678 174.1 269.2 172.578 269.2 170.7C269.2 168.822 267.678 167.3 265.8 167.3C263.922 167.3 262.4 168.822 262.4 170.7C262.4 172.578 263.922 174.1 265.8 174.1Z" fill="#3E3442"/>
<path d="M388.5 179.799L381.8 187.299C379.9 189.499 376.5 189.499 374.5 187.299L367.8 179.799C367.3 179.299 367.1 178.599 367.1 177.999V95.6994C367.1 94.1994 368.3 92.8994 369.9 92.8994H386.4C387.9 92.8994 389.2 94.0994 389.2 95.6994V177.999C389.2 178.599 388.9 179.299 388.5 179.799Z" fill="#EDAB7A"/>
<path opacity="0.6" d="M389.2 147.3H367.2V160.8H389.2V147.3Z" fill="#EDAB7A"/>
<path d="M388.5 179.799L382.5 186.499C380.2 189.099 376.2 189.099 373.9 186.499L367.9 179.799C367.4 179.299 367.2 178.599 367.2 177.999V95.6994C367.2 94.1994 368.4 92.8994 370 92.8994H386.5C388 92.8994 389.3 94.0994 389.3 95.6994V177.999C389.2 178.599 388.9 179.299 388.5 179.799Z" stroke="#3E3442" stroke-width="6" stroke-miterlimit="10" stroke-linecap="round" stroke-linejoin="round"/>
<path d="M265.8 112.699C267.678 112.699 269.2 111.177 269.2 109.299C269.2 107.422 267.678 105.899 265.8 105.899C263.922 105.899 262.4 107.422 262.4 109.299C262.4 111.177 263.922 112.699 265.8 112.699Z" fill="#3E3442"/>
<path d="M378.2 112.699C380.078 112.699 381.6 111.177 381.6 109.299C381.6 107.422 380.078 105.899 378.2 105.899C376.322 105.899 374.8 107.422 374.8 109.299C374.8 111.177 376.322 112.699 378.2 112.699Z" fill="#3E3442"/>
<path d="M265.8 99.5998C267.678 99.5998 269.2 98.0776 269.2 96.1998C269.2 94.3221 267.678 92.7998 265.8 92.7998C263.922 92.7998 262.4 94.3221 262.4 96.1998C262.4 98.0776 263.922 99.5998 265.8 99.5998Z" fill="#3E3442"/>
<path d="M378.2 99.5998C380.078 99.5998 381.6 98.0776 381.6 96.1998C381.6 94.3221 380.078 92.7998 378.2 92.7998C376.322 92.7998 374.8 94.3221 374.8 96.1998C374.8 98.0776 376.322 99.5998 378.2 99.5998Z" fill="#3E3442"/>
<path opacity="0.6" d="M389.2 147.3H367.2V160.8H389.2V147.3Z" fill="#EDAB7A"/>
<path d="M389.2 147.3H367.2V160.8H389.2V147.3Z" stroke="#3E3442" stroke-width="6" stroke-miterlimit="10" stroke-linecap="round" stroke-linejoin="round"/>
<path d="M378.2 148.5V160.8" stroke="#3E3442" stroke-width="6" stroke-miterlimit="10" stroke-linecap="round" stroke-linejoin="round"/>
<path d="M378.2 126.699C380.078 126.699 381.6 125.177 381.6 123.299C381.6 121.422 380.078 119.899 378.2 119.899C376.322 119.899 374.8 121.422 374.8 123.299C374.8 125.177 376.322 126.699 378.2 126.699Z" fill="#3E3442"/>
<path d="M378.2 140.699C380.078 140.699 381.6 139.177 381.6 137.299C381.6 135.422 380.078 133.899 378.2 133.899C376.322 133.899 374.8 135.422 374.8 137.299C374.8 139.177 376.322 140.699 378.2 140.699Z" fill="#3E3442"/>
<path d="M378.2 174.1C380.078 174.1 381.6 172.578 381.6 170.7C381.6 168.822 380.078 167.3 378.2 167.3C376.322 167.3 374.8 168.822 374.8 170.7C374.8 172.578 376.322 174.1 378.2 174.1Z" fill="#3E3442"/>
<path d="M343 265.4H301.5C297.5 265.4 294.3 262.2 294.3 258.2V209.2C294.3 205.2 297.5 202 301.5 202H343C347 202 350.2 205.2 350.2 209.2V258.2C350.3 262.1 347 265.4 343 265.4Z" fill="#826776"/>
<path opacity="0.32" d="M350.3 201.899H294.3V229.499H350.3V201.899Z" fill="#725865"/>
<path d="M343 265.4H301.5C297.5 265.4 294.3 262.2 294.3 258.2V209.2C294.3 205.2 297.5 202 301.5 202H343C347 202 350.2 205.2 350.2 209.2V258.2C350.3 262.1 347 265.4 343 265.4Z" stroke="#3E3442" stroke-width="6" stroke-miterlimit="10" stroke-linecap="round" stroke-linejoin="round"/>
<path d="M301.5 259.4C300.8 259.4 300.3 258.8 300.3 258.2V209.2C300.3 208.5 300.9 208 301.5 208H343C343.7 208 344.2 208.6 344.2 209.2V258.2C344.2 258.9 343.6 259.4 343 259.4H301.5Z" stroke="#3E3442" stroke-width="2" stroke-miterlimit="10" stroke-linecap="round" stroke-linejoin="round" stroke-dasharray="3 3"/>
<path d="M355.3 180.899H289.3V219.199H355.3V180.899Z" fill="#F26161"/>
<path d="M355.3 180.899H289.3V219.199H355.3V180.899Z" stroke="#3E3442" stroke-width="6" stroke-miterlimit="10" stroke-linecap="round" stroke-linejoin="round"/>
<path d="M365.1 360.599H276.9C272.4 360.599 268.7 356.899 268.7 352.399C268.7 347.899 272.4 344.199 276.9 344.199H365.1C369.6 344.199 373.3 347.899 373.3 352.399C373.3 356.899 369.7 360.599 365.1 360.599Z" fill="#725865"/>
<path d="M365.1 360.599H276.9C272.4 360.599 268.7 356.899 268.7 352.399C268.7 347.899 272.4 344.199 276.9 344.199H365.1C369.6 344.199 373.3 347.899 373.3 352.399C373.3 356.899 369.7 360.599 365.1 360.599Z" stroke="#3E3442" stroke-width="4" stroke-miterlimit="10" stroke-linecap="round" stroke-linejoin="round"/>
<path d="M330.5 352.399H360.1" stroke="#3E3442" stroke-width="6" stroke-miterlimit="10" stroke-linejoin="round"/>
<path d="M306.2 352.399H321" stroke="#3E3442" stroke-width="6" stroke-miterlimit="10" stroke-linejoin="round"/>
<path d="M282 352.399H298.3" stroke="#3E3442" stroke-width="6" stroke-miterlimit="10" stroke-linejoin="round"/>
<path d="M333 176.1H311.5V240.9H333V176.1Z" fill="#D35050"/>
<path d="M333 176.1H311.5V240.9H333V176.1Z" stroke="#3E3442" stroke-width="4" stroke-miterlimit="10" stroke-linecap="round" stroke-linejoin="round"/>
<path d="M322.8 231.799C324.899 231.799 326.6 230.098 326.6 227.999C326.6 225.901 324.899 224.199 322.8 224.199C320.701 224.199 319 225.901 319 227.999C319 230.098 320.701 231.799 322.8 231.799Z" stroke="#3E3442" stroke-width="4" stroke-miterlimit="10" stroke-linecap="round" stroke-linejoin="round"/>
<path d="M396.8 245.599C404.919 245.599 411.5 239.018 411.5 230.899C411.5 222.781 404.919 216.199 396.8 216.199C388.681 216.199 382.1 222.781 382.1 230.899C382.1 239.018 388.681 245.599 396.8 245.599Z" fill="#826776"/>
<path d="M396.8 245.599C404.919 245.599 411.5 239.018 411.5 230.899C411.5 222.781 404.919 216.199 396.8 216.199C388.681 216.199 382.1 222.781 382.1 230.899C382.1 239.018 388.681 245.599 396.8 245.599Z" stroke="#3E3442" stroke-width="2" stroke-miterlimit="10" stroke-linecap="round" stroke-linejoin="round"/>
<path d="M390.8 236.999L396.8 221.899L402.8 236.999H390.8Z" fill="#8CA85E"/>
<path d="M390.8 236.999L396.8 221.899L402.8 236.999H390.8Z" stroke="#3E3442" stroke-width="2" stroke-miterlimit="10" stroke-linecap="round" stroke-linejoin="round"/>
<path d="M571.7 576.9H597" stroke="#3E3442" stroke-width="10" stroke-miterlimit="10" stroke-linecap="round" stroke-linejoin="round"/>
<path d="M617 576.9H627.3" stroke="#3E3442" stroke-width="10" stroke-miterlimit="10" stroke-linecap="round" stroke-linejoin="round"/>
<path d="M145.3 576.9H535.2" stroke="#3E3442" stroke-width="10" stroke-miterlimit="10" stroke-linecap="round" stroke-linejoin="round"/>
<path d="M63.7 576.9H120.3" stroke="#3E3442" stroke-width="10" stroke-miterlimit="10" stroke-linecap="round" stroke-linejoin="round"/>
</svg>
