<svg width="412" height="473" viewBox="0 0 412 473" fill="none" xmlns="http://www.w3.org/2000/svg">
<path d="M390 423H114V27H390C399.9 27 408 34.8 408 44.7V404.7C408 414.7 399.9 423 390 423Z" fill="#D6D6D6" stroke="#D6D6D6" stroke-width="8" stroke-miterlimit="10" stroke-linecap="round" stroke-linejoin="round"/>
<path d="M351 431H337C334.2 431 332 428.8 332 426V24C332 21.2 334.2 19 337 19H351C353.8 19 356 21.2 356 24V426C356 428.8 353.8 431 351 431Z" fill="#D6D6D6" stroke="#D6D6D6" stroke-width="8" stroke-miterlimit="10" stroke-linecap="round" stroke-linejoin="round"/>
<path d="M175 468.7L145 452V423H175V468.7Z" fill="#D6D6D6" stroke="#D6D6D6" stroke-width="8" stroke-miterlimit="10" stroke-linecap="round" stroke-linejoin="round"/>
<path d="M380 408H104V12H380C389.9 12 398 19.8 398 29.7V389.7C398 399.7 389.9 408 380 408Z" fill="#4C5B60"/>
<mask id="mask0" mask-type="alpha" maskUnits="userSpaceOnUse" x="104" y="14" width="294" height="396">
<path d="M380 410H104V14H380C389.9 14 398 21.8 398 31.7V391.7C398 401.7 389.9 410 380 410Z" fill="white"/>
</mask>
<g mask="url(#mask0)">
<path opacity="0.11" d="M78.3996 712.601C77.9996 712.601 77.5996 712.501 77.2996 712.201C76.6996 711.601 76.6996 710.701 77.2996 710.101L421.7 365.801C422.3 365.201 423.2 365.201 423.8 365.801C424.4 366.401 424.4 367.301 423.8 367.901L79.4996 712.201C79.1996 712.501 78.7996 712.601 78.3996 712.601Z" fill="#102D3B"/>
<path opacity="0.11" d="M78.3996 698.601C77.9996 698.601 77.5996 698.501 77.2996 698.201C76.6996 697.601 76.6996 696.701 77.2996 696.101L421.7 351.801C422.3 351.201 423.2 351.201 423.8 351.801C424.4 352.401 424.4 353.301 423.8 353.901L79.4996 698.201C79.1996 698.501 78.7996 698.601 78.3996 698.601Z" fill="#102D3B"/>
<path opacity="0.11" d="M78.3996 684.601C77.9996 684.601 77.5996 684.501 77.2996 684.201C76.6996 683.601 76.6996 682.701 77.2996 682.101L421.7 337.801C422.3 337.201 423.2 337.201 423.8 337.801C424.4 338.401 424.4 339.301 423.8 339.901L79.4996 684.201C79.1996 684.501 78.7996 684.601 78.3996 684.601Z" fill="#102D3B"/>
<path opacity="0.11" d="M78.3996 670.601C77.9996 670.601 77.5996 670.501 77.2996 670.201C76.6996 669.601 76.6996 668.701 77.2996 668.101L421.7 323.801C422.3 323.201 423.2 323.201 423.8 323.801C424.4 324.401 424.4 325.301 423.8 325.901L79.4996 670.201C79.1996 670.501 78.7996 670.601 78.3996 670.601Z" fill="#102D3B"/>
<path opacity="0.11" d="M78.3996 656.601C77.9996 656.601 77.5996 656.501 77.2996 656.201C76.6996 655.601 76.6996 654.701 77.2996 654.101L421.7 309.801C422.3 309.201 423.2 309.201 423.8 309.801C424.4 310.401 424.4 311.301 423.8 311.901L79.4996 656.201C79.1996 656.501 78.7996 656.601 78.3996 656.601Z" fill="#102D3B"/>
<path opacity="0.11" d="M78.3996 642.601C77.9996 642.601 77.5996 642.501 77.2996 642.201C76.6996 641.601 76.6996 640.701 77.2996 640.101L421.7 295.801C422.3 295.201 423.2 295.201 423.8 295.801C424.4 296.401 424.4 297.301 423.8 297.901L79.4996 642.201C79.1996 642.501 78.7996 642.601 78.3996 642.601Z" fill="#102D3B"/>
<path opacity="0.11" d="M78.3996 628.601C77.9996 628.601 77.5996 628.501 77.2996 628.201C76.6996 627.601 76.6996 626.701 77.2996 626.101L421.7 281.801C422.3 281.201 423.2 281.201 423.8 281.801C424.4 282.401 424.4 283.301 423.8 283.901L79.4996 628.201C79.1996 628.501 78.7996 628.601 78.3996 628.601Z" fill="#102D3B"/>
<path opacity="0.11" d="M78.3996 614.601C77.9996 614.601 77.5996 614.501 77.2996 614.201C76.6996 613.601 76.6996 612.701 77.2996 612.101L421.7 267.801C422.3 267.201 423.2 267.201 423.8 267.801C424.4 268.401 424.4 269.301 423.8 269.901L79.4996 614.201C79.1996 614.501 78.7996 614.601 78.3996 614.601Z" fill="#102D3B"/>
<path opacity="0.11" d="M78.3996 600.601C77.9996 600.601 77.5996 600.501 77.2996 600.201C76.6996 599.601 76.6996 598.701 77.2996 598.101L421.7 253.801C422.3 253.201 423.2 253.201 423.8 253.801C424.4 254.401 424.4 255.301 423.8 255.901L79.4996 600.201C79.1996 600.501 78.7996 600.601 78.3996 600.601Z" fill="#102D3B"/>
<path opacity="0.11" d="M78.3996 586.601C77.9996 586.601 77.5996 586.501 77.2996 586.201C76.6996 585.601 76.6996 584.701 77.2996 584.101L421.7 239.801C422.3 239.201 423.2 239.201 423.8 239.801C424.4 240.401 424.4 241.301 423.8 241.901L79.4996 586.201C79.1996 586.501 78.7996 586.601 78.3996 586.601Z" fill="#102D3B"/>
<path opacity="0.11" d="M78.3996 572.601C77.9996 572.601 77.5996 572.501 77.2996 572.201C76.6996 571.601 76.6996 570.701 77.2996 570.101L421.7 225.801C422.3 225.201 423.2 225.201 423.8 225.801C424.4 226.401 424.4 227.301 423.8 227.901L79.4996 572.201C79.1996 572.501 78.7996 572.601 78.3996 572.601Z" fill="#102D3B"/>
<path opacity="0.11" d="M78.3996 558.601C77.9996 558.601 77.5996 558.501 77.2996 558.201C76.6996 557.601 76.6996 556.701 77.2996 556.101L421.7 211.801C422.3 211.201 423.2 211.201 423.8 211.801C424.4 212.401 424.4 213.301 423.8 213.901L79.4996 558.201C79.1996 558.501 78.7996 558.601 78.3996 558.601Z" fill="#102D3B"/>
<path opacity="0.11" d="M78.3996 544.601C77.9996 544.601 77.5996 544.501 77.2996 544.201C76.6996 543.601 76.6996 542.701 77.2996 542.101L421.7 197.801C422.3 197.201 423.2 197.201 423.8 197.801C424.4 198.401 424.4 199.301 423.8 199.901L79.4996 544.201C79.1996 544.501 78.7996 544.601 78.3996 544.601Z" fill="#102D3B"/>
<path opacity="0.11" d="M78.3996 530.601C77.9996 530.601 77.5996 530.501 77.2996 530.201C76.6996 529.601 76.6996 528.701 77.2996 528.101L421.7 183.801C422.3 183.201 423.2 183.201 423.8 183.801C424.4 184.401 424.4 185.301 423.8 185.901L79.4996 530.201C79.1996 530.501 78.7996 530.601 78.3996 530.601Z" fill="#102D3B"/>
<path opacity="0.11" d="M78.3996 516.601C77.9996 516.601 77.5996 516.501 77.2996 516.201C76.6996 515.601 76.6996 514.701 77.2996 514.101L421.7 169.801C422.3 169.201 423.2 169.201 423.8 169.801C424.4 170.401 424.4 171.301 423.8 171.901L79.4996 516.201C79.1996 516.501 78.7996 516.601 78.3996 516.601Z" fill="#102D3B"/>
<path opacity="0.11" d="M78.3996 502.601C77.9996 502.601 77.5996 502.501 77.2996 502.201C76.6996 501.601 76.6996 500.701 77.2996 500.101L421.7 155.801C422.3 155.201 423.2 155.201 423.8 155.801C424.4 156.401 424.4 157.301 423.8 157.901L79.4996 502.201C79.1996 502.501 78.7996 502.601 78.3996 502.601Z" fill="#102D3B"/>
<path opacity="0.11" d="M78.3996 488.601C77.9996 488.601 77.5996 488.501 77.2996 488.201C76.6996 487.601 76.6996 486.701 77.2996 486.101L421.7 141.801C422.3 141.201 423.2 141.201 423.8 141.801C424.4 142.401 424.4 143.301 423.8 143.901L79.4996 488.201C79.1996 488.501 78.7996 488.601 78.3996 488.601Z" fill="#102D3B"/>
<path opacity="0.11" d="M78.3996 474.601C77.9996 474.601 77.5996 474.501 77.2996 474.201C76.6996 473.601 76.6996 472.701 77.2996 472.101L421.7 127.801C422.3 127.201 423.2 127.201 423.8 127.801C424.4 128.401 424.4 129.301 423.8 129.901L79.4996 474.201C79.1996 474.501 78.7996 474.601 78.3996 474.601Z" fill="#102D3B"/>
<path opacity="0.11" d="M78.3996 460.601C77.9996 460.601 77.5996 460.501 77.2996 460.201C76.6996 459.601 76.6996 458.701 77.2996 458.101L421.7 113.801C422.3 113.201 423.2 113.201 423.8 113.801C424.4 114.401 424.4 115.301 423.8 115.901L79.4996 460.201C79.1996 460.501 78.7996 460.601 78.3996 460.601Z" fill="#102D3B"/>
<path opacity="0.11" d="M78.3996 446.601C77.9996 446.601 77.5996 446.501 77.2996 446.201C76.6996 445.601 76.6996 444.701 77.2996 444.101L421.7 99.8006C422.3 99.2006 423.2 99.2006 423.8 99.8006C424.4 100.401 424.4 101.301 423.8 101.901L79.4996 446.201C79.1996 446.501 78.7996 446.601 78.3996 446.601Z" fill="#102D3B"/>
<path opacity="0.11" d="M78.3996 432.601C77.9996 432.601 77.5996 432.501 77.2996 432.201C76.6996 431.601 76.6996 430.701 77.2996 430.101L421.7 85.8006C422.3 85.2006 423.2 85.2006 423.8 85.8006C424.4 86.4006 424.4 87.3006 423.8 87.9006L79.4996 432.201C79.1996 432.501 78.7996 432.601 78.3996 432.601Z" fill="#102D3B"/>
<path opacity="0.11" d="M78.3996 418.601C77.9996 418.601 77.5996 418.501 77.2996 418.201C76.6996 417.601 76.6996 416.701 77.2996 416.101L421.7 71.8006C422.3 71.2006 423.2 71.2006 423.8 71.8006C424.4 72.4006 424.4 73.3006 423.8 73.9006L79.4996 418.201C79.1996 418.501 78.7996 418.601 78.3996 418.601Z" fill="#102D3B"/>
<path opacity="0.11" d="M78.3996 404.601C77.9996 404.601 77.5996 404.501 77.2996 404.201C76.6996 403.601 76.6996 402.701 77.2996 402.101L421.7 57.8006C422.3 57.2006 423.2 57.2006 423.8 57.8006C424.4 58.4006 424.4 59.3006 423.8 59.9006L79.4996 404.201C79.1996 404.501 78.7996 404.601 78.3996 404.601Z" fill="#102D3B"/>
<path opacity="0.11" d="M78.3996 390.601C77.9996 390.601 77.5996 390.501 77.2996 390.201C76.6996 389.601 76.6996 388.701 77.2996 388.101L421.7 43.8006C422.3 43.2006 423.2 43.2006 423.8 43.8006C424.4 44.4006 424.4 45.3006 423.8 45.9006L79.4996 390.201C79.1996 390.501 78.7996 390.601 78.3996 390.601Z" fill="#102D3B"/>
<path opacity="0.11" d="M78.3996 376.601C77.9996 376.601 77.5996 376.501 77.2996 376.201C76.6996 375.601 76.6996 374.701 77.2996 374.101L421.7 29.8006C422.3 29.2006 423.2 29.2006 423.8 29.8006C424.4 30.4006 424.4 31.3006 423.8 31.9006L79.4996 376.201C79.1996 376.501 78.7996 376.601 78.3996 376.601Z" fill="#102D3B"/>
<path opacity="0.11" d="M78.3996 362.601C77.9996 362.601 77.5996 362.501 77.2996 362.201C76.6996 361.601 76.6996 360.701 77.2996 360.101L421.7 15.8006C422.3 15.2006 423.2 15.2006 423.8 15.8006C424.4 16.4006 424.4 17.3006 423.8 17.9006L79.4996 362.201C79.1996 362.501 78.7996 362.601 78.3996 362.601Z" fill="#102D3B"/>
<path opacity="0.11" d="M78.3996 348.601C77.9996 348.601 77.5996 348.501 77.2996 348.201C76.6996 347.601 76.6996 346.701 77.2996 346.101L421.7 1.80059C422.3 1.20059 423.2 1.20059 423.8 1.80059C424.4 2.40059 424.4 3.30059 423.8 3.90059L79.4996 348.201C79.1996 348.501 78.7996 348.601 78.3996 348.601Z" fill="#102D3B"/>
<path opacity="0.11" d="M78.3996 334.601C77.9996 334.601 77.5996 334.501 77.2996 334.201C76.6996 333.601 76.6996 332.701 77.2996 332.101L421.7 -12.1994C422.3 -12.7994 423.2 -12.7994 423.8 -12.1994C424.4 -11.5994 424.4 -10.6994 423.8 -10.0994L79.4996 334.201C79.1996 334.501 78.7996 334.601 78.3996 334.601Z" fill="#102D3B"/>
<path opacity="0.11" d="M78.3996 320.601C77.9996 320.601 77.5996 320.501 77.2996 320.201C76.6996 319.601 76.6996 318.701 77.2996 318.101L421.7 -26.1994C422.3 -26.7994 423.2 -26.7994 423.8 -26.1994C424.4 -25.5994 424.4 -24.6994 423.8 -24.0994L79.4996 320.201C79.1996 320.501 78.7996 320.601 78.3996 320.601Z" fill="#102D3B"/>
<path opacity="0.11" d="M78.3996 306.601C77.9996 306.601 77.5996 306.501 77.2996 306.201C76.6996 305.601 76.6996 304.701 77.2996 304.101L421.7 -40.1994C422.3 -40.7994 423.2 -40.7994 423.8 -40.1994C424.4 -39.5994 424.4 -38.6994 423.8 -38.0994L79.4996 306.201C79.1996 306.501 78.7996 306.601 78.3996 306.601Z" fill="#102D3B"/>
<path opacity="0.11" d="M78.3996 292.601C77.9996 292.601 77.5996 292.501 77.2996 292.201C76.6996 291.601 76.6996 290.701 77.2996 290.101L421.7 -54.1994C422.3 -54.7994 423.2 -54.7994 423.8 -54.1994C424.4 -53.5994 424.4 -52.6994 423.8 -52.0994L79.4996 292.201C79.1996 292.501 78.7996 292.601 78.3996 292.601Z" fill="#102D3B"/>
<path opacity="0.11" d="M78.3996 278.601C77.9996 278.601 77.5996 278.501 77.2996 278.201C76.6996 277.601 76.6996 276.701 77.2996 276.101L421.7 -68.1994C422.3 -68.7994 423.2 -68.7994 423.8 -68.1994C424.4 -67.5994 424.4 -66.6994 423.8 -66.0994L79.4996 278.201C79.1996 278.501 78.7996 278.601 78.3996 278.601Z" fill="#102D3B"/>
<path opacity="0.11" d="M78.3996 264.601C77.9996 264.601 77.5996 264.501 77.2996 264.201C76.6996 263.601 76.6996 262.701 77.2996 262.101L421.7 -82.1994C422.3 -82.7994 423.2 -82.7994 423.8 -82.1994C424.4 -81.5994 424.4 -80.6994 423.8 -80.0994L79.4996 264.201C79.1996 264.501 78.7996 264.601 78.3996 264.601Z" fill="#102D3B"/>
<path opacity="0.11" d="M78.3996 250.601C77.9996 250.601 77.5996 250.501 77.2996 250.201C76.6996 249.601 76.6996 248.701 77.2996 248.101L421.7 -96.1994C422.3 -96.7994 423.2 -96.7994 423.8 -96.1994C424.4 -95.5994 424.4 -94.6994 423.8 -94.0994L79.4996 250.201C79.1996 250.501 78.7996 250.601 78.3996 250.601Z" fill="#102D3B"/>
<path opacity="0.11" d="M78.3996 236.601C77.9996 236.601 77.5996 236.501 77.2996 236.201C76.6996 235.601 76.6996 234.701 77.2996 234.101L421.7 -110.199C422.3 -110.799 423.2 -110.799 423.8 -110.199C424.4 -109.599 424.4 -108.699 423.8 -108.099L79.4996 236.201C79.1996 236.501 78.7996 236.601 78.3996 236.601Z" fill="#102D3B"/>
<path opacity="0.11" d="M78.3996 222.601C77.9996 222.601 77.5996 222.501 77.2996 222.201C76.6996 221.601 76.6996 220.701 77.2996 220.101L421.7 -124.199C422.3 -124.799 423.2 -124.799 423.8 -124.199C424.4 -123.599 424.4 -122.699 423.8 -122.099L79.4996 222.201C79.1996 222.501 78.7996 222.601 78.3996 222.601Z" fill="#102D3B"/>
<path opacity="0.11" d="M78.3996 208.601C77.9996 208.601 77.5996 208.501 77.2996 208.201C76.6996 207.601 76.6996 206.701 77.2996 206.101L421.7 -138.199C422.3 -138.799 423.2 -138.799 423.8 -138.199C424.4 -137.599 424.4 -136.699 423.8 -136.099L79.4996 208.201C79.1996 208.501 78.7996 208.601 78.3996 208.601Z" fill="#102D3B"/>
<path opacity="0.11" d="M78.3996 194.6C77.9996 194.6 77.5996 194.5 77.2996 194.2C76.6996 193.6 76.6996 192.7 77.2996 192.1L421.7 -152.3C422.3 -152.9 423.2 -152.9 423.8 -152.3C424.4 -151.7 424.4 -150.8 423.8 -150.2L79.4996 194.2C79.1996 194.5 78.7996 194.6 78.3996 194.6Z" fill="#102D3B"/>
<path opacity="0.11" d="M78.3996 180.6C77.9996 180.6 77.5996 180.5 77.2996 180.2C76.6996 179.6 76.6996 178.7 77.2996 178.1L421.7 -166.3C422.3 -166.9 423.2 -166.9 423.8 -166.3C424.4 -165.7 424.4 -164.8 423.8 -164.2L79.4996 180.2C79.1996 180.5 78.7996 180.6 78.3996 180.6Z" fill="#102D3B"/>
<path opacity="0.11" d="M78.3996 166.6C77.9996 166.6 77.5996 166.5 77.2996 166.2C76.6996 165.6 76.6996 164.7 77.2996 164.1L421.7 -180.4C422.3 -181 423.2 -181 423.8 -180.4C424.4 -179.8 424.4 -178.9 423.8 -178.3L79.4996 166.2C79.1996 166.5 78.7996 166.6 78.3996 166.6Z" fill="#102D3B"/>
<path opacity="0.11" d="M78.3996 152.6C77.9996 152.6 77.5996 152.5 77.2996 152.2C76.6996 151.6 76.6996 150.7 77.2996 150.1L421.7 -194.4C422.3 -195 423.2 -195 423.8 -194.4C424.4 -193.8 424.4 -192.9 423.8 -192.3L79.4996 152.2C79.1996 152.5 78.7996 152.6 78.3996 152.6Z" fill="#102D3B"/>
<path opacity="0.11" d="M78.3996 138.6C77.9996 138.6 77.5996 138.5 77.2996 138.2C76.6996 137.6 76.6996 136.7 77.2996 136.1L421.7 -208.4C422.3 -209 423.2 -209 423.8 -208.4C424.4 -207.8 424.4 -206.9 423.8 -206.3L79.4996 138.2C79.1996 138.5 78.7996 138.6 78.3996 138.6Z" fill="#102D3B"/>
<path opacity="0.11" d="M78.3996 124.6C77.9996 124.6 77.5996 124.5 77.2996 124.2C76.6996 123.6 76.6996 122.7 77.2996 122.1L421.7 -222.4C422.3 -223 423.2 -223 423.8 -222.4C424.4 -221.8 424.4 -220.9 423.8 -220.3L79.4996 124.2C79.1996 124.5 78.7996 124.6 78.3996 124.6Z" fill="#102D3B"/>
<path opacity="0.11" d="M78.3996 110.6C77.9996 110.6 77.5996 110.5 77.2996 110.2C76.6996 109.6 76.6996 108.7 77.2996 108.1L421.7 -236.4C422.3 -237 423.2 -237 423.8 -236.4C424.4 -235.8 424.4 -234.9 423.8 -234.3L79.4996 110.2C79.1996 110.5 78.7996 110.6 78.3996 110.6Z" fill="#102D3B"/>
<path opacity="0.11" d="M78.3996 96.6004C77.9996 96.6004 77.5996 96.5004 77.2996 96.2004C76.6996 95.6004 76.6996 94.7004 77.2996 94.1004L421.7 -250.4C422.3 -251 423.2 -251 423.8 -250.4C424.4 -249.8 424.4 -248.9 423.8 -248.3L79.4996 96.2004C79.1996 96.5004 78.7996 96.6004 78.3996 96.6004Z" fill="#102D3B"/>
<path opacity="0.11" d="M78.3996 82.6004C77.9996 82.6004 77.5996 82.5004 77.2996 82.2004C76.6996 81.6004 76.6996 80.7004 77.2996 80.1004L421.7 -264.4C422.3 -265 423.2 -265 423.8 -264.4C424.4 -263.8 424.4 -262.9 423.8 -262.3L79.4996 82.2004C79.1996 82.5004 78.7996 82.6004 78.3996 82.6004Z" fill="#102D3B"/>
<path opacity="0.11" d="M78.3996 68.6004C77.9996 68.6004 77.5996 68.5004 77.2996 68.2004C76.6996 67.6004 76.6996 66.7004 77.2996 66.1004L390.1 -246.9C390.7 -247.5 391.6 -247.5 392.2 -246.9C392.8 -246.3 392.8 -245.4 392.2 -244.8L79.4996 68.2004C79.1996 68.5004 78.7996 68.6004 78.3996 68.6004Z" fill="#102D3B"/>
<path opacity="0.11" d="M78.3996 54.6004C77.9996 54.6004 77.5996 54.5004 77.2996 54.2004C76.6996 53.6004 76.6996 52.7004 77.2996 52.1004L370.7 -241.4C371.3 -242 372.2 -242 372.8 -241.4C373.4 -240.8 373.4 -239.9 372.8 -239.3L79.4996 54.2004C79.1996 54.5004 78.7996 54.6004 78.3996 54.6004Z" fill="#102D3B"/>
</g>
<path d="M357 12H333V408H357V12Z" fill="#3E4B4F"/>
<path opacity="0.3" d="M121 12H104V408H121V12Z" fill="#CCDDE5"/>
<path d="M380 408H104V12H380C389.9 12 398 19.8 398 29.7V389.7C398 399.7 389.9 408 380 408Z" stroke="#102D3B" stroke-width="8" stroke-miterlimit="10" stroke-linecap="round" stroke-linejoin="round"/>
<path d="M138 12H104V408H138V12Z" stroke="#102D3B" stroke-width="8" stroke-miterlimit="10" stroke-linecap="round" stroke-linejoin="round"/>
<path d="M398 126H104V238H398V126Z" fill="#F7AA39"/>
<path opacity="0.6" d="M138 126V238" stroke="#D85639" stroke-width="8" stroke-miterlimit="10"/>
<path d="M121 126H104V238H121V126Z" fill="#FDBA5D"/>
<path opacity="0.61" d="M357 126H340V238H357V126Z" fill="#D85639"/>
<path d="M398 126H104V238H398V126Z" stroke="#102D3B" stroke-width="8" stroke-miterlimit="10" stroke-linecap="round" stroke-linejoin="round"/>
<path d="M340.2 416H327.9C324.7 416 322.1 413.4 322.1 410.2V9.79999C322.1 6.59999 324.7 4 327.9 4H340.2C343.4 4 346 6.59999 346 9.79999V410.1C346 413.4 343.4 416 340.2 416Z" fill="#B7C8CE"/>
<path d="M340.2 416H327.9C324.7 416 322.1 413.4 322.1 410.2V9.79999C322.1 6.59999 324.7 4 327.9 4H340.2C343.4 4 346 6.59999 346 9.79999V410.1C346 413.4 343.4 416 340.2 416Z" stroke="#102D3B" stroke-width="8" stroke-miterlimit="10" stroke-linecap="round" stroke-linejoin="round"/>
<path d="M165 453.7L135 437V408H165V453.7Z" fill="#EA3939"/>
<path opacity="0.62" d="M165 408H135V419.3H165V408Z" fill="#EA3939"/>
<path d="M165 453.7L135 437V408H165V453.7Z" stroke="#102D3B" stroke-width="8" stroke-miterlimit="10" stroke-linecap="round" stroke-linejoin="round"/>
<path d="M45 96H13V247H45V96Z" fill="#D6D6D6" stroke="#D6D6D6" stroke-width="8" stroke-miterlimit="10" stroke-linecap="round" stroke-linejoin="round"/>
<path d="M45.4002 349C34.6002 349 23.7002 349 12.9002 349C10.8002 327 10.8002 304 12.9002 281C23.7002 281 34.6002 281 45.4002 281C47.5002 304 47.5002 327 45.4002 349Z" fill="#D6D6D6" stroke="#D6D6D6" stroke-width="8" stroke-miterlimit="10" stroke-linecap="round" stroke-linejoin="round"/>
<path d="M45.4004 281C34.6004 281 23.7004 281 12.9004 281C19.6004 271 19.6004 258 12.9004 247C23.7004 247 34.6004 247 45.4004 247C38.7004 258 38.7004 271 45.4004 281Z" fill="#D6D6D6" stroke="#D6D6D6" stroke-width="8" stroke-miterlimit="10" stroke-linecap="round" stroke-linejoin="round"/>
<path d="M33.3004 396C38.7004 380 45.2004 365 45.4004 349H12.9004C13.1004 365 19.6004 380 25.0004 396H33.3004Z" fill="#D6D6D6" stroke="#D6D6D6" stroke-width="8" stroke-miterlimit="10" stroke-linecap="round" stroke-linejoin="round"/>
<path d="M33 396H25V402H33V396Z" fill="#D6D6D6" stroke="#D6D6D6" stroke-width="8" stroke-miterlimit="10" stroke-linecap="round" stroke-linejoin="round"/>
<path d="M29 403V416" stroke="#D6D6D6" stroke-width="8" stroke-miterlimit="10" stroke-linecap="round" stroke-linejoin="round"/>
<path d="M41 74H17V96H41V74Z" fill="#D6D6D6" stroke="#D6D6D6" stroke-width="8" stroke-miterlimit="10" stroke-linecap="round" stroke-linejoin="round"/>
<path d="M38 74H20V48.3C20 44.8 23.2 42 26.7 42H31.7C35.2 42 38 44.8 38 48.3V74Z" fill="#D6D6D6" stroke="#D6D6D6" stroke-width="8" stroke-miterlimit="10" stroke-linecap="round" stroke-linejoin="round"/>
<path d="M56 110H25V128H56V110Z" fill="#D6D6D6" stroke="#D6D6D6" stroke-width="8" stroke-miterlimit="10" stroke-linecap="round" stroke-linejoin="round"/>
<path d="M56 189.3L45 174.8V128H56V189.3Z" fill="#D6D6D6" stroke="#D6D6D6" stroke-width="8" stroke-miterlimit="10" stroke-linecap="round" stroke-linejoin="round"/>
<path d="M38.4004 276C27.6004 276 16.7004 276 5.90039 276C12.6004 266 12.6004 253 5.90039 242C16.7004 242 27.6004 242 38.4004 242C31.7004 253 31.7004 266 38.4004 276Z" fill="#102D3B"/>
<path d="M38 91H6V242H38V91Z" fill="#526066"/>
<path d="M38 91H6V242H38V91Z" fill="#526066"/>
<path opacity="0.64" d="M16 91H6V242H16V91Z" fill="#526066"/>
<path opacity="0.3" d="M38 91H29V242H38V91Z" fill="#526066"/>
<path d="M38 91H6V242H38V91Z" stroke="#102D3B" stroke-width="8" stroke-miterlimit="10" stroke-linecap="round" stroke-linejoin="round"/>
<path d="M38.4002 344C27.6002 344 16.7002 344 5.9002 344C3.8002 322 3.8002 299 5.9002 276C16.7002 276 27.6002 276 38.4002 276C40.5002 299 40.5002 322 38.4002 344Z" fill="#42708A"/>
<path d="M38.4002 344C27.6002 344 16.7002 344 5.9002 344C3.8002 322 3.8002 299 5.9002 276C16.7002 276 27.6002 276 38.4002 276C40.5002 299 40.5002 322 38.4002 344Z" fill="#526066"/>
<path opacity="0.3" d="M38.3996 276C35.7996 276 33.1996 276 30.5996 276C32.6996 299 32.6996 322 30.5996 344C33.1996 344 35.7996 344 38.3996 344C40.4996 322 40.4996 299 38.3996 276Z" fill="#526066"/>
<path opacity="0.73" d="M17.4 343C15.8 343 14.3 343 12.7 343C10.6 321.3 10.6 298.7 12.6 276C14.2 276 15.8 276 17.4 276C15.4 298.7 15.4 321.3 17.4 343Z" fill="#CCDDE5"/>
<path d="M38.4002 344C27.6002 344 16.7002 344 5.9002 344C3.8002 322 3.8002 299 5.9002 276C16.7002 276 27.6002 276 38.4002 276C40.5002 299 40.5002 322 38.4002 344Z" stroke="#102D3B" stroke-width="8" stroke-miterlimit="10" stroke-linecap="round" stroke-linejoin="round"/>
<path d="M40 300H4V321H40V300Z" stroke="#102D3B" stroke-width="8" stroke-miterlimit="10" stroke-linecap="round" stroke-linejoin="round"/>
<path d="M38.4004 276C27.6004 276 16.7004 276 5.90039 276C12.6004 266 12.6004 253 5.90039 242C16.7004 242 27.6004 242 38.4004 242C31.7004 253 31.7004 266 38.4004 276Z" stroke="#102D3B" stroke-width="8" stroke-miterlimit="10" stroke-linecap="round" stroke-linejoin="round"/>
<path d="M26.3004 391C31.7004 375 38.2004 360 38.4004 344H5.90039C6.10039 360 12.6004 375 18.0004 391H26.3004Z" fill="#CCDDE5"/>
<path d="M38.4004 344C38.4004 344.3 38.4004 344.7 38.4004 345H17.0004C17.1004 360.7 19.9004 375.7 23.2004 391H18.0004C12.6004 375 6.10039 360 5.90039 344H38.4004Z" fill="white"/>
<path d="M26.3004 391C31.7004 375 38.2004 360 38.4004 344H5.90039C6.10039 360 12.6004 375 18.0004 391H26.3004Z" stroke="#102D3B" stroke-width="8" stroke-miterlimit="10" stroke-linecap="round" stroke-linejoin="round"/>
<path d="M26 391H18V397H26V391Z" stroke="#102D3B" stroke-width="8" stroke-miterlimit="10" stroke-linecap="round" stroke-linejoin="round"/>
<path d="M22 398V411" stroke="#102D3B" stroke-width="8" stroke-miterlimit="10" stroke-linecap="round" stroke-linejoin="round"/>
<path d="M34 69H10V91H34V69Z" stroke="#102D3B" stroke-width="8" stroke-miterlimit="10" stroke-linecap="round" stroke-linejoin="round"/>
<path d="M34 69H10V91H34V69Z" fill="#102D3B"/>
<path d="M31 69H13V43.3C13 39.8 16.2 37 19.7 37H24.7C28.2 37 31 39.8 31 43.3V69Z" fill="#CCDDE5"/>
<path d="M31 69H13V43.3C13 39.8 16.2 37 19.7 37H24.7C28.2 37 31 39.8 31 43.3V69Z" stroke="#102D3B" stroke-width="8" stroke-miterlimit="10" stroke-linecap="round" stroke-linejoin="round"/>
<path d="M49 105H18V123H49V105Z" fill="#CCDDE5"/>
<path d="M49 105H18V123H49V105Z" stroke="#102D3B" stroke-width="8" stroke-miterlimit="10" stroke-linecap="round" stroke-linejoin="round"/>
<path d="M49 184.3L38 169.8V123H49V184.3Z" fill="#CCDDE5"/>
<path d="M49 184.3L38 169.8V123H49V184.3Z" stroke="#102D3B" stroke-width="8" stroke-miterlimit="10" stroke-linecap="round" stroke-linejoin="round"/>
</svg>
