<svg width="890" height="597" viewBox="0 0 890 597" fill="none" xmlns="http://www.w3.org/2000/svg">
<path d="M179.081 323.4C155.981 300 141.781 267.8 141.781 232.4C141.781 160.8 199.881 102.7 271.481 102.7C343.081 102.7 401.281 160.7 401.281 232.3L301.381 156.3L179.081 323.4Z" fill="#F7AA39"/>
<path d="M271.582 68.1001V82.1001" stroke="#D4C0E2" stroke-width="8" stroke-miterlimit="10" stroke-linecap="round" stroke-linejoin="round"/>
<path d="M271.582 42.1001V56.7001" stroke="#D4C0E2" stroke-width="8" stroke-miterlimit="10" stroke-linecap="round" stroke-linejoin="round"/>
<path d="M271.582 10V29.1" stroke="#D4C0E2" stroke-width="8" stroke-miterlimit="10" stroke-linecap="round" stroke-linejoin="round"/>
<path d="M242.981 70.6001L245.481 84.3001" stroke="#D4C0E2" stroke-width="8" stroke-miterlimit="10" stroke-linecap="round" stroke-linejoin="round"/>
<path d="M238.481 45L241.081 59.4" stroke="#D4C0E2" stroke-width="8" stroke-miterlimit="10" stroke-linecap="round" stroke-linejoin="round"/>
<path d="M232.882 13.3999L236.282 32.1999" stroke="#D4C0E2" stroke-width="8" stroke-miterlimit="10" stroke-linecap="round" stroke-linejoin="round"/>
<path d="M215.382 78L220.182 91.1" stroke="#D4C0E2" stroke-width="8" stroke-miterlimit="10" stroke-linecap="round" stroke-linejoin="round"/>
<path d="M206.481 53.6001L211.481 67.3001" stroke="#D4C0E2" stroke-width="8" stroke-miterlimit="10" stroke-linecap="round" stroke-linejoin="round"/>
<path d="M195.481 23.3999L202.081 41.3999" stroke="#D4C0E2" stroke-width="8" stroke-miterlimit="10" stroke-linecap="round" stroke-linejoin="round"/>
<path d="M189.382 90.0996L196.382 102.2" stroke="#D4C0E2" stroke-width="8" stroke-miterlimit="10" stroke-linecap="round" stroke-linejoin="round"/>
<path d="M176.481 67.5996L183.781 80.2996" stroke="#D4C0E2" stroke-width="8" stroke-miterlimit="10" stroke-linecap="round" stroke-linejoin="round"/>
<path d="M160.382 39.7998L169.982 56.3998" stroke="#D4C0E2" stroke-width="8" stroke-miterlimit="10" stroke-linecap="round" stroke-linejoin="round"/>
<path d="M165.982 106.5L174.982 117.2" stroke="#D4C0E2" stroke-width="8" stroke-miterlimit="10" stroke-linecap="round" stroke-linejoin="round"/>
<path d="M149.282 86.6001L158.682 97.8001" stroke="#D4C0E2" stroke-width="8" stroke-miterlimit="10" stroke-linecap="round" stroke-linejoin="round"/>
<path d="M128.582 62L140.982 76.7" stroke="#D4C0E2" stroke-width="8" stroke-miterlimit="10" stroke-linecap="round" stroke-linejoin="round"/>
<path d="M145.781 126.8L156.481 135.7" stroke="#D4C0E2" stroke-width="8" stroke-miterlimit="10" stroke-linecap="round" stroke-linejoin="round"/>
<path d="M125.882 110.1L136.982 119.5" stroke="#D4C0E2" stroke-width="8" stroke-miterlimit="10" stroke-linecap="round" stroke-linejoin="round"/>
<path d="M101.182 89.3999L115.882 101.7" stroke="#D4C0E2" stroke-width="8" stroke-miterlimit="10" stroke-linecap="round" stroke-linejoin="round"/>
<path d="M129.281 150.2L141.381 157.2" stroke="#D4C0E2" stroke-width="8" stroke-miterlimit="10" stroke-linecap="round" stroke-linejoin="round"/>
<path d="M106.781 137.2L119.481 144.5" stroke="#D4C0E2" stroke-width="8" stroke-miterlimit="10" stroke-linecap="round" stroke-linejoin="round"/>
<path d="M78.9814 121.1L95.5815 130.7" stroke="#D4C0E2" stroke-width="8" stroke-miterlimit="10" stroke-linecap="round" stroke-linejoin="round"/>
<path d="M117.182 176.2L130.382 180.9" stroke="#D4C0E2" stroke-width="8" stroke-miterlimit="10" stroke-linecap="round" stroke-linejoin="round"/>
<path d="M92.7822 167.3L106.582 172.3" stroke="#D4C0E2" stroke-width="8" stroke-miterlimit="10" stroke-linecap="round" stroke-linejoin="round"/>
<path d="M62.582 156.3L80.582 162.8" stroke="#D4C0E2" stroke-width="8" stroke-miterlimit="10" stroke-linecap="round" stroke-linejoin="round"/>
<path d="M109.782 203.8L123.582 206.2" stroke="#D4C0E2" stroke-width="8" stroke-miterlimit="10" stroke-linecap="round" stroke-linejoin="round"/>
<path d="M84.2822 199.3L98.5822 201.8" stroke="#D4C0E2" stroke-width="8" stroke-miterlimit="10" stroke-linecap="round" stroke-linejoin="round"/>
<path d="M52.582 193.7L71.482 197" stroke="#D4C0E2" stroke-width="8" stroke-miterlimit="10" stroke-linecap="round" stroke-linejoin="round"/>
<path d="M107.281 232.3H121.281" stroke="#D4C0E2" stroke-width="8" stroke-miterlimit="10" stroke-linecap="round" stroke-linejoin="round"/>
<path d="M81.3818 232.3H95.9818" stroke="#D4C0E2" stroke-width="8" stroke-miterlimit="10" stroke-linecap="round" stroke-linejoin="round"/>
<path d="M49.1816 232.3H68.3816" stroke="#D4C0E2" stroke-width="8" stroke-miterlimit="10" stroke-linecap="round" stroke-linejoin="round"/>
<path d="M109.782 260.8L123.582 258.4" stroke="#D4C0E2" stroke-width="8" stroke-miterlimit="10" stroke-linecap="round" stroke-linejoin="round"/>
<path d="M84.2822 265.3L98.5822 262.8" stroke="#D4C0E2" stroke-width="8" stroke-miterlimit="10" stroke-linecap="round" stroke-linejoin="round"/>
<path d="M52.582 270.9L71.482 267.6" stroke="#D4C0E2" stroke-width="8" stroke-miterlimit="10" stroke-linecap="round" stroke-linejoin="round"/>
<path d="M117.182 288.5L130.382 283.7" stroke="#D4C0E2" stroke-width="8" stroke-miterlimit="10" stroke-linecap="round" stroke-linejoin="round"/>
<path d="M92.7822 297.4L106.582 292.4" stroke="#D4C0E2" stroke-width="8" stroke-miterlimit="10" stroke-linecap="round" stroke-linejoin="round"/>
<path d="M62.582 308.4L80.582 301.8" stroke="#D4C0E2" stroke-width="8" stroke-miterlimit="10" stroke-linecap="round" stroke-linejoin="round"/>
<path d="M129.281 314.4L141.381 307.4" stroke="#D4C0E2" stroke-width="8" stroke-miterlimit="10" stroke-linecap="round" stroke-linejoin="round"/>
<path d="M106.781 327.4L119.481 320.1" stroke="#D4C0E2" stroke-width="8" stroke-miterlimit="10" stroke-linecap="round" stroke-linejoin="round"/>
<path d="M78.9814 343.5L95.5815 333.9" stroke="#D4C0E2" stroke-width="8" stroke-miterlimit="10" stroke-linecap="round" stroke-linejoin="round"/>
<path d="M425.882 176.2L412.682 180.9" stroke="#D4C0E2" stroke-width="8" stroke-miterlimit="10" stroke-linecap="round" stroke-linejoin="round"/>
<path d="M450.281 167.3L436.481 172.3" stroke="#D4C0E2" stroke-width="8" stroke-miterlimit="10" stroke-linecap="round" stroke-linejoin="round"/>
<path d="M413.782 150.2L401.682 157.2" stroke="#D4C0E2" stroke-width="8" stroke-miterlimit="10" stroke-linecap="round" stroke-linejoin="round"/>
<path d="M436.282 137.2L423.582 144.5" stroke="#D4C0E2" stroke-width="8" stroke-miterlimit="10" stroke-linecap="round" stroke-linejoin="round"/>
<path d="M464.081 121.1L447.481 130.7" stroke="#D4C0E2" stroke-width="8" stroke-miterlimit="10" stroke-linecap="round" stroke-linejoin="round"/>
<path d="M397.282 126.8L386.682 135.7" stroke="#D4C0E2" stroke-width="8" stroke-miterlimit="10" stroke-linecap="round" stroke-linejoin="round"/>
<path d="M417.182 110.1L406.082 119.5" stroke="#D4C0E2" stroke-width="8" stroke-miterlimit="10" stroke-linecap="round" stroke-linejoin="round"/>
<path d="M441.882 89.3999L427.182 101.7" stroke="#D4C0E2" stroke-width="8" stroke-miterlimit="10" stroke-linecap="round" stroke-linejoin="round"/>
<path d="M377.082 106.5L368.082 117.2" stroke="#D4C0E2" stroke-width="8" stroke-miterlimit="10" stroke-linecap="round" stroke-linejoin="round"/>
<path d="M393.782 86.6001L384.382 97.8001" stroke="#D4C0E2" stroke-width="8" stroke-miterlimit="10" stroke-linecap="round" stroke-linejoin="round"/>
<path d="M414.482 62L402.182 76.7" stroke="#D4C0E2" stroke-width="8" stroke-miterlimit="10" stroke-linecap="round" stroke-linejoin="round"/>
<path d="M353.682 90.0996L346.682 102.2" stroke="#D4C0E2" stroke-width="8" stroke-miterlimit="10" stroke-linecap="round" stroke-linejoin="round"/>
<path d="M366.581 67.5996L359.281 80.2996" stroke="#D4C0E2" stroke-width="8" stroke-miterlimit="10" stroke-linecap="round" stroke-linejoin="round"/>
<path d="M382.682 39.7998L373.082 56.3998" stroke="#D4C0E2" stroke-width="8" stroke-miterlimit="10" stroke-linecap="round" stroke-linejoin="round"/>
<path d="M327.682 78L322.882 91.1" stroke="#D4C0E2" stroke-width="8" stroke-miterlimit="10" stroke-linecap="round" stroke-linejoin="round"/>
<path d="M336.582 53.6001L331.582 67.3001" stroke="#D4C0E2" stroke-width="8" stroke-miterlimit="10" stroke-linecap="round" stroke-linejoin="round"/>
<path d="M347.581 23.3999L340.981 41.3999" stroke="#D4C0E2" stroke-width="8" stroke-miterlimit="10" stroke-linecap="round" stroke-linejoin="round"/>
<path d="M300.082 70.6001L297.582 84.3001" stroke="#D4C0E2" stroke-width="8" stroke-miterlimit="10" stroke-linecap="round" stroke-linejoin="round"/>
<path d="M304.582 45L301.982 59.4" stroke="#D4C0E2" stroke-width="8" stroke-miterlimit="10" stroke-linecap="round" stroke-linejoin="round"/>
<path d="M310.182 13.3999L306.782 32.1999" stroke="#D4C0E2" stroke-width="8" stroke-miterlimit="10" stroke-linecap="round" stroke-linejoin="round"/>
<path d="M157.482 593H18.082" stroke="#523160" stroke-width="8" stroke-miterlimit="10" stroke-linecap="round" stroke-linejoin="round"/>
<path d="M374.482 593H174.982" stroke="#523160" stroke-width="8" stroke-miterlimit="10" stroke-linecap="round" stroke-linejoin="round"/>
<path d="M735.482 593H717.382" stroke="#523160" stroke-width="8" stroke-miterlimit="10" stroke-linecap="round" stroke-linejoin="round"/>
<path d="M839.482 593H752.882" stroke="#523160" stroke-width="8" stroke-miterlimit="10" stroke-linecap="round" stroke-linejoin="round"/>
<path d="M860.982 593H854.482" stroke="#523160" stroke-width="8" stroke-miterlimit="10" stroke-linecap="round" stroke-linejoin="round"/>
<path d="M105.781 422.9L301.881 156.7L411.481 241" stroke="#D4C0E2" stroke-width="8" stroke-miterlimit="10" stroke-linecap="round" stroke-linejoin="round"/>
<path d="M361.382 309L501.482 118.8L739.282 334.8" stroke="#D4C0E2" stroke-width="8" stroke-miterlimit="10" stroke-linecap="round" stroke-linejoin="round"/>
<path d="M58.0494 478.689C65.8619 472.722 70.0753 465.11 67.4605 461.686C64.8456 458.263 56.3927 460.325 48.5802 466.292C40.7678 472.259 36.5543 479.872 39.1692 483.295C41.784 486.719 50.237 484.657 58.0494 478.689Z" fill="#F7AA39"/>
<path d="M58.0055 447.005C65.8179 441.038 70.0314 433.425 67.4165 430.002C64.8017 426.578 56.3487 428.64 48.5363 434.608C40.7239 440.575 36.5104 448.187 39.1252 451.611C41.7401 455.034 50.193 452.972 58.0055 447.005Z" fill="#F7AA39"/>
<path d="M58.0348 555.594C65.8472 549.627 70.0607 542.014 67.4458 538.59C64.831 535.167 56.378 537.229 48.5656 543.196C40.7532 549.164 36.5397 556.776 39.1545 560.2C41.7694 563.623 50.2224 561.561 58.0348 555.594Z" fill="#F7AA39"/>
<path d="M58.0485 516.089C65.8609 510.122 70.0744 502.509 67.4595 499.086C64.8447 495.663 56.3917 497.725 48.5793 503.692C40.7668 509.659 36.5533 517.272 39.1682 520.695C41.783 524.119 50.236 522.057 58.0485 516.089Z" fill="#F7AA39"/>
<path d="M58.0494 478.689C65.8619 472.722 70.0753 465.11 67.4605 461.686C64.8456 458.263 56.3927 460.325 48.5802 466.292C40.7678 472.259 36.5543 479.872 39.1692 483.295C41.784 486.719 50.237 484.657 58.0494 478.689Z" stroke="#523160" stroke-width="8" stroke-miterlimit="10" stroke-linecap="round" stroke-linejoin="round"/>
<path d="M58.0055 447.005C65.8179 441.038 70.0314 433.425 67.4165 430.002C64.8017 426.578 56.3487 428.64 48.5363 434.608C40.7239 440.575 36.5104 448.187 39.1252 451.611C41.7401 455.034 50.193 452.972 58.0055 447.005Z" stroke="#523160" stroke-width="8" stroke-miterlimit="10" stroke-linecap="round" stroke-linejoin="round"/>
<path d="M58.0348 555.594C65.8472 549.627 70.0607 542.014 67.4458 538.59C64.831 535.167 56.378 537.229 48.5656 543.196C40.7532 549.164 36.5397 556.776 39.1545 560.2C41.7694 563.623 50.2224 561.561 58.0348 555.594Z" stroke="#523160" stroke-width="8" stroke-miterlimit="10" stroke-linecap="round" stroke-linejoin="round"/>
<path d="M58.0485 516.089C65.8609 510.122 70.0744 502.509 67.4595 499.086C64.8447 495.663 56.3917 497.725 48.5793 503.692C40.7668 509.659 36.5533 517.272 39.1682 520.695C41.783 524.119 50.236 522.057 58.0485 516.089Z" stroke="#523160" stroke-width="8" stroke-miterlimit="10" stroke-linecap="round" stroke-linejoin="round"/>
<path d="M39.0738 451.738C41.6887 448.314 37.4751 440.702 29.6627 434.734C21.8503 428.767 13.3973 426.705 10.7825 430.128C8.16761 433.552 12.3811 441.165 20.1935 447.132C28.0059 453.099 36.459 455.161 39.0738 451.738Z" fill="#F7AA39"/>
<path d="M39.0259 544.362C41.6408 540.939 37.4273 533.326 29.6148 527.359C21.8024 521.392 13.3494 519.33 10.7346 522.753C8.11975 526.176 12.3332 533.789 20.1457 539.756C27.9581 545.723 36.4111 547.786 39.0259 544.362Z" fill="#F7AA39"/>
<path d="M39.0494 504.75C41.6642 501.327 37.4507 493.714 29.6383 487.747C21.8259 481.78 13.3729 479.718 10.758 483.141C8.14319 486.565 12.3567 494.177 20.1691 500.144C27.9815 506.112 36.4345 508.174 39.0494 504.75Z" fill="#F7AA39"/>
<path d="M39.0738 451.738C41.6887 448.314 37.4751 440.702 29.6627 434.734C21.8503 428.767 13.3973 426.705 10.7825 430.128C8.16761 433.552 12.3811 441.165 20.1935 447.132C28.0059 453.099 36.459 455.161 39.0738 451.738Z" stroke="#523160" stroke-width="8" stroke-miterlimit="10" stroke-linecap="round" stroke-linejoin="round"/>
<path d="M39.0259 544.362C41.6408 540.939 37.4273 533.326 29.6148 527.359C21.8024 521.392 13.3494 519.33 10.7346 522.753C8.11975 526.176 12.3332 533.789 20.1457 539.756C27.9581 545.723 36.4111 547.786 39.0259 544.362Z" stroke="#523160" stroke-width="8" stroke-miterlimit="10" stroke-linecap="round" stroke-linejoin="round"/>
<path d="M39.0494 504.75C41.6642 501.327 37.4507 493.714 29.6383 487.747C21.8259 481.78 13.3729 479.718 10.758 483.141C8.14319 486.565 12.3567 494.177 20.1691 500.144C27.9815 506.112 36.4345 508.174 39.0494 504.75Z" stroke="#523160" stroke-width="8" stroke-miterlimit="10" stroke-linecap="round" stroke-linejoin="round"/>
<path d="M39.082 445.8V591.1" stroke="#523160" stroke-width="8" stroke-miterlimit="10" stroke-linecap="round" stroke-linejoin="round"/>
<path d="M141.056 563.277C148.869 557.31 153.082 549.697 150.467 546.274C147.852 542.85 139.4 544.912 131.587 550.879C123.775 556.847 119.561 564.459 122.176 567.883C124.791 571.306 133.244 569.244 141.056 563.277Z" stroke="#523160" stroke-width="8" stroke-miterlimit="10" stroke-linecap="round" stroke-linejoin="round"/>
<path d="M141.056 530.077C148.869 524.11 153.082 516.497 150.467 513.074C147.852 509.65 139.4 511.713 131.587 517.68C123.775 523.647 119.561 531.26 122.176 534.683C124.791 538.106 133.244 536.044 141.056 530.077Z" stroke="#523160" stroke-width="8" stroke-miterlimit="10" stroke-linecap="round" stroke-linejoin="round"/>
<path d="M141.034 500.085C148.846 494.118 153.06 486.505 150.445 483.082C147.83 479.658 139.377 481.72 131.565 487.688C123.752 493.655 119.539 501.267 122.154 504.691C124.768 508.114 133.221 506.052 141.034 500.085Z" stroke="#523160" stroke-width="8" stroke-miterlimit="10" stroke-linecap="round" stroke-linejoin="round"/>
<path d="M122.023 544.354C124.638 540.931 120.424 533.318 112.612 527.351C104.799 521.384 96.3465 519.322 93.7317 522.745C91.1168 526.169 95.3303 533.781 103.143 539.748C110.955 545.716 119.408 547.778 122.023 544.354Z" stroke="#523160" stroke-width="8" stroke-miterlimit="10" stroke-linecap="round" stroke-linejoin="round"/>
<path d="M122.046 504.743C124.661 501.319 120.448 493.707 112.635 487.739C104.823 481.772 96.3699 479.71 93.7551 483.133C91.1403 486.557 95.3537 494.169 103.166 500.137C110.979 506.104 119.432 508.166 122.046 504.743Z" stroke="#523160" stroke-width="8" stroke-miterlimit="10" stroke-linecap="round" stroke-linejoin="round"/>
<path d="M122.082 500.6V591.1" stroke="#523160" stroke-width="8" stroke-miterlimit="10" stroke-linecap="round" stroke-linejoin="round"/>
<path d="M238.482 243.2L248.282 255.8L271.982 246.4L302.682 258.2L315.382 246.4L339.382 254.3L352.382 234.5L382.882 246.7L394.882 228.2" stroke="#D4C0E2" stroke-width="8" stroke-miterlimit="10" stroke-linecap="round" stroke-linejoin="round"/>
<path d="M439.482 202.899L469.882 195.899L480.982 216.399L512.482 199.399L535.482 213.899L550.382 191.899L588.982 198.299" stroke="#D4C0E2" stroke-width="8" stroke-miterlimit="10" stroke-linecap="round" stroke-linejoin="round"/>
<path d="M567.281 128.1H709.681C710.481 126.2 710.981 124 710.981 121.8C710.981 112.9 703.681 105.6 694.781 105.6C692.981 105.6 691.281 105.9 689.781 106.4C686.081 96.2996 676.281 89.0996 664.881 89.0996C661.881 89.0996 658.981 89.5996 656.281 90.4996C650.581 77.8996 637.781 69.0996 623.081 69.0996C602.881 69.0996 586.581 85.3996 586.581 105.6C586.581 107.6 586.781 109.6 587.081 111.6C577.881 113.3 570.481 119.6 567.281 128.1Z" stroke="#D4C0E2" stroke-width="8" stroke-miterlimit="10" stroke-linecap="round" stroke-linejoin="round"/>
<path d="M814.382 193.199C814.382 193.099 814.382 192.999 814.382 192.899C814.382 183.299 806.582 175.599 797.082 175.599C795.282 175.599 793.582 175.899 791.982 176.399C791.982 175.899 791.982 175.399 791.982 174.899C791.982 159.699 779.682 147.399 764.482 147.399C749.282 147.399 736.982 159.699 736.982 174.899C736.982 176.499 737.082 177.999 737.382 179.499C737.282 179.499 737.082 179.499 736.982 179.499C729.582 179.499 723.482 185.499 723.482 192.999C723.482 193.099 723.482 193.199 723.482 193.399H814.382V193.199Z" stroke="#D4C0E2" stroke-width="8" stroke-miterlimit="10" stroke-linecap="round" stroke-linejoin="round"/>
<path d="M283.882 593C258.582 593 237.982 572.4 237.982 547.1C237.982 521.8 258.582 501.2 283.882 501.2C309.182 501.2 329.782 521.8 329.782 547.1C329.782 572.4 309.182 593 283.882 593Z" fill="#5C3F6B"/>
<path d="M283.882 593C258.582 593 237.982 572.4 237.982 547.1C237.982 521.8 258.582 501.2 283.882 501.2C309.182 501.2 329.782 521.8 329.782 547.1C329.782 572.4 309.182 593 283.882 593Z" stroke="#523160" stroke-width="8" stroke-miterlimit="10" stroke-linecap="round" stroke-linejoin="round"/>
<path d="M283.883 571.1C270.683 571.1 259.883 560.3 259.883 547.1C259.883 533.9 270.683 523.1 283.883 523.1C297.083 523.1 307.883 533.9 307.883 547.1C307.883 560.3 297.083 571.1 283.883 571.1Z" fill="#F7AA39"/>
<path d="M283.883 571.1C270.683 571.1 259.883 560.3 259.883 547.1C259.883 533.9 270.683 523.1 283.883 523.1C297.083 523.1 307.883 533.9 307.883 547.1C307.883 560.3 297.083 571.1 283.883 571.1Z" stroke="#523160" stroke-width="8" stroke-miterlimit="10" stroke-linecap="round" stroke-linejoin="round"/>
<path d="M283.882 555C279.482 555 275.982 551.4 275.982 547.1C275.982 542.7 279.582 539.2 283.882 539.2C288.282 539.2 291.782 542.8 291.782 547.1C291.782 551.4 288.282 555 283.882 555Z" fill="#F7AA39"/>
<path d="M283.882 555C279.482 555 275.982 551.4 275.982 547.1C275.982 542.7 279.582 539.2 283.882 539.2C288.282 539.2 291.782 542.8 291.782 547.1C291.782 551.4 288.282 555 283.882 555Z" stroke="#523160" stroke-width="8" stroke-miterlimit="10" stroke-linecap="round" stroke-linejoin="round"/>
<path d="M650.882 407.4L641.482 371.7C637.782 357.4 625.582 347 610.882 345.4C568.882 340.9 517.982 338.3 458.582 338.3C390.582 338.3 286.082 343.5 254.682 347.1C248.982 347.7 244.082 351.4 241.782 356.7L222.882 400.9C214.182 416.5 208.882 433.7 207.382 451.5L206.982 550.9L228.082 551.3C227.982 549.9 227.882 548.5 227.882 547.1C227.882 516.2 252.882 491.2 283.782 491.2C314.682 491.2 339.682 516.2 339.682 547.1C339.682 548.9 339.582 550.7 339.382 552.4L486.382 554.2C486.082 551.9 485.882 549.5 485.882 547.1C485.882 516.2 510.882 491.2 541.782 491.2C572.682 491.2 597.682 516.2 597.682 547.1C597.682 549.9 597.482 552.6 597.082 555.3L656.382 555.9V452.3C656.682 437.2 654.682 422.1 650.882 407.4Z" fill="#69AD63"/>
<g opacity="0.36">
<path opacity="0.36" d="M218.182 550.9L218.582 451.5C220.082 433.7 225.382 416.5 234.082 400.9L252.982 356.7C255.282 351.4 260.182 347.8 265.882 347.1C296.382 343.6 395.682 338.6 463.682 338.3C461.982 338.3 460.282 338.3 458.582 338.3C390.582 338.3 286.082 343.5 254.682 347.1C248.982 347.7 244.082 351.4 241.782 356.7L222.882 400.9C214.182 416.5 208.882 433.7 207.382 451.5L206.982 550.9L228.082 551.3C228.082 551.2 228.082 551.2 228.082 551.1L218.182 550.9Z" fill="#69AD63"/>
<path opacity="0.36" d="M608.482 555.3C608.882 552.6 609.082 549.9 609.082 547.1C609.082 516.2 584.082 491.2 553.182 491.2C551.282 491.2 549.482 491.3 547.582 491.5C575.882 494.3 597.882 518.1 597.882 547.1C597.882 549.9 597.682 552.6 597.282 555.3L656.582 555.9V555.8L608.482 555.3Z" fill="#69AD63"/>
<path opacity="0.36" d="M350.682 552.3C350.882 550.6 350.982 548.8 350.982 547C350.982 516.1 325.982 491.1 295.082 491.1C293.182 491.1 291.382 491.2 289.482 491.4C317.782 494.2 339.782 518 339.782 547C339.782 548.8 339.682 550.6 339.482 552.3L486.482 554.1V554L350.682 552.3Z" fill="#69AD63"/>
</g>
<path opacity="0.36" d="M350.882 543.3H484.482V530H348.282C349.682 534.3 350.482 538.7 350.882 543.3Z" fill="#69AD63"/>
<g opacity="0.25">
<path opacity="0.25" d="M652.883 406.4L643.483 370.7C639.783 356.4 627.583 346 612.883 344.4C570.883 339.9 519.983 337.3 460.583 337.3C392.583 337.3 288.083 342.5 256.683 346.1C251.783 346.7 247.383 349.5 244.883 353.7C244.883 353.7 244.883 352 244.983 352C276.383 348.4 380.883 344.9 448.883 344.9C508.383 344.9 559.183 347.5 601.183 352C615.883 353.6 627.983 364 631.783 378.3L641.183 414C645.083 428.7 646.983 443.8 646.983 458.9V554.8L658.783 554.9V451.3C658.683 436.2 656.683 421.1 652.883 406.4Z" fill="#69AD63"/>
</g>
<path d="M650.882 407.4L641.482 371.7C637.782 357.4 625.582 347 610.882 345.4C568.882 340.9 517.982 338.3 458.582 338.3C390.582 338.3 286.082 343.5 254.682 347.1C248.982 347.7 244.082 351.4 241.782 356.7L222.882 400.9C214.182 416.5 208.882 433.7 207.382 451.5L206.982 550.9L228.082 551.3C227.982 549.9 227.882 548.5 227.882 547.1C227.882 516.2 252.882 491.2 283.782 491.2C314.682 491.2 339.682 516.2 339.682 547.1C339.682 548.9 339.582 550.7 339.382 552.4L486.382 554.2C486.082 551.9 485.882 549.5 485.882 547.1C485.882 516.2 510.882 491.2 541.782 491.2C572.682 491.2 597.682 516.2 597.682 547.1C597.682 549.9 597.482 552.6 597.082 555.3L656.382 555.9V452.3C656.682 437.2 654.682 422.1 650.882 407.4Z" stroke="#523160" stroke-width="8" stroke-miterlimit="10" stroke-linecap="round" stroke-linejoin="round"/>
<path d="M541.982 593C516.682 593 496.082 572.4 496.082 547.1C496.082 521.8 516.682 501.2 541.982 501.2C567.282 501.2 587.882 521.8 587.882 547.1C587.882 572.4 567.282 593 541.982 593Z" fill="#5C3F6B"/>
<path d="M541.982 593C516.682 593 496.082 572.4 496.082 547.1C496.082 521.8 516.682 501.2 541.982 501.2C567.282 501.2 587.882 521.8 587.882 547.1C587.882 572.4 567.282 593 541.982 593Z" stroke="#523160" stroke-width="8" stroke-miterlimit="10" stroke-linecap="round" stroke-linejoin="round"/>
<path d="M541.982 571.1C528.782 571.1 517.982 560.3 517.982 547.1C517.982 533.9 528.782 523.1 541.982 523.1C555.182 523.1 565.982 533.9 565.982 547.1C565.982 560.3 555.182 571.1 541.982 571.1Z" fill="#F7AA39"/>
<path d="M541.982 571.1C528.782 571.1 517.982 560.3 517.982 547.1C517.982 533.9 528.782 523.1 541.982 523.1C555.182 523.1 565.982 533.9 565.982 547.1C565.982 560.3 555.182 571.1 541.982 571.1Z" stroke="#523160" stroke-width="8" stroke-miterlimit="10" stroke-linecap="round" stroke-linejoin="round"/>
<path d="M541.982 555C537.582 555 534.082 551.4 534.082 547.1C534.082 542.7 537.682 539.2 541.982 539.2C546.382 539.2 549.882 542.8 549.882 547.1C549.882 551.4 546.382 555 541.982 555Z" fill="#F7AA39"/>
<path d="M541.982 555C537.582 555 534.082 551.4 534.082 547.1C534.082 542.7 537.682 539.2 541.982 539.2C546.382 539.2 549.882 542.8 549.882 547.1C549.882 551.4 546.382 555 541.982 555Z" stroke="#523160" stroke-width="8" stroke-miterlimit="10" stroke-linecap="round" stroke-linejoin="round"/>
<path d="M206.982 559.8H196.082C191.582 559.8 187.982 556.2 187.982 551.7V519.4C187.982 514.9 191.582 511.3 196.082 511.3H206.982V559.8Z" fill="white"/>
<path d="M206.982 559.8H196.082C191.582 559.8 187.982 556.2 187.982 551.7V519.4C187.982 514.9 191.582 511.3 196.082 511.3H206.982V559.8Z" stroke="#523160" stroke-width="8" stroke-miterlimit="10" stroke-linecap="round" stroke-linejoin="round"/>
<path d="M208.583 498.3H204.583C201.583 498.3 199.183 495.9 199.183 492.9V468.1C199.183 465.1 201.583 462.7 204.583 462.7H208.583C211.583 462.7 213.983 465.1 213.983 468.1V492.9C213.983 495.9 211.583 498.3 208.583 498.3Z" fill="white"/>
<path d="M208.583 498.3H204.583C201.583 498.3 199.183 495.9 199.183 492.9V468.1C199.183 465.1 201.583 462.7 204.583 462.7H208.583C211.583 462.7 213.983 465.1 213.983 468.1V492.9C213.983 495.9 211.583 498.3 208.583 498.3Z" stroke="#523160" stroke-width="8" stroke-miterlimit="10" stroke-linecap="round" stroke-linejoin="round"/>
<path d="M664.282 567.5H621.282C616.282 567.5 612.282 563.5 612.282 558.5V551.5C612.282 546.5 616.282 542.5 621.282 542.5H664.282C669.282 542.5 673.282 546.5 673.282 551.5V558.5C673.282 563.4 669.182 567.5 664.282 567.5Z" fill="white"/>
<path d="M621.883 557.8C621.883 555.3 623.983 553.2 626.483 553.2H673.183V551.5C673.183 546.5 669.183 542.5 664.183 542.5H621.183C616.183 542.5 612.183 546.5 612.183 551.5V558.5C612.183 563.5 616.183 567.5 621.183 567.5H621.883V557.8V557.8Z" fill="#D8D8D8"/>
<path d="M664.282 567.5H621.282C616.282 567.5 612.282 563.5 612.282 558.5V551.5C612.282 546.5 616.282 542.5 621.282 542.5H664.282C669.282 542.5 673.282 546.5 673.282 551.5V558.5C673.282 563.4 669.182 567.5 664.282 567.5Z" stroke="#523160" stroke-width="8" stroke-miterlimit="10" stroke-linecap="round" stroke-linejoin="round"/>
<path d="M591.482 430.6H545.182C539.882 430.6 535.582 426.3 535.582 421V374.3C535.582 369 539.882 364.7 545.182 364.7H573.282C584.382 364.7 593.782 372.8 595.482 383.8L600.882 419.5C601.882 425.4 597.382 430.6 591.482 430.6Z" fill="#F7AA39"/>
<path opacity="0.56" d="M555.182 385.8C555.182 380.5 559.482 376.2 564.782 376.2H592.882C588.982 369.3 581.582 364.8 573.282 364.8H545.182C539.882 364.8 535.582 369.1 535.582 374.4V421.1C535.582 426.4 539.882 430.7 545.182 430.7H555.182V385.8Z" fill="#F7AA39"/>
<path d="M591.482 430.6H545.182C539.882 430.6 535.582 426.3 535.582 421V374.3C535.582 369 539.882 364.7 545.182 364.7H573.282C584.382 364.7 593.782 372.8 595.482 383.8L600.882 419.5C601.882 425.4 597.382 430.6 591.482 430.6Z" stroke="#523160" stroke-width="8" stroke-miterlimit="10" stroke-linecap="round" stroke-linejoin="round"/>
<path d="M504.782 429.6H402.582C397.282 429.6 392.982 425.3 392.982 420V373.3C392.982 368 397.282 363.7 402.582 363.7H504.782C510.082 363.7 514.382 368 514.382 373.3V420C514.282 425.3 510.082 429.6 504.782 429.6Z" fill="#F7AA39"/>
<path opacity="0.56" d="M411.482 383.6C411.482 378.3 415.782 374 421.082 374H514.282V373.3C514.282 368 509.982 363.7 504.682 363.7H402.582C397.282 363.7 392.982 368 392.982 373.3V420C392.982 425.3 397.282 429.6 402.582 429.6H411.582V383.6H411.482Z" fill="#F7AA39"/>
<path d="M504.782 429.6H402.582C397.282 429.6 392.982 425.3 392.982 420V373.3C392.982 368 397.282 363.7 402.582 363.7H504.782C510.082 363.7 514.382 368 514.382 373.3V420C514.282 425.3 510.082 429.6 504.782 429.6Z" stroke="#523160" stroke-width="8" stroke-miterlimit="10" stroke-linecap="round" stroke-linejoin="round"/>
<path d="M346.482 430.6H250.182C244.782 430.6 240.882 424.6 242.382 418.5L253.482 371.8C254.482 367.7 257.682 364.8 261.282 364.8H346.482C350.982 364.8 354.582 369.1 354.582 374.4V421.1C354.682 426.3 350.982 430.6 346.482 430.6Z" fill="#F7AA39"/>
<path opacity="0.56" d="M260.382 428.3L271.482 381.6C272.482 377.5 275.682 374.6 279.282 374.6H354.582V374.3C354.582 369 350.982 364.7 346.482 364.7H261.282C257.682 364.7 254.482 367.6 253.482 371.7L242.382 418.4C240.982 424.5 244.782 430.5 250.182 430.5H260.082C260.182 429.8 260.282 429.1 260.382 428.3Z" fill="#F7AA39"/>
<path d="M346.482 430.6H250.182C244.782 430.6 240.882 424.6 242.382 418.5L253.482 371.8C254.482 367.7 257.682 364.8 261.282 364.8H346.482C350.982 364.8 354.582 369.1 354.582 374.4V421.1C354.682 426.3 350.982 430.6 346.482 430.6Z" stroke="#523160" stroke-width="8" stroke-miterlimit="10" stroke-linecap="round" stroke-linejoin="round"/>
<path opacity="0.48" d="M356.383 343C367.783 343 376.983 352.2 376.983 363.6V552.8" stroke="#523160" stroke-width="2" stroke-miterlimit="10" stroke-linecap="round" stroke-linejoin="round"/>
<path d="M329.782 454.6H359.782" stroke="#523160" stroke-width="8" stroke-miterlimit="10" stroke-linecap="round" stroke-linejoin="round"/>
<path d="M485.482 452.3H511.082" stroke="#523160" stroke-width="8" stroke-miterlimit="10" stroke-linecap="round" stroke-linejoin="round"/>
<path d="M659.283 521.8H655.383V426.3H659.283C665.883 426.3 671.283 431.7 671.283 438.3V509.8C671.283 516.4 665.883 521.8 659.283 521.8Z" fill="#D8D8D8"/>
<path d="M659.283 521.8H655.383V426.3H659.283C665.883 426.3 671.283 431.7 671.283 438.3V509.8C671.283 516.4 665.883 521.8 659.283 521.8Z" stroke="#523160" stroke-width="8" stroke-miterlimit="10" stroke-linecap="round" stroke-linejoin="round"/>
<path d="M612.282 374.8H624.382" stroke="#523160" stroke-width="8" stroke-miterlimit="10" stroke-linecap="round" stroke-linejoin="round"/>
<path d="M617.282 392H629.382" stroke="#523160" stroke-width="8" stroke-miterlimit="10" stroke-linecap="round" stroke-linejoin="round"/>
<path d="M621.982 409.1H634.082" stroke="#523160" stroke-width="8" stroke-miterlimit="10" stroke-linecap="round" stroke-linejoin="round"/>
<path d="M623.982 426.3H636.182" stroke="#523160" stroke-width="8" stroke-miterlimit="10" stroke-linecap="round" stroke-linejoin="round"/>
<path d="M477.782 559H348.482C343.082 559 338.782 554.7 338.782 549.3C338.782 543.9 343.082 539.6 348.482 539.6H477.782C483.182 539.6 487.482 543.9 487.482 549.3C487.482 554.6 483.182 559 477.782 559Z" fill="white"/>
<path d="M477.782 559H348.482C343.082 559 338.782 554.7 338.782 549.3C338.782 543.9 343.082 539.6 348.482 539.6H477.782C483.182 539.6 487.482 543.9 487.482 549.3C487.482 554.6 483.182 559 477.782 559Z" fill="white"/>
<path d="M487.482 539.6H338.782V549.3H487.482V539.6Z" fill="#D8D8D8"/>
<path d="M477.782 559H348.482C343.082 559 338.782 554.7 338.782 549.3C338.782 543.9 343.082 539.6 348.482 539.6H477.782C483.182 539.6 487.482 543.9 487.482 549.3C487.482 554.6 483.182 559 477.782 559Z" stroke="#523160" stroke-width="8" stroke-miterlimit="10" stroke-linecap="round" stroke-linejoin="round"/>
<path d="M269.183 405.8L288.783 386.1" stroke="#523160" stroke-width="4" stroke-miterlimit="10" stroke-linecap="round" stroke-linejoin="round"/>
<path d="M285.782 407.6L312.182 381" stroke="#523160" stroke-width="4" stroke-miterlimit="10" stroke-linecap="round" stroke-linejoin="round"/>
<path d="M421.482 403.5L440.982 383.7" stroke="#523160" stroke-width="4" stroke-miterlimit="10" stroke-linecap="round" stroke-linejoin="round"/>
<path d="M438.082 405.3L464.482 378.7" stroke="#523160" stroke-width="4" stroke-miterlimit="10" stroke-linecap="round" stroke-linejoin="round"/>
<path d="M548.282 405.4L564.382 389.1" stroke="#523160" stroke-width="4" stroke-miterlimit="10" stroke-linecap="round" stroke-linejoin="round"/>
<path d="M561.982 406.9L583.682 384.9" stroke="#523160" stroke-width="4" stroke-miterlimit="10" stroke-linecap="round" stroke-linejoin="round"/>
<path d="M712.682 458.2L795.282 262.6C797.082 258.4 803.082 258.4 804.882 262.6L887.482 458.2C897.382 481.6 876.282 506.1 846.282 506.1H753.882C723.882 506.1 702.782 481.6 712.682 458.2Z" fill="#F7AA39"/>
<path d="M712.682 458.2L795.282 262.6C797.082 258.4 803.082 258.4 804.882 262.6L887.482 458.2C897.382 481.6 876.282 506.1 846.282 506.1H753.882C723.882 506.1 702.782 481.6 712.682 458.2Z" fill="#F7AA39"/>
<path opacity="0.56" d="M753.081 467.4L811.981 279.3L804.981 262.6C803.181 258.4 797.181 258.4 795.381 262.6L712.781 458.2C702.881 481.6 723.981 506.1 753.981 506.1H760.981C752.181 498.7 748.781 486.4 753.081 467.4Z" fill="#F7AA39"/>
<path d="M800.082 593V298.6" stroke="#523160" stroke-width="8" stroke-miterlimit="10" stroke-linecap="round" stroke-linejoin="round"/>
<path d="M823.882 339.6L800.082 362.3L776.382 339.6" stroke="#523160" stroke-width="8" stroke-miterlimit="10" stroke-linecap="round" stroke-linejoin="round"/>
<path d="M828.381 382.8L800.081 409.9L771.781 382.8" stroke="#523160" stroke-width="8" stroke-miterlimit="10" stroke-linecap="round" stroke-linejoin="round"/>
<path d="M847.282 432L800.082 469.5L752.882 432" stroke="#523160" stroke-width="8" stroke-miterlimit="10" stroke-linecap="round" stroke-linejoin="round"/>
<path d="M534.982 4L522.982 16L510.982 4" stroke="#D4C0E2" stroke-width="8" stroke-miterlimit="10" stroke-linecap="round" stroke-linejoin="round"/>
<path d="M624.282 19.5996L612.282 31.5996L600.182 19.5996" stroke="#D4C0E2" stroke-width="8" stroke-miterlimit="10" stroke-linecap="round" stroke-linejoin="round"/>
<path d="M814.482 84.0996L802.382 96.0996L790.382 84.0996" stroke="#D4C0E2" stroke-width="8" stroke-miterlimit="10" stroke-linecap="round" stroke-linejoin="round"/>
<path d="M697.982 593H419.982" stroke="#523160" stroke-width="8" stroke-miterlimit="10" stroke-linecap="round" stroke-linejoin="round"/>
<path d="M423.682 593H389.982" stroke="#523160" stroke-width="8" stroke-miterlimit="10" stroke-linecap="round" stroke-linejoin="round"/>
</svg>
