<svg width="1000" height="708" viewBox="0 0 1000 708" fill="none" xmlns="http://www.w3.org/2000/svg">
<path d="M536.4 425.9C536.4 444.5 532.5 462.3 525.3 480.4C525.1 481 524.8 481.6 524.5 482.3C517.3 499.5 507 516.7 494.5 526.8C481.6 516.4 471.1 498.5 463.8 480.8C463.7 480.7 463.7 480.6 463.6 480.4C456.4 462.3 452.5 444.5 452.5 425.9C452.5 420.2 452.9 414.6 453.6 408.8C456 389.4 469.2 366 485.7 363.5C485.9 363.5 486.1 363.4 486.3 363.4C491.5 362.8 496.8 362.8 502 363.3C502.2 363.3 502.5 363.3 502.7 363.4C519.5 365.5 533 389.2 535.4 408.8C536 414.6 536.4 420.2 536.4 425.9Z" fill="#F4A045"/>
<path d="M536.4 425.9C536.4 444.5 532.5 462.3 525.3 480.4C525.1 481 524.8 481.6 524.5 482.3C517.3 499.5 507 516.7 494.5 526.8C481.6 516.4 471.1 498.5 463.8 480.8C463.7 480.7 463.7 480.6 463.6 480.4C456.4 462.3 452.5 444.5 452.5 425.9C452.5 420.2 452.9 414.6 453.6 408.8C456 389.4 469.2 366 485.7 363.5C485.9 363.5 486.1 363.4 486.3 363.4C491.5 362.8 496.8 362.8 502 363.3C502.2 363.3 502.5 363.3 502.7 363.4C519.5 365.5 533 389.2 535.4 408.8C536 414.6 536.4 420.2 536.4 425.9Z" stroke="#601B23" stroke-width="6" stroke-miterlimit="10" stroke-linecap="round" stroke-linejoin="round"/>
<path d="M999.8 707.7C980.5 695.5 992.233 633 982.5 619C969.5 600.3 982.5 553.4 927.5 552.2C887.5 552.2 852.3 572.8 831.9 603.9C821.3 598.9 809.5 596.2 797 596.2C791.5 596.2 786.2 596.7 781.1 597.8C781.1 597.3 781.1 596.8 781.1 596.2C781.1 570.7 763.1 549.4 739.2 544.3C730 512.8 701 489.7 666.5 489.7C637.8 489.7 612.8 505.7 600 529.2C591.1 520.9 579.2 515.7 566.1 515.7C558.6 515.7 551.5 517.4 545.1 520.3C537.3 508.2 530.4 495.5 524.5 482.1C509.9 449.1 501.8 412.3 501.8 373.7C501.8 370.2 501.9 366.8 502 363.3C503.7 318.6 516.2 276.7 537.1 240.1H450.6C471.5 276.7 484 318.7 485.7 363.4C485.8 366.8 485.9 370.2 485.9 373.6C485.9 411.6 478 447.9 463.8 480.7C454.5 502.1 442.6 522.1 428.3 540.2C416.2 525.2 397.7 515.7 377 515.7C356.2 515.7 337.7 525.3 325.6 540.3C315.9 534.6 304.7 531.3 292.6 531.3C273.2 531.3 255.7 539.9 243.8 553.4C226.2 527.3 196.4 510.1 162.6 510.1C108.6 510.1 64.8 553.9 64.8 607.9C64.8 608.2 64.8 608.5 64.8 608.8C28.2 627.4 2.5 664.4 0 707.7H236H719.9H999.8Z" fill="url(#paint0_linear)"/>
<path d="M489.9 363.2C480.5 364.4 473 377.6 471.6 388.5C471.2 391.7 471 394.8 471 398C471 408.4 473.2 418.3 477.2 428.4C481.2 438.3 487.2 448.4 494.4 454.2C501.7 448.4 507.6 438.3 511.6 428.4C515.6 418.3 517.8 408.4 517.8 398C517.8 394.8 517.6 391.7 517.2 388.5C515.8 377.5 508.3 364.4 498.9 363.2C496 362.9 492.9 362.9 489.9 363.2Z" fill="#E83D32"/>
<path d="M489.9 363.2C480.5 364.4 473 377.6 471.6 388.5C471.2 391.7 471 394.8 471 398C471 408.4 473.2 418.3 477.2 428.4C481.2 438.3 487.2 448.4 494.4 454.2C501.7 448.4 507.6 438.3 511.6 428.4C515.6 418.3 517.8 408.4 517.8 398C517.8 394.8 517.6 391.7 517.2 388.5C515.8 377.5 508.3 364.4 498.9 363.2C496 362.9 492.9 362.9 489.9 363.2Z" stroke="#601B23" stroke-width="6" stroke-miterlimit="10" stroke-linecap="round" stroke-linejoin="round"/>
<path d="M373.8 210.5L341.2 223.2V161.3L441.3 83.2V200.3L417.1 213C404.2 206.2 388.5 204.8 373.8 210.5Z" fill="#D78A19"/>
<path d="M330.6 239.4C320.4 224.6 314.5 207.1 314.5 188.4C314.5 164.7 323.8 143 339.3 126.3C354.8 143 364.2 164.7 364.3 188.4C364.3 207.2 358.4 224.6 348.3 239.4H330.6Z" fill="#F7AA39"/>
<path opacity="0.72" d="M341.2 223.2L373.6 210.6C374 202 373.4 193.2 371.8 184.4C369.4 171.2 364.9 158.8 358.7 147.6L341.2 161.3V223.2V223.2Z" fill="#B36A00"/>
<path opacity="0.23" d="M345.4 178.6L441.4 103.8V83.2L341.2 161.2V223.2L345.4 221.6V178.6Z" fill="#F4A15D"/>
<path opacity="0.72" d="M401.5 207.7C407 208.6 412.2 210.4 417.1 213L441.3 200.3V83.2L399.1 116.1C397 128.8 396 142.1 396 155.8C396.1 173.9 398 191.4 401.5 207.7Z" fill="#B36A00"/>
<path d="M373.8 210.5L341.2 223.2V161.3L441.3 83.2V200.3L417.1 213C404.2 206.2 388.5 204.8 373.8 210.5Z" stroke="#601B23" stroke-width="6" stroke-miterlimit="10" stroke-linecap="round" stroke-linejoin="round"/>
<path d="M330.6 239.4C320.4 224.6 314.5 207.1 314.5 188.4C314.5 164.7 323.8 143 339.3 126.3C354.8 143 364.2 164.7 364.3 188.4C364.3 207.2 358.4 224.6 348.3 239.4H330.6Z" fill="#F7AA39"/>
<path opacity="0.23" d="M337.8 126.3C339 127.6 340.2 129 341.3 130.4C330.9 146.4 324.9 165.2 324.8 185.2C324.8 205 327.8 223.5 338 239.5H328.8C318.7 224.7 312.8 207.2 312.8 188.5C312.9 164.7 322.3 143 337.8 126.3Z" fill="#F4A15D"/>
<path opacity="0.32" d="M337.8 126.3C338.2 126.7 338.6 127.2 339 127.7C327.3 145 320.6 165.3 320.5 187.1C320.5 206 325.6 223.8 334.5 239.5H328.8C318.7 224.7 312.8 207.2 312.8 188.5C312.9 164.7 322.3 143 337.8 126.3Z" fill="#F4A15D"/>
<path opacity="0.37" d="M364.3 188.4C364.3 164.7 354.9 143.1 339.3 126.3C338.1 127.6 336.9 129 335.8 130.4C346.2 146.4 352.2 165.2 352.3 185.2C352.3 205 346.5 223.5 336.3 239.5H348.3C358.4 224.6 364.3 207.1 364.3 188.4Z" fill="#B36A00"/>
<path opacity="0.72" d="M364.3 188.4C364.3 164.7 354.9 143.1 339.3 126.3C338.9 126.7 338.5 127.2 338.1 127.7C349.8 145 356.5 165.3 356.6 187.1C356.6 206 351.5 223.8 342.6 239.5H348.3C358.4 224.6 364.3 207.1 364.3 188.4Z" fill="#B36A00"/>
<path opacity="0.37" d="M339.3 126.3C338.1 127.6 336.9 129 335.8 130.4C346.2 146.4 352.2 165.2 352.3 185.2C352.3 205 346.5 223.5 336.3 239.5H348.3C358.4 224.7 364.3 207.2 364.3 188.5C364.2 164.7 354.8 143 339.3 126.3Z" fill="#B36A00"/>
<path opacity="0.72" d="M339.3 126.3C338.9 126.7 338.5 127.2 338.1 127.7C349.8 145 356.5 165.3 356.6 187.1C356.6 206 351.5 223.8 342.6 239.5H348.3C358.4 224.7 364.3 207.2 364.3 188.5C364.2 164.7 354.8 143 339.3 126.3Z" fill="#B36A00"/>
<path d="M350.7 144.3C347 137.8 342.6 131.8 337.5 126.2C332.4 131.7 328 137.8 324.3 144.3H350.7Z" fill="#601B23"/>
<path d="M330.6 239.4C320.4 224.6 314.5 207.1 314.5 188.4C314.5 164.7 323.8 143 339.3 126.3C354.8 143 364.2 164.7 364.3 188.4C364.3 207.2 358.4 224.6 348.3 239.4H330.6Z" stroke="#601B23" stroke-width="6" stroke-miterlimit="10" stroke-linecap="round" stroke-linejoin="round"/>
<path d="M460.5 316.6C460.5 316.6 448.4 319.2 431 336.6C424.7 342.9 414.8 355.7 407.5 365.4C404.5 369.4 398.1 367.4 398 362.4L395.6 255.9C395.1 252.9 395.9 249.8 397.8 247.5L424 214.9L460.5 316.6Z" fill="#F7AA39"/>
<path opacity="0.32" d="M397.8 364.5C403.5 363.7 407.8 358.8 407.9 353L409 254C408.5 251 409.3 247.9 411.2 245.6L427.6 225.1L423.9 214.9L397.8 247.4C395.9 249.8 395.1 252.8 395.6 255.8L397.8 364.5Z" fill="#F4A15D"/>
<path opacity="0.72" d="M460.5 316.6L424 214.9L409.5 233C417.3 263 429.6 293.5 446.2 323.9C455 317.8 460.5 316.6 460.5 316.6Z" fill="#B36A00"/>
<path d="M460.5 316.6C460.5 316.6 448.4 319.2 431 336.6C424.7 342.9 414.8 355.7 407.5 365.4C404.5 369.4 398.1 367.4 398 362.4L395.6 255.9C395.1 252.9 395.9 249.8 397.8 247.5L424 214.9L460.5 316.6Z" stroke="#601B23" stroke-width="6" stroke-miterlimit="10" stroke-linecap="round" stroke-linejoin="round"/>
<path d="M321.1 226.2H354" stroke="#601B23" stroke-width="4" stroke-miterlimit="10" stroke-linecap="round" stroke-linejoin="round"/>
<path d="M330.6 239.4C320.4 224.6 314.5 207.1 314.5 188.4C314.5 164.7 323.8 143 339.3 126.3C354.8 143 364.2 164.7 364.3 188.4C364.3 207.2 358.4 224.6 348.3 239.4H330.6Z" fill="#F7AA39"/>
<path d="M330.6 239.4C320.4 224.6 314.5 207.1 314.5 188.4C314.5 164.7 323.8 143 339.3 126.3C354.8 143 364.2 164.7 364.3 188.4C364.3 207.2 358.4 224.6 348.3 239.4H330.6Z" fill="#F7AA39"/>
<path opacity="0.23" d="M337.8 126.3C339 127.6 340.2 129 341.3 130.4C330.9 146.4 324.9 165.2 324.8 185.2C324.8 205 327.8 223.5 338 239.5H328.8C318.7 224.7 312.8 207.2 312.8 188.5C312.9 164.7 322.3 143 337.8 126.3Z" fill="#F4A15D"/>
<path opacity="0.32" d="M337.8 126.3C338.2 126.7 338.6 127.2 339 127.7C327.3 145 320.6 165.3 320.5 187.1C320.5 206 325.6 223.8 334.5 239.5H328.8C318.7 224.7 312.8 207.2 312.8 188.5C312.9 164.7 322.3 143 337.8 126.3Z" fill="#F4A15D"/>
<path opacity="0.37" d="M364.3 188.4C364.3 164.7 354.9 143.1 339.3 126.3C338.1 127.6 336.9 129 335.8 130.4C346.2 146.4 352.2 165.2 352.3 185.2C352.3 205 346.5 223.5 336.3 239.5H348.3C358.4 224.6 364.3 207.1 364.3 188.4Z" fill="#B36A00"/>
<path opacity="0.72" d="M364.3 188.4C364.3 164.7 354.9 143.1 339.3 126.3C338.9 126.7 338.5 127.2 338.1 127.7C349.8 145 356.5 165.3 356.6 187.1C356.6 206 351.5 223.8 342.6 239.5H348.3C358.4 224.6 364.3 207.1 364.3 188.4Z" fill="#B36A00"/>
<path opacity="0.37" d="M339.3 126.3C338.1 127.6 336.9 129 335.8 130.4C346.2 146.4 352.2 165.2 352.3 185.2C352.3 205 346.5 223.5 336.3 239.5H348.3C358.4 224.7 364.3 207.2 364.3 188.5C364.2 164.7 354.8 143 339.3 126.3Z" fill="#B36A00"/>
<path opacity="0.72" d="M339.3 126.3C338.9 126.7 338.5 127.2 338.1 127.7C349.8 145 356.5 165.3 356.6 187.1C356.6 206 351.5 223.8 342.6 239.5H348.3C358.4 224.7 364.3 207.2 364.3 188.5C364.2 164.7 354.8 143 339.3 126.3Z" fill="#B36A00"/>
<path d="M352.5 144.3C348.8 137.8 344.4 131.8 339.3 126.2C334.2 131.7 329.8 137.8 326.1 144.3H352.5Z" fill="#601B23"/>
<path d="M330.6 239.4C320.4 224.6 314.5 207.1 314.5 188.4C314.5 164.7 323.8 143 339.3 126.3C354.8 143 364.2 164.7 364.3 188.4C364.3 207.2 358.4 224.6 348.3 239.4H330.6Z" stroke="#601B23" stroke-width="6" stroke-miterlimit="10" stroke-linecap="round" stroke-linejoin="round"/>
<path d="M321.1 226.2H354" stroke="#601B23" stroke-width="4" stroke-miterlimit="10" stroke-linecap="round" stroke-linejoin="round"/>
<path d="M609.3 210.5L641.9 223.2V161.3L541.8 83.2V200.3L566 213C578.9 206.2 594.6 204.8 609.3 210.5Z" fill="#D78A19"/>
<path opacity="0.72" d="M641.9 223.2L609.5 210.6C609.1 202 609.7 193.2 611.3 184.4C613.7 171.2 618.2 158.8 624.4 147.6L641.9 161.3V223.2Z" fill="#B36A00"/>
<path opacity="0.23" d="M637.8 178.6L541.8 103.8V83.2L641.9 161.2V223.2L637.8 221.6V178.6Z" fill="#F4A15D"/>
<path opacity="0.72" d="M581.6 207.7C576.1 208.6 570.9 210.4 566 213L541.8 200.3V83.2L584 116.1C586.1 128.8 587.1 142.1 587.1 155.8C587.1 173.9 585.2 191.4 581.6 207.7Z" fill="#B36A00"/>
<path d="M609.3 210.5L641.9 223.2V161.3L541.8 83.2V200.3L566 213C578.9 206.2 594.6 204.8 609.3 210.5Z" stroke="#601B23" stroke-width="6" stroke-miterlimit="10" stroke-linecap="round" stroke-linejoin="round"/>
<path d="M522.7 316.6C522.7 316.6 534.8 319.2 552.2 336.6C558.5 342.9 568.4 355.7 575.7 365.4C578.7 369.4 585.1 367.4 585.2 362.4L587.6 255.9C588.1 252.9 587.3 249.8 585.4 247.5L559.2 214.9L522.7 316.6Z" fill="#F7AA39"/>
<path opacity="0.72" d="M585.3 364.5C579.6 363.7 575.3 358.8 575.2 353L574.1 254C574.6 251 573.8 247.9 571.9 245.6L555.5 225.1L559.2 214.9L585.4 247.5C587.3 249.9 588.1 252.9 587.6 255.9L585.3 364.5Z" fill="#B36A00"/>
<path opacity="0.72" d="M522.7 316.6L559.2 214.9L573.7 233C565.9 263 553.6 293.5 537 323.9C528.2 317.8 522.7 316.6 522.7 316.6Z" fill="#B36A00"/>
<path d="M522.7 316.6C522.7 316.6 534.8 319.2 552.2 336.6C558.5 342.9 568.4 355.7 575.7 365.4C578.7 369.4 585.1 367.4 585.2 362.4L587.6 255.9C588.1 252.9 587.3 249.8 585.4 247.5L559.2 214.9L522.7 316.6Z" stroke="#601B23" stroke-width="6" stroke-miterlimit="10" stroke-linecap="round" stroke-linejoin="round"/>
<path d="M522.2 373.8C523.3 361.9 521.7 350.7 501.7 321.2C498.4 316.5 490.5 316.5 487.2 321.2C467.2 350.8 465.6 362 466.7 373.8C466.9 375.3 469.6 377 471.3 376.4C482.8 370.5 506.1 370.5 517.6 376.4C519.3 377 522 375.4 522.2 373.8Z" fill="#4E8280"/>
<g opacity="0.32">
<g opacity="0.32">
<g opacity="0.32">
<path opacity="0.32" d="M476.8 373.8C475.7 361.9 477.3 350.7 497.3 321.2C497.9 320.3 498.7 319.6 499.5 319.1C495.7 316.6 489.9 317.3 487.2 321.2C467.2 350.8 465.6 362 466.7 373.8C466.9 375.3 469.6 377 471.3 376.4C473 375.6 474.9 374.8 476.9 374.2C476.9 374.1 476.8 374 476.8 373.8Z" fill="#F4A15D"/>
</g>
<g opacity="0.32">
<path opacity="0.32" d="M499.5 372.2C506.4 372.7 512.9 374.1 517.6 376.4C519.1 377 521.5 375.6 522.1 374.2C515.5 372.3 507.3 371.6 499.5 372.2Z" fill="#F4A15D"/>
</g>
</g>
</g>
<path d="M490.7 321.2C490.4 320.8 490.1 320.5 489.8 320.2C493.5 316.5 500.4 316.9 503.4 321.2C523.4 350.8 525 362 523.9 373.8C523.7 375.3 521 377 519.3 376.4C517 375.2 514.2 374.3 511.2 373.6C512.3 361.8 510.6 350.6 490.7 321.2Z" fill="#37605D"/>
<path d="M522.2 373.8C523.3 361.9 521.7 350.7 501.7 321.2C498.4 316.5 490.5 316.5 487.2 321.2C467.2 350.8 465.6 362 466.7 373.8C466.9 375.3 469.6 377 471.3 376.4C482.8 370.5 506.1 370.5 517.6 376.4C519.3 377 522 375.4 522.2 373.8Z" stroke="#601B23" stroke-width="6" stroke-miterlimit="10" stroke-linecap="round" stroke-linejoin="round"/>
<path d="M517 337.9C564.1 260.8 581.2 185.1 570.6 122C561.4 67.2 531.8 27.7 494.4 3C457 27.7 427.4 67.2 418.2 122C407.6 185.1 424.8 260.8 471.8 337.9H517Z" fill="#F7AA39"/>
<path opacity="0.23" d="M454 123.1C460 73.4999 475.6 34.0999 496.6 4.59985C495.9 4.09985 495.1 3.59985 494.4 3.09985C457 27.7999 427.4 67.2999 418.2 122.1C407.6 185.2 424.8 260.9 471.8 338H481.3C455.2 260.9 446.4 186.8 454 123.1Z" fill="#F4A15D"/>
<path opacity="0.37" d="M570.6 122C561.5 67.5998 532.3 28.2999 495.2 3.59985C502.1 14.6999 510.9 30.6998 518.3 50.9998C531.8 87.8998 533.3 118.3 534.1 137.4C537.7 223.3 504.8 318.3 497.9 338H517C564.1 260.8 581.2 185.1 570.6 122Z" fill="#B36A00"/>
<path opacity="0.72" d="M570.6 122C561.4 67.2 531.8 27.7 494.4 3C493.4 3.6 492.5 4.30002 491.5 4.90002C505.7 16 516.5 27.9 524.7 39.3C598.3 141.7 527.7 295 518 315.3C517.6 301.5 515.8 284.4 510.7 265.3C507.4 253.1 503.4 242.4 499.4 233.3C497.9 267.2 496.4 301.1 494.9 335H507.3C507 336 506.7 336.9 506.3 337.9H516.8C564.1 260.8 581.2 185.1 570.6 122Z" fill="#B36A00"/>
<path opacity="0.32" d="M430.8 139.4C432.2 123.4 437.4 71.4 469.5 28.7C474.6 22 482.2 12.9001 481.6 12.4001C480.7 11.6001 463.1 27.5001 450.6 44.4001C434.9 65.5001 423.4 91.4 418.3 122C407.7 185.1 424.9 260.8 471.9 337.9H476C463.1 312.2 454.6 289 448.8 270.7C445 258.4 438.3 236.6 434.1 207.4C431.4 187.8 428.4 166.8 430.8 139.4Z" fill="#F4A15D"/>
<path opacity="0.72" d="M499.8 160C514.822 160 527 147.822 527 132.8C527 117.778 514.822 105.6 499.8 105.6C484.777 105.6 472.6 117.778 472.6 132.8C472.6 147.822 484.777 160 499.8 160Z" fill="#B36A00" stroke="#B36A00" stroke-width="6" stroke-miterlimit="10" stroke-linecap="round" stroke-linejoin="round"/>
<path d="M517 337.9C564.1 260.8 581.2 185.1 570.6 122C561.4 67.2 531.8 27.7 494.4 3C457 27.7 427.4 67.2 418.2 122C407.6 185.1 424.8 260.8 471.8 337.9H517Z" stroke="#601B23" stroke-width="6" stroke-miterlimit="10" stroke-linecap="round" stroke-linejoin="round"/>
<path d="M521.263 132.959C523.669 118.13 513.599 104.159 498.771 101.752C483.943 99.3454 469.971 109.415 467.564 124.244C465.158 139.072 475.228 153.044 490.056 155.45C504.884 157.857 518.856 147.787 521.263 132.959Z" fill="#ABCFD8"/>
<path opacity="0.93" d="M490.7 143.5C499.757 143.5 507.1 136.157 507.1 127.1C507.1 118.042 499.757 110.7 490.7 110.7C481.642 110.7 474.3 118.042 474.3 127.1C474.3 136.157 481.642 143.5 490.7 143.5Z" fill="#E2F0F2"/>
<path d="M521.263 132.959C523.669 118.13 513.599 104.159 498.771 101.752C483.943 99.3454 469.971 109.415 467.564 124.244C465.158 139.072 475.228 153.044 490.056 155.45C504.884 157.857 518.856 147.787 521.263 132.959Z" stroke="#601B23" stroke-width="6" stroke-miterlimit="10" stroke-linecap="round" stroke-linejoin="round"/>
<path d="M494.399 384.7C495.499 384.7 496.399 383.5 496.499 381.9L503.999 259.5C504.799 246.9 500.799 235.2 494.899 232.4C494.499 232.2 494.099 232.2 493.799 232.4C487.899 235.1 483.899 246.8 484.699 259.5L492.199 381.9C492.399 383.5 493.399 384.7 494.399 384.7Z" fill="#FF004F"/>
<path opacity="0.74" d="M494.399 384.7C495.499 384.7 496.399 383.5 496.499 381.9L503.999 259.5C504.799 246.9 500.799 235.2 494.899 232.4C494.499 232.2 494.099 232.2 493.799 232.4C487.899 235.1 483.899 246.8 484.699 259.5L492.199 381.9C492.399 383.5 493.399 384.7 494.399 384.7Z" fill="#B36A00"/>
<g opacity="0.53">
<g opacity="0.53">
<g opacity="0.53">
<path opacity="0.53" d="M493.9 232.4C488 235.1 484 246.8 484.8 259.5L492.3 381.9C492.4 383.2 493 384.3 493.8 384.6V232.4H493.9Z" fill="#F4A15D"/>
</g>
<g opacity="0.53">
<path opacity="0.53" d="M493.9 232.4H495C494.6 232.2 494.2 232.2 493.9 232.4Z" fill="#F4A15D"/>
</g>
</g>
</g>
<path d="M494.399 384.7C495.499 384.7 496.399 383.5 496.499 381.9L503.999 259.5C504.799 246.9 500.799 235.2 494.899 232.4C494.499 232.2 494.099 232.2 493.799 232.4C487.899 235.1 483.899 246.8 484.699 259.5L492.199 381.9C492.399 383.5 493.399 384.7 494.399 384.7Z" stroke="#601B23" stroke-width="6" stroke-miterlimit="10" stroke-linecap="round" stroke-linejoin="round"/>
<path d="M641.2 239.4C631 224.6 625.1 207.1 625.1 188.4C625.1 164.7 634.4 143 649.9 126.3C665.4 143 674.8 164.7 674.9 188.4C674.9 207.2 669 224.6 658.9 239.4H641.2Z" fill="#F7AA39"/>
<path d="M641.2 239.4C631 224.6 625.1 207.1 625.1 188.4C625.1 164.7 634.4 143 649.9 126.3C665.4 143 674.8 164.7 674.9 188.4C674.9 207.2 669 224.6 658.9 239.4H641.2Z" fill="#F7AA39"/>
<path opacity="0.23" d="M648.5 126.3C649.7 127.6 650.9 129 652 130.4C641.6 146.4 635.6 165.2 635.5 185.2C635.5 205 638.5 223.5 648.7 239.5H639.5C629.4 224.7 623.5 207.2 623.5 188.5C623.5 164.7 632.9 143 648.5 126.3Z" fill="#F4A15D"/>
<path opacity="0.32" d="M648.5 126.3C648.9 126.7 649.3 127.2 649.7 127.7C638 145 631.3 165.3 631.2 187.1C631.2 206 636.3 223.8 645.2 239.5H639.5C629.4 224.7 623.5 207.2 623.5 188.5C623.5 164.7 632.9 143 648.5 126.3Z" fill="#F4A15D"/>
<path opacity="0.37" d="M674.899 188.4C674.899 164.7 665.499 143.1 649.899 126.3C648.699 127.6 647.499 129 646.399 130.4C656.799 146.4 662.799 165.2 662.899 185.2C662.899 205 657.099 223.5 646.899 239.5H658.899C668.999 224.6 674.899 207.1 674.899 188.4Z" fill="#B36A00"/>
<path opacity="0.72" d="M674.9 188.4C674.9 164.7 665.5 143.1 649.9 126.3C649.5 126.7 649.1 127.2 648.7 127.7C660.4 145 667.1 165.3 667.2 187.1C667.2 206 662.1 223.8 653.2 239.5H658.9C669 224.6 674.9 207.1 674.9 188.4Z" fill="#B36A00"/>
<path opacity="0.37" d="M649.899 126.3C648.699 127.6 647.499 129 646.399 130.4C656.799 146.4 662.799 165.2 662.899 185.2C662.899 205 657.099 223.5 646.899 239.5H658.899C668.999 224.7 674.899 207.2 674.899 188.5C674.899 164.7 665.499 143 649.899 126.3Z" fill="#B36A00"/>
<path opacity="0.72" d="M649.9 126.3C649.5 126.7 649.1 127.2 648.7 127.7C660.4 145 667.1 165.3 667.2 187.1C667.2 206 662.1 223.8 653.2 239.5H658.9C669 224.7 674.9 207.2 674.9 188.5C674.9 164.7 665.5 143 649.9 126.3Z" fill="#B36A00"/>
<path d="M663.2 144.3C659.5 137.8 655.1 131.8 650 126.2C644.9 131.7 640.5 137.8 636.8 144.3H663.2Z" fill="#601B23"/>
<path d="M641.2 239.4C631 224.6 625.1 207.1 625.1 188.4C625.1 164.7 634.4 143 649.9 126.3C665.4 143 674.8 164.7 674.9 188.4C674.9 207.2 669 224.6 658.9 239.4H641.2Z" stroke="#601B23" stroke-width="6" stroke-miterlimit="10" stroke-linecap="round" stroke-linejoin="round"/>
<path d="M633.6 226.2H666.5" stroke="#601B23" stroke-width="4" stroke-miterlimit="10" stroke-linecap="round" stroke-linejoin="round"/>
<defs>
<linearGradient id="paint0_linear" x1="500" y1="566" x2="500" y2="670.5" gradientUnits="userSpaceOnUse">
<stop stop-color="#F4F4F4"/>
<stop offset="1" stop-color="white"/>
</linearGradient>
</defs>
</svg>
