<svg width="913" height="492" viewBox="0 0 913 492" fill="none" xmlns="http://www.w3.org/2000/svg">
<path d="M764 344.8C737.3 345 717.3 332 700.7 313.9C697.5 310.3 694.4 305.5 691.6 300.1C677.3 273.1 673.5 241.8 680 211.9C690.7 162.9 714.1 75.0998 754.8 10.8998C759.1 4.0998 769 4.0998 773.3 10.8998C813.9 75.0998 837.3 162.9 848.1 211.9C854.6 241.7 850.7 273.1 836.5 300.1C833.7 305.4 830.6 310.2 827.4 313.9C810.7 332 790.7 345 764 344.8Z" fill="#FF6550"/>
<path opacity="0.4" d="M846.9 211.9C836.2 162.9 812.8 75.0999 772.1 10.8999C768.9 5.89992 762.6 4.59993 757.8 7.09993C761.6 10.1999 764.8 14.1999 767.2 19.0999C798.3 82.4999 817.2 155.1 826.8 199C833.9 231.3 829.7 265.1 814.4 294.4C811.2 300.5 807.8 306 804.1 310.2C788.5 327.2 770.1 340.2 746.7 343.3C751.8 344.4 757.1 344.9 762.8 344.9C789.5 345.1 809.5 332.1 826.1 314C829.3 310.4 832.4 305.6 835.2 300.2C849.6 273.1 853.5 241.8 846.9 211.9Z" fill="#FF7364"/>
<path d="M764 344.8C737.3 345 717.3 332 700.7 313.9C697.5 310.3 694.4 305.5 691.6 300.1C677.3 273.1 673.5 241.8 680 211.9C690.7 162.9 714.1 75.0998 754.8 10.8998C759.1 4.0998 769 4.0998 773.3 10.8998C813.9 75.0998 837.3 162.9 848.1 211.9C854.6 241.7 850.7 273.1 836.5 300.1C833.7 305.4 830.6 310.2 827.4 313.9C810.7 332 790.7 345 764 344.8Z" stroke="#00233A" stroke-width="10" stroke-miterlimit="10" stroke-linecap="round" stroke-linejoin="round"/>
<path d="M764 288L806 257.7" stroke="#00233A" stroke-width="10" stroke-miterlimit="10" stroke-linecap="round" stroke-linejoin="round"/>
<path d="M764 246L726.5 217" stroke="#00233A" stroke-width="10" stroke-miterlimit="10" stroke-linecap="round" stroke-linejoin="round"/>
<path d="M670.9 372.8H607C588.2 372.8 572.9 357.5 572.9 338.7V218.7C572.9 199.9 588.2 184.6 607 184.6H670.8C689.6 184.6 704.9 199.9 704.9 218.7V338.7C705 357.5 689.7 372.8 670.9 372.8Z" fill="#E97E1C"/>
<path opacity="0.74" d="M669.9 184.6H654.9C673.7 184.6 689 199.9 689 218.7V338.7C689 357.5 673.7 372.8 654.9 372.8H669.9C688.7 372.8 704 357.5 704 338.7V218.7C704 199.8 688.7 184.6 669.9 184.6Z" fill="#E8531F"/>
<path d="M670.9 372.8H607C588.2 372.8 572.9 357.5 572.9 338.7V218.7C572.9 199.9 588.2 184.6 607 184.6H670.8C689.6 184.6 704.9 199.9 704.9 218.7V338.7C705 357.5 689.7 372.8 670.9 372.8Z" stroke="#00233A" stroke-width="10" stroke-miterlimit="10" stroke-linecap="round" stroke-linejoin="round"/>
<path d="M639 344.8L667 319" stroke="#00233A" stroke-width="10" stroke-miterlimit="10" stroke-linecap="round" stroke-linejoin="round"/>
<path d="M639 302L608 288" stroke="#00233A" stroke-width="10" stroke-miterlimit="10" stroke-linecap="round" stroke-linejoin="round"/>
<path d="M764 457V175" stroke="#00233A" stroke-width="10" stroke-miterlimit="10" stroke-linecap="round" stroke-linejoin="round"/>
<path d="M639 258V457" stroke="#00233A" stroke-width="10" stroke-miterlimit="10" stroke-linecap="round" stroke-linejoin="round"/>
<path d="M164.7 345.8C197.837 345.8 224.7 274.165 224.7 185.8C224.7 97.4342 197.837 25.7998 164.7 25.7998C131.563 25.7998 104.7 97.4342 104.7 185.8C104.7 274.165 131.563 345.8 164.7 345.8Z" fill="#FFB845"/>
<path opacity="0.53" d="M164.7 25.7998C164.2 25.7998 163.7 25.7998 163.1 25.8998C190.8 40.0998 211.7 105 211.7 183C211.7 270 185.7 340.7 153.3 342.9C157 344.8 160.8 345.8 164.7 345.8C197.8 345.8 224.7 274.2 224.7 185.8C224.7 97.3998 197.8 25.7998 164.7 25.7998Z" fill="#D89535"/>
<path d="M164.7 345.8C197.837 345.8 224.7 274.165 224.7 185.8C224.7 97.4342 197.837 25.7998 164.7 25.7998C131.563 25.7998 104.7 97.4342 104.7 185.8C104.7 274.165 131.563 345.8 164.7 345.8Z" stroke="#00233A" stroke-width="10" stroke-miterlimit="10" stroke-linecap="round" stroke-linejoin="round"/>
<path d="M164.4 133V446" stroke="#00233A" stroke-width="10" stroke-miterlimit="10" stroke-linecap="round" stroke-linejoin="round"/>
<path d="M164.7 231L188.4 200" stroke="#00233A" stroke-width="10" stroke-miterlimit="10" stroke-linecap="round" stroke-linejoin="round"/>
<path d="M164.7 292L139.1 265.3" stroke="#00233A" stroke-width="10" stroke-miterlimit="10" stroke-linecap="round" stroke-linejoin="round"/>
<path d="M164.4 185.3L143.7 162" stroke="#00233A" stroke-width="10" stroke-miterlimit="10" stroke-linecap="round" stroke-linejoin="round"/>
<path opacity="0.6" d="M194.7 167.9C199.284 167.9 203 164.184 203 159.6C203 155.016 199.284 151.3 194.7 151.3C190.116 151.3 186.4 155.016 186.4 159.6C186.4 164.184 190.116 167.9 194.7 167.9Z" fill="#EF8C3A"/>
<path d="M139.1 126.3C142.027 126.3 144.4 123.927 144.4 121C144.4 118.073 142.027 115.7 139.1 115.7C136.173 115.7 133.8 118.073 133.8 121C133.8 123.927 136.173 126.3 139.1 126.3Z" fill="#FFD766"/>
<path d="M173.6 114.1C176.085 114.1 178.1 112.085 178.1 109.6C178.1 107.114 176.085 105.1 173.6 105.1C171.115 105.1 169.1 107.114 169.1 109.6C169.1 112.085 171.115 114.1 173.6 114.1Z" fill="#FFD766"/>
<path opacity="0.38" d="M609.8 235.9C615.433 235.9 620 231.333 620 225.7C620 220.067 615.433 215.5 609.8 215.5C604.167 215.5 599.6 220.067 599.6 225.7C599.6 231.333 604.167 235.9 609.8 235.9Z" fill="#FFB845"/>
<path opacity="0.38" d="M641.8 238.9C645.832 238.9 649.1 235.632 649.1 231.6C649.1 227.568 645.832 224.3 641.8 224.3C637.768 224.3 634.5 227.568 634.5 231.6C634.5 235.632 637.768 238.9 641.8 238.9Z" fill="#FFB845"/>
<path opacity="0.74" d="M609.8 329.8C613.832 329.8 617.1 326.532 617.1 322.5C617.1 318.469 613.832 315.2 609.8 315.2C605.768 315.2 602.5 318.469 602.5 322.5C602.5 326.532 605.768 329.8 609.8 329.8Z" fill="#E8531F"/>
<path opacity="0.74" d="M663.5 270.2C666.869 270.2 669.6 267.469 669.6 264.1C669.6 260.731 666.869 258 663.5 258C660.131 258 657.4 260.731 657.4 264.1C657.4 267.469 660.131 270.2 663.5 270.2Z" fill="#E8531F"/>
<path opacity="0.6" d="M133 223.8C137.584 223.8 141.3 220.084 141.3 215.5C141.3 210.916 137.584 207.2 133 207.2C128.416 207.2 124.7 210.916 124.7 215.5C124.7 220.084 128.416 223.8 133 223.8Z" fill="#EF8C3A"/>
<path opacity="0.6" d="M151.7 99.6C156.284 99.6 160 95.884 160 91.3C160 86.716 156.284 83 151.7 83C147.116 83 143.4 86.716 143.4 91.3C143.4 95.884 147.116 99.6 151.7 99.6Z" fill="#EF8C3A"/>
<path opacity="0.6" d="M188.7 265.6C193.284 265.6 197 261.884 197 257.3C197 252.716 193.284 249 188.7 249C184.116 249 180.4 252.716 180.4 257.3C180.4 261.884 184.116 265.6 188.7 265.6Z" fill="#EF8C3A"/>
<path d="M218.3 109.5C231.113 109.5 241.5 99.1126 241.5 86.2996C241.5 73.4866 231.113 63.0996 218.3 63.0996C205.487 63.0996 195.1 73.4866 195.1 86.2996C195.1 99.1126 205.487 109.5 218.3 109.5Z" fill="#FF9F48"/>
<path d="M218.3 63.0996C218.1 63.0996 218 63.0996 217.8 63.0996C224.5 67.1996 229 74.5996 229 82.9996C229 95.5996 218.9 105.9 206.3 106.2C209.8 108.3 213.9 109.5 218.3 109.5C231.1 109.5 241.5 99.0996 241.5 86.2996C241.5 73.4996 231.1 63.0996 218.3 63.0996Z" fill="#EF8C3A"/>
<path d="M218.3 109.5C231.113 109.5 241.5 99.1126 241.5 86.2996C241.5 73.4866 231.113 63.0996 218.3 63.0996C205.487 63.0996 195.1 73.4866 195.1 86.2996C195.1 99.1126 205.487 109.5 218.3 109.5Z" stroke="#00233A" stroke-width="10" stroke-miterlimit="10" stroke-linecap="round" stroke-linejoin="round"/>
<path d="M605.5 457C605.5 430.8 626.7 409.7 652.8 409.7C678.9 409.7 700.1 430.8 700.1 457H605.5Z" fill="#FF6550"/>
<path opacity="0.4" d="M652.8 409.7C647.9 409.7 643.3 410.4 638.8 411.8C658.1 417.7 672.1 435.7 672.1 457H700C700.1 430.8 678.9 409.7 652.8 409.7Z" fill="#FF7364"/>
<path d="M605.5 457C605.5 430.8 626.7 409.7 652.8 409.7C678.9 409.7 700.1 430.8 700.1 457H605.5Z" stroke="#00233A" stroke-width="10" stroke-miterlimit="10" stroke-linecap="round" stroke-linejoin="round"/>
<path d="M676.9 457C676.9 439.6 690.9 425.7 708.2 425.7C725.5 425.7 739.5 439.7 739.5 457H676.9Z" fill="#FFB845"/>
<path opacity="0.53" d="M708.2 425.7C705.7 425.7 703.3 426 701 426.5C714.8 429.7 725.2 442.1 725.2 457H739.6C739.6 439.6 725.5 425.7 708.2 425.7Z" fill="#D89535"/>
<path d="M676.9 457C676.9 439.6 690.9 425.7 708.2 425.7C725.5 425.7 739.5 439.7 739.5 457H676.9Z" stroke="#00233A" stroke-width="10" stroke-miterlimit="10" stroke-linecap="round" stroke-linejoin="round"/>
<path d="M749.6 457C749.6 444.3 759.8 434.2 772.4 434.2C785 434.2 795.2 444.4 795.2 457H749.6Z" fill="#FFB845"/>
<path d="M749.6 457C749.6 444.3 759.8 434.2 772.4 434.2C785 434.2 795.2 444.4 795.2 457H749.6Z" stroke="#00233A" stroke-width="10" stroke-miterlimit="10" stroke-linecap="round" stroke-linejoin="round"/>
<path d="M196.7 457C196.7 444.4 206.9 434.2 219.5 434.2C232.1 434.2 242.3 444.4 242.3 457H196.7Z" fill="#FFB845"/>
<path d="M196.7 457C196.7 444.4 206.9 434.2 219.5 434.2C232.1 434.2 242.3 444.4 242.3 457H196.7Z" stroke="#00233A" stroke-width="10" stroke-miterlimit="10" stroke-linecap="round" stroke-linejoin="round"/>
<path d="M311.9 457C311.9 448.9 318.4 442.4 326.5 442.4C334.6 442.4 341.1 448.9 341.1 457H311.9Z" fill="#00233A"/>
<path d="M286.3 455.7C286.3 449 291.7 443.6 298.4 443.6C305.1 443.6 310.5 449 310.5 455.7H286.3Z" fill="#00233A"/>
<path d="M311.9 457C311.9 448.9 318.4 442.4 326.5 442.4C334.6 442.4 341.1 448.9 341.1 457H311.9Z" stroke="#00233A" stroke-width="10" stroke-miterlimit="10" stroke-linecap="round" stroke-linejoin="round"/>
<path d="M348.8 457C348.8 444.4 359 434.2 371.6 434.2C384.2 434.2 394.4 444.4 394.4 457H348.8Z" fill="#00233A"/>
<path d="M543.1 456.3C543.1 447.6 550.1 440.6 558.8 440.6C567.5 440.6 574.5 447.6 574.5 456.3H543.1Z" fill="#00233A"/>
<path d="M502.1 456.3C502.1 444.9 511.4 435.6 522.8 435.6C534.2 435.6 543.5 444.9 543.5 456.3H502.1Z" fill="#00233A"/>
<path d="M348.8 457C348.8 444.4 359 434.2 371.6 434.2C384.2 434.2 394.4 444.4 394.4 457H348.8Z" stroke="#00233A" stroke-width="10" stroke-miterlimit="10" stroke-linecap="round" stroke-linejoin="round"/>
<path d="M489.7 457H835.4" stroke="#00233A" stroke-width="10" stroke-miterlimit="10" stroke-linecap="round" stroke-linejoin="round"/>
<path d="M447.4 457H472.4" stroke="#00233A" stroke-width="10" stroke-miterlimit="10" stroke-linecap="round" stroke-linejoin="round"/>
<path d="M72.4 457H432.4" stroke="#00233A" stroke-width="10" stroke-miterlimit="10" stroke-linecap="round" stroke-linejoin="round"/>
<path d="M316 407.5H296V457H316V407.5Z" fill="#81440E"/>
<path d="M316 407.5H296V457H316V407.5Z" fill="#81440E"/>
<path d="M316 407.5H296V422.7H316V407.5Z" fill="#663717"/>
<path d="M522.8 407.5H502.8V457H522.8V407.5Z" fill="#81440E"/>
<path d="M522.8 407.5H502.8V422.7H522.8V407.5Z" fill="#663717"/>
<path d="M316 407.5H296V457H316V407.5Z" stroke="#00233A" stroke-width="10" stroke-miterlimit="10" stroke-linecap="round" stroke-linejoin="round"/>
<path d="M522.8 407.5H502.8V457H522.8V407.5Z" stroke="#00233A" stroke-width="10" stroke-miterlimit="10" stroke-linecap="round" stroke-linejoin="round"/>
<path d="M322.9 278.9H308.9V385H322.9V278.9Z" fill="#81440E"/>
<path d="M322.9 300.2H308.9V368H322.9V300.2Z" fill="#663717"/>
<path d="M322.9 278.9H308.9V385H322.9V278.9Z" stroke="#00233A" stroke-width="10" stroke-miterlimit="10" stroke-linecap="round" stroke-linejoin="round"/>
<path d="M509.9 278.9H495.9V385H509.9V278.9Z" fill="#81440E"/>
<path d="M509.9 295H495.9V368H509.9V295Z" fill="#663717"/>
<path d="M509.9 278.9H495.9V385H509.9V278.9Z" stroke="#00233A" stroke-width="10" stroke-miterlimit="10" stroke-linecap="round" stroke-linejoin="round"/>
<path d="M543.2 295.101H263.2V325.101H543.2V295.101Z" fill="#81440E"/>
<path d="M543.2 295.101H263.2V305.301H543.2V295.101Z" fill="#A05720"/>
<path d="M543.2 295.101H263.2V325.101H543.2V295.101Z" stroke="#00233A" stroke-width="10" stroke-miterlimit="10" stroke-linecap="round" stroke-linejoin="round"/>
<path d="M543.2 325.101H263.2V355.101H543.2V325.101Z" fill="#81440E"/>
<path d="M543.2 325.101H263.2V334.801H543.2V325.101Z" fill="#A05720"/>
<path d="M543.2 325.101H263.2V355.101H543.2V325.101Z" stroke="#00233A" stroke-width="10" stroke-miterlimit="10" stroke-linecap="round" stroke-linejoin="round"/>
<path d="M577.6 387.5H241.2V407.5H577.6V387.5Z" fill="#81440E"/>
<path d="M577.6 387.5H241.2V407.5H577.6V387.5Z" fill="#81440E"/>
<path d="M577.6 387.5H241.2V395.5H577.6V387.5Z" fill="#A05720"/>
<path d="M577.6 387.5H241.2V407.5H577.6V387.5Z" stroke="#00233A" stroke-width="10" stroke-miterlimit="10" stroke-linecap="round" stroke-linejoin="round"/>
<path d="M317.2 316.5C320.127 316.5 322.5 314.127 322.5 311.2C322.5 308.273 320.127 305.9 317.2 305.9C314.273 305.9 311.9 308.273 311.9 311.2C311.9 314.127 314.273 316.5 317.2 316.5Z" fill="#663717"/>
<path d="M317.2 344.3C320.127 344.3 322.5 341.927 322.5 339C322.5 336.073 320.127 333.7 317.2 333.7C314.273 333.7 311.9 336.073 311.9 339C311.9 341.927 314.273 344.3 317.2 344.3Z" fill="#663717"/>
<path d="M504.2 316.5C507.127 316.5 509.5 314.127 509.5 311.2C509.5 308.273 507.127 305.9 504.2 305.9C501.273 305.9 498.9 308.273 498.9 311.2C498.9 314.127 501.273 316.5 504.2 316.5Z" fill="#663717"/>
<path d="M504.2 344.3C507.127 344.3 509.5 341.927 509.5 339C509.5 336.073 507.127 333.7 504.2 333.7C501.273 333.7 498.9 336.073 498.9 339C498.9 341.927 501.273 344.3 504.2 344.3Z" fill="#663717"/>
<path d="M315.9 315.2C318.109 315.2 319.9 313.409 319.9 311.2C319.9 308.991 318.109 307.2 315.9 307.2C313.691 307.2 311.9 308.991 311.9 311.2C311.9 313.409 313.691 315.2 315.9 315.2Z" fill="#00233A"/>
<path d="M315.9 343C318.109 343 319.9 341.209 319.9 339C319.9 336.791 318.109 335 315.9 335C313.691 335 311.9 336.791 311.9 339C311.9 341.209 313.691 343 315.9 343Z" fill="#00233A"/>
<path d="M502.9 315.2C505.109 315.2 506.9 313.409 506.9 311.2C506.9 308.991 505.109 307.2 502.9 307.2C500.691 307.2 498.9 308.991 498.9 311.2C498.9 313.409 500.691 315.2 502.9 315.2Z" fill="#00233A"/>
<path d="M502.9 343C505.109 343 506.9 341.209 506.9 339C506.9 336.791 505.109 335 502.9 335C500.691 335 498.9 336.791 498.9 339C498.9 341.209 500.691 343 502.9 343Z" fill="#00233A"/>
<path d="M558.8 486.1H564.9" stroke="#00233A" stroke-width="10" stroke-miterlimit="10" stroke-linecap="round" stroke-linejoin="round"/>
<path d="M405.7 486.1H539.1" stroke="#00233A" stroke-width="10" stroke-miterlimit="10" stroke-linecap="round" stroke-linejoin="round"/>
<path d="M359.4 486.1H382.3" stroke="#00233A" stroke-width="10" stroke-miterlimit="10" stroke-linecap="round" stroke-linejoin="round"/>
<path d="M575.9 63.0996H587.4" stroke="#00233A" stroke-width="10" stroke-miterlimit="10" stroke-linecap="round" stroke-linejoin="round"/>
<path d="M608.4 63.0996H644.9" stroke="#00233A" stroke-width="10" stroke-miterlimit="10" stroke-linecap="round" stroke-linejoin="round"/>
<path d="M5.5 139.2H40" stroke="#00233A" stroke-width="10" stroke-miterlimit="10" stroke-linecap="round" stroke-linejoin="round"/>
<path d="M56.3 139.2H74.5" stroke="#00233A" stroke-width="10" stroke-miterlimit="10" stroke-linecap="round" stroke-linejoin="round"/>
<path d="M901.2 130.1H908" stroke="#00233A" stroke-width="10" stroke-miterlimit="10" stroke-linecap="round" stroke-linejoin="round"/>
<path d="M865.6 130.1H885.3" stroke="#00233A" stroke-width="10" stroke-miterlimit="10" stroke-linecap="round" stroke-linejoin="round"/>
<path d="M614.6 99.7002H675.2" stroke="#00233A" stroke-width="10" stroke-miterlimit="10" stroke-linecap="round" stroke-linejoin="round"/>
<path d="M363 116.6C362.9 115.8 362.8 114.9 362.8 114C362.8 105.1 370 97.7998 379 97.7998C387.9 97.7998 395.2 105 395.2 114C395.2 122.9 388 130.2 379 130.2" stroke="#00233A" stroke-width="10" stroke-miterlimit="10" stroke-linecap="round" stroke-linejoin="round"/>
<path d="M309.8 130.1H379" stroke="#00233A" stroke-width="10" stroke-miterlimit="10" stroke-linecap="round" stroke-linejoin="round"/>
<path d="M833.5 85.5998C833.4 84.7998 833.3 83.8998 833.3 82.9998C833.3 74.0998 840.5 66.7998 849.5 66.7998C858.5 66.7998 865.7 73.9998 865.7 82.9998C865.7 91.9998 858.5 99.1998 849.5 99.1998" stroke="#00233A" stroke-width="10" stroke-miterlimit="10" stroke-linecap="round" stroke-linejoin="round"/>
<path d="M790.4 99.2002H849.4" stroke="#00233A" stroke-width="10" stroke-miterlimit="10" stroke-linecap="round" stroke-linejoin="round"/>
<path d="M405.3 173.1C405.2 173.9 405.1 174.8 405.1 175.7C405.1 184.6 412.3 191.9 421.3 191.9C430.3 191.9 437.5 184.7 437.5 175.7C437.5 166.7 430.3 159.5 421.3 159.5" stroke="#00233A" stroke-width="10" stroke-miterlimit="10" stroke-linecap="round" stroke-linejoin="round"/>
<path d="M359.6 159.6H421.2" stroke="#00233A" stroke-width="10" stroke-miterlimit="10" stroke-linecap="round" stroke-linejoin="round"/>
<path d="M337.4 159.6H344.7" stroke="#00233A" stroke-width="10" stroke-miterlimit="10" stroke-linecap="round" stroke-linejoin="round"/>
<path d="M283.7 159.6H319.4" stroke="#00233A" stroke-width="10" stroke-miterlimit="10" stroke-linecap="round" stroke-linejoin="round"/>
<path d="M324.3 110.1H260.2" stroke="#00233A" stroke-width="10" stroke-miterlimit="10" stroke-linecap="round" stroke-linejoin="round"/>
<path d="M56.3 91.0996H80.5" stroke="#00233A" stroke-width="10" stroke-miterlimit="10" stroke-linecap="round" stroke-linejoin="round"/>
<path d="M848.7 234.3C861.844 234.3 872.5 223.645 872.5 210.5C872.5 197.356 861.844 186.7 848.7 186.7C835.556 186.7 824.9 197.356 824.9 210.5C824.9 223.645 835.556 234.3 848.7 234.3Z" fill="#EF4D3C"/>
<path d="M848.7 234.3C861.844 234.3 872.5 223.645 872.5 210.5C872.5 197.356 861.844 186.7 848.7 186.7C835.556 186.7 824.9 197.356 824.9 210.5C824.9 223.645 835.556 234.3 848.7 234.3Z" stroke="#00233A" stroke-width="10" stroke-miterlimit="10" stroke-linecap="round" stroke-linejoin="round"/>
<path d="M124.7 457C143.643 457 159 431.883 159 400.9C159 369.917 143.643 344.8 124.7 344.8C105.757 344.8 90.4 369.917 90.4 400.9C90.4 431.883 105.757 457 124.7 457Z" fill="#E97E1C"/>
<path opacity="0.74" d="M124.7 344.8C123.9 344.8 123.1 344.9 122.4 344.9C135.8 352.5 145.4 373.4 145.4 397.8C145.4 427.5 131.3 451.8 113.4 453.7C116.9 455.7 120.8 456.8 124.7 456.8C143.6 456.8 159 431.7 159 400.7C159 369.9 143.6 344.8 124.7 344.8Z" fill="#E8531F"/>
<path d="M124.7 457C143.643 457 159 431.883 159 400.9C159 369.917 143.643 344.8 124.7 344.8C105.757 344.8 90.4 369.917 90.4 400.9C90.4 431.883 105.757 457 124.7 457Z" stroke="#00233A" stroke-width="10" stroke-miterlimit="10" stroke-linecap="round" stroke-linejoin="round"/>
<path d="M128.3 457C128.3 438 143.6 422.7 162.6 422.7C181.6 422.7 196.9 438 196.9 457H128.3Z" fill="#FF6550"/>
<path opacity="0.4" d="M162.5 422.7C159.5 422.7 156.7 423.1 153.9 423.8C168.7 427.6 179.6 441 179.6 457H196.8C196.8 438 181.4 422.7 162.5 422.7Z" fill="#FF7364"/>
<path d="M128.3 457C128.3 438 143.6 422.7 162.6 422.7C181.6 422.7 196.9 438 196.9 457H128.3Z" stroke="#00233A" stroke-width="10" stroke-miterlimit="10" stroke-linecap="round" stroke-linejoin="round"/>
<path opacity="0.91" d="M753.2 120.9C757.563 120.9 761.1 117.363 761.1 113C761.1 108.637 757.563 105.1 753.2 105.1C748.837 105.1 745.3 108.637 745.3 113C745.3 117.363 748.837 120.9 753.2 120.9Z" fill="#FF6550"/>
<path opacity="0.91" d="M736.7 159.6C742.333 159.6 746.9 155.033 746.9 149.4C746.9 143.767 742.333 139.2 736.7 139.2C731.067 139.2 726.5 143.767 726.5 149.4C726.5 155.033 731.067 159.6 736.7 159.6Z" fill="#FF6550"/>
<path opacity="0.91" d="M790.4 241.2C796.033 241.2 800.6 236.633 800.6 231C800.6 225.367 796.033 220.8 790.4 220.8C784.767 220.8 780.2 225.367 780.2 231C780.2 236.633 784.767 241.2 790.4 241.2Z" fill="#FF6550"/>
<path opacity="0.4" d="M795.2 185.9C800.833 185.9 805.4 181.333 805.4 175.7C805.4 170.067 800.833 165.5 795.2 165.5C789.567 165.5 785 170.067 785 175.7C785 181.333 789.567 185.9 795.2 185.9Z" fill="#FF7364"/>
<path opacity="0.38" d="M121.7 395.8C126.284 395.8 130 392.084 130 387.5C130 382.916 126.284 379.2 121.7 379.2C117.116 379.2 113.4 382.916 113.4 387.5C113.4 392.084 117.116 395.8 121.7 395.8Z" fill="#FFB845"/>
<path opacity="0.6" d="M109.6 406.7C112.306 406.7 114.5 404.507 114.5 401.8C114.5 399.094 112.306 396.9 109.6 396.9C106.894 396.9 104.7 399.094 104.7 401.8C104.7 404.507 106.894 406.7 109.6 406.7Z" fill="#E8531F"/>
<path opacity="0.38" d="M130 420.9C133.203 420.9 135.8 418.303 135.8 415.1C135.8 411.897 133.203 409.3 130 409.3C126.797 409.3 124.2 411.897 124.2 415.1C124.2 418.303 126.797 420.9 130 420.9Z" fill="#FFB845"/>
</svg>
