<svg width="671" height="604" viewBox="0 0 671 604" fill="none" xmlns="http://www.w3.org/2000/svg">
<path d="M351.6 276.7H327.4C326.2 276.7 325.3 275.7 325.3 274.6V223.6C325.3 222.4 326.3 221.5 327.4 221.5H351.6C352.8 221.5 353.7 222.5 353.7 223.6V274.6C353.7 275.7 352.8 276.7 351.6 276.7Z" fill="#4E5A7D"/>
<path d="M351.6 276.7H327.4C326.2 276.7 325.3 275.7 325.3 274.6V223.6C325.3 222.4 326.3 221.5 327.4 221.5H351.6C352.8 221.5 353.7 222.5 353.7 223.6V274.6C353.7 275.7 352.8 276.7 351.6 276.7Z" stroke="#4E5A7D" stroke-width="6" stroke-miterlimit="10" stroke-linecap="round" stroke-linejoin="round"/>
<path d="M383.2 243.699H295.8C286.4 243.699 278.7 236.099 278.7 226.599V216.299C278.7 206.899 286.3 199.199 295.8 199.199H383.2C392.6 199.199 400.3 206.799 400.3 216.299V226.599C400.2 235.999 392.6 243.699 383.2 243.699Z" fill="#BCAFAA"/>
<path d="M383.2 234.4H295.8C286.4 234.4 278.7 226.8 278.7 217.3V226.6C278.7 236 286.3 243.7 295.8 243.7H383.2C392.6 243.7 400.3 236.1 400.3 226.6V217.3C400.2 226.8 392.6 234.4 383.2 234.4Z" fill="#A09592"/>
<path d="M383.2 199.3H295.8C286.4 199.3 278.7 206.9 278.7 216.4V226.6C278.7 226.8 278.7 226.9 278.7 227.1C279 217.9 286.5 210.6 295.7 210.6H383.2C392.4 210.6 399.9 218 400.2 227.1C400.2 226.9 400.2 226.8 400.2 226.6V216.3C400.2 206.9 392.6 199.3 383.2 199.3Z" fill="#D1CAC7"/>
<path d="M383.2 243.699H295.8C286.4 243.699 278.7 236.099 278.7 226.599V216.299C278.7 206.899 286.3 199.199 295.8 199.199H383.2C392.6 199.199 400.3 206.799 400.3 216.299V226.599C400.2 235.999 392.6 243.699 383.2 243.699Z" stroke="#4E5A7D" stroke-width="6" stroke-miterlimit="10" stroke-linecap="round" stroke-linejoin="round"/>
<path d="M436.498 278.337L420.91 269.337L404.91 297.049L420.498 306.049L436.498 278.337Z" fill="#4E5A7D"/>
<path d="M436.498 278.337L420.91 269.337L404.91 297.049L420.498 306.049L436.498 278.337Z" stroke="#4E5A7D" stroke-width="6" stroke-miterlimit="10" stroke-linecap="round" stroke-linejoin="round"/>
<path d="M440.2 280.499L417.2 267.199C412.4 264.399 410.8 258.399 413.6 253.599L414.4 252.199C417.2 247.399 423.2 245.799 428 248.599L451 261.899C455.8 264.699 457.4 270.699 454.6 275.499L453.8 276.899C451.1 281.599 445 283.299 440.2 280.499Z" fill="#E08484"/>
<path d="M440.2 280.499L417.2 267.199C412.4 264.399 410.8 258.399 413.6 253.599L414.4 252.199C417.2 247.399 423.2 245.799 428 248.599L451 261.899C455.8 264.699 457.4 270.699 454.6 275.499L453.8 276.899C451.1 281.599 445 283.299 440.2 280.499Z" fill="#E08484"/>
<path d="M412.5 258.899L413.3 257.499C416.1 252.699 422.1 251.099 426.9 253.899L449.9 267.199C452.6 268.799 454.3 271.399 454.8 274.199C457.3 269.499 455.7 263.499 451 260.799L428 247.499C423.2 244.699 417.1 246.399 414.4 251.099L413.6 252.499C412.4 254.599 412 256.899 412.4 259.099C412.4 259.099 412.4 258.999 412.5 258.899Z" fill="#E99697"/>
<path d="M440.2 280.499L417.2 267.199C412.4 264.399 410.8 258.399 413.6 253.599L414.4 252.199C417.2 247.399 423.2 245.799 428 248.599L451 261.899C455.8 264.699 457.4 270.699 454.6 275.499L453.8 276.899C451.1 281.599 445 283.299 440.2 280.499Z" stroke="#4E5A7D" stroke-width="6" stroke-miterlimit="10" stroke-linecap="round" stroke-linejoin="round"/>
<path d="M259.937 306.138L275.525 297.138L259.525 269.426L243.937 278.426L259.937 306.138Z" fill="#4E5A7D"/>
<path d="M259.937 306.138L275.525 297.138L259.525 269.426L243.937 278.426L259.937 306.138Z" stroke="#4E5A7D" stroke-width="6" stroke-miterlimit="10" stroke-linecap="round" stroke-linejoin="round"/>
<path d="M240.2 280.499L263.2 267.199C268 264.399 269.6 258.399 266.8 253.599L266 252.199C263.2 247.399 257.2 245.799 252.4 248.599L229.4 261.899C224.6 264.699 223 270.699 225.8 275.499L226.6 276.899C229.3 281.599 235.4 283.299 240.2 280.499Z" fill="#E08484"/>
<path d="M240.2 280.499L263.2 267.199C268 264.399 269.6 258.399 266.8 253.599L266 252.199C263.2 247.399 257.2 245.799 252.4 248.599L229.4 261.899C224.6 264.699 223 270.699 225.8 275.499L226.6 276.899C229.3 281.599 235.4 283.299 240.2 280.499Z" fill="#E08484"/>
<path d="M229.8 268.199L252.8 254.899C257.6 252.099 263.7 253.799 266.4 258.499L267.2 259.899C267.4 260.299 267.6 260.799 267.8 261.199C268.5 258.699 268.2 255.999 266.8 253.599L266 252.199C263.2 247.399 257.2 245.799 252.4 248.599L229.4 261.899C225.1 264.399 223.3 269.699 225.1 274.199C225.8 271.799 227.4 269.599 229.8 268.199Z" fill="#E99697"/>
<path d="M240.2 280.499L263.2 267.199C268 264.399 269.6 258.399 266.8 253.599L266 252.199C263.2 247.399 257.2 245.799 252.4 248.599L229.4 261.899C224.6 264.699 223 270.699 225.8 275.499L226.6 276.899C229.3 281.599 235.4 283.299 240.2 280.499Z" stroke="#4E5A7D" stroke-width="6" stroke-miterlimit="10" stroke-linecap="round" stroke-linejoin="round"/>
<path d="M384.3 199.6V243.7" stroke="#4E5A7D" stroke-width="6" stroke-miterlimit="10" stroke-linecap="round" stroke-linejoin="round"/>
<path d="M366.3 199.6V243.7" stroke="#4E5A7D" stroke-width="6" stroke-miterlimit="10" stroke-linecap="round" stroke-linejoin="round"/>
<path d="M348.3 199.6V243.7" stroke="#4E5A7D" stroke-width="6" stroke-miterlimit="10" stroke-linecap="round" stroke-linejoin="round"/>
<path d="M330.3 199.6V243.7" stroke="#4E5A7D" stroke-width="6" stroke-miterlimit="10" stroke-linecap="round" stroke-linejoin="round"/>
<path d="M312.3 199.6V243.7" stroke="#4E5A7D" stroke-width="6" stroke-miterlimit="10" stroke-linecap="round" stroke-linejoin="round"/>
<path d="M294.3 199.6V243.7" stroke="#4E5A7D" stroke-width="6" stroke-miterlimit="10" stroke-linecap="round" stroke-linejoin="round"/>
<path d="M339.5 600.099C431.566 600.099 506.2 525.465 506.2 433.399C506.2 341.333 431.566 266.699 339.5 266.699C247.434 266.699 172.8 341.333 172.8 433.399C172.8 525.465 247.434 600.099 339.5 600.099Z" fill="#E08484"/>
<path d="M339.5 586.8C249.7 586.8 176.5 515.8 173 426.8C172.9 429 172.9 431.2 172.9 433.5C172.9 525.6 247.5 600.2 339.6 600.2C431.7 600.2 506.3 525.6 506.3 433.5C506.3 431.3 506.2 429 506.2 426.8C502.5 515.7 429.3 586.8 339.5 586.8Z" fill="#D87171"/>
<path d="M339.5 277.6C429.7 277.6 503.2 349.3 506.1 438.9C506.2 437.1 506.2 435.3 506.2 433.5C506.2 341.4 431.6 266.8 339.5 266.8C247.4 266.8 172.8 341.4 172.8 433.5C172.8 435.3 172.8 437.1 172.9 438.9C175.8 349.3 249.2 277.6 339.5 277.6Z" fill="#E99697"/>
<path d="M339.5 565.2C412.291 565.2 471.3 506.191 471.3 433.4C471.3 360.608 412.291 301.6 339.5 301.6C266.709 301.6 207.7 360.608 207.7 433.4C207.7 506.191 266.709 565.2 339.5 565.2Z" fill="#FBE3D5"/>
<path d="M339.5 548.9C269.5 548.9 212.2 494.3 208 425.3C207.8 428 207.7 430.7 207.7 433.4C207.7 506.2 266.7 565.2 339.5 565.2C412.3 565.2 471.3 506.2 471.3 433.4C471.3 430.7 471.2 428 471 425.3C466.8 494.3 409.5 548.9 339.5 548.9Z" fill="#FFF4EE"/>
<path d="M339.5 318.5C409.4 318.5 466.6 373 471 441.8C471.2 439 471.3 436.2 471.3 433.4C471.3 360.6 412.3 301.6 339.5 301.6C266.7 301.6 207.7 360.6 207.7 433.4C207.7 436.2 207.8 439 208 441.8C212.4 373 269.6 318.5 339.5 318.5Z" fill="#F9D1BD"/>
<path d="M340.2 430.699V480.299" stroke="#4E5A7D" stroke-width="13" stroke-miterlimit="10" stroke-linecap="round" stroke-linejoin="round"/>
<path d="M340.2 430.7V357.1" stroke="#4E5A7D" stroke-width="13" stroke-miterlimit="10" stroke-linecap="round" stroke-linejoin="round"/>
<path d="M339.5 565.2C412.291 565.2 471.3 506.191 471.3 433.4C471.3 360.608 412.291 301.6 339.5 301.6C266.709 301.6 207.7 360.608 207.7 433.4C207.7 506.191 266.709 565.2 339.5 565.2Z" stroke="#4E5A7D" stroke-width="6" stroke-miterlimit="10" stroke-linecap="round" stroke-linejoin="round"/>
<path d="M340.2 305.5V331.6" stroke="#4E5A7D" stroke-width="10" stroke-miterlimit="10" stroke-linecap="round" stroke-linejoin="round"/>
<path d="M340.2 535.3V561.4" stroke="#4E5A7D" stroke-width="10" stroke-miterlimit="10" stroke-linecap="round" stroke-linejoin="round"/>
<path d="M468.1 433.399H442.1" stroke="#4E5A7D" stroke-width="10" stroke-miterlimit="10" stroke-linecap="round" stroke-linejoin="round"/>
<path d="M238.3 433.399H212.3" stroke="#4E5A7D" stroke-width="10" stroke-miterlimit="10" stroke-linecap="round" stroke-linejoin="round"/>
<path d="M433 340.6L423.3 350.4" stroke="#4E5A7D" stroke-width="6" stroke-miterlimit="10" stroke-linecap="round" stroke-linejoin="round"/>
<path d="M257.1 516.5L246.7 527" stroke="#4E5A7D" stroke-width="6" stroke-miterlimit="10" stroke-linecap="round" stroke-linejoin="round"/>
<path d="M433 526.199L423.3 516.499" stroke="#4E5A7D" stroke-width="6" stroke-miterlimit="10" stroke-linecap="round" stroke-linejoin="round"/>
<path d="M257.1 350.399L246.7 339.899" stroke="#4E5A7D" stroke-width="6" stroke-miterlimit="10" stroke-linecap="round" stroke-linejoin="round"/>
<path d="M340.2 444.199C347.656 444.199 353.7 438.155 353.7 430.699C353.7 423.243 347.656 417.199 340.2 417.199C332.744 417.199 326.7 423.243 326.7 430.699C326.7 438.155 332.744 444.199 340.2 444.199Z" fill="#FBE3D5"/>
<path d="M340.2 444.199C347.656 444.199 353.7 438.155 353.7 430.699C353.7 423.243 347.656 417.199 340.2 417.199C332.744 417.199 326.7 423.243 326.7 430.699C326.7 438.155 332.744 444.199 340.2 444.199Z" stroke="#4E5A7D" stroke-width="9" stroke-miterlimit="10" stroke-linecap="round" stroke-linejoin="round"/>
<path d="M340.2 489.6C345.336 489.6 349.5 485.436 349.5 480.3C349.5 475.164 345.336 471 340.2 471C335.064 471 330.9 475.164 330.9 480.3C330.9 485.436 335.064 489.6 340.2 489.6Z" fill="#FBE3D5"/>
<path d="M340.2 489.6C345.336 489.6 349.5 485.436 349.5 480.3C349.5 475.164 345.336 471 340.2 471C335.064 471 330.9 475.164 330.9 480.3C330.9 485.436 335.064 489.6 340.2 489.6Z" stroke="#4E5A7D" stroke-width="6" stroke-miterlimit="10" stroke-linecap="round" stroke-linejoin="round"/>
<path d="M339.5 600.099C431.566 600.099 506.2 525.465 506.2 433.399C506.2 341.333 431.566 266.699 339.5 266.699C247.434 266.699 172.8 341.333 172.8 433.399C172.8 525.465 247.434 600.099 339.5 600.099Z" stroke="#4E5A7D" stroke-width="6" stroke-miterlimit="10" stroke-linecap="round" stroke-linejoin="round"/>
<path d="M360.6 107.699C335.3 110.099 309.8 110.099 284.5 107.699C274.7 106.799 266.8 100.899 265.1 93.0994C260.7 72.6994 260.7 53.1994 265.1 32.7994C266.8 25.0994 274.7 19.1994 284.5 18.1994C309.8 15.7994 335.3 15.7994 360.6 18.1994C370.4 19.0994 378.3 24.9994 380 32.7994C384.4 53.1994 384.4 72.6994 380 93.0994C378.4 100.899 370.4 106.799 360.6 107.699Z" fill="white"/>
<path d="M360.6 107.699C335.3 110.099 309.8 110.099 284.5 107.699C274.7 106.799 266.8 100.899 265.1 93.0994C260.7 72.6994 260.7 53.1994 265.1 32.7994C266.8 25.0994 274.7 19.1994 284.5 18.1994C309.8 15.7994 335.3 15.7994 360.6 18.1994C370.4 19.0994 378.3 24.9994 380 32.7994C384.4 53.1994 384.4 72.6994 380 93.0994C378.4 100.899 370.4 106.799 360.6 107.699Z" stroke="#4E5A7D" stroke-width="6" stroke-miterlimit="10" stroke-linecap="round" stroke-linejoin="round"/>
<path d="M317.8 43.6998L343 57.2998C347.7 59.8998 347.7 66.1998 343 68.7998L317.8 82.3998C313.1 84.9998 307.2 81.7998 307.2 76.6998V49.4998C307.1 44.2998 313.1 41.0998 317.8 43.6998Z" stroke="#4E5A7D" stroke-width="6" stroke-miterlimit="10" stroke-linecap="round" stroke-linejoin="round"/>
<path d="M76.1001 319.4C76.1001 319.4 31.0001 326.3 23.5001 318.7C11.2001 306.3 32.1001 301.2 30.6001 289.3C27.4001 264.4 28.9002 236.4 38.8002 223.9C38.9002 223.8 39.0001 223.7 39.1001 223.5C51.0001 208.8 72.8002 206 88.0002 217.3C88.1002 217.4 88.3001 217.5 88.4001 217.6C101.1 227.3 109.5 254 112.7 278.9C114.2 290.8 135.7 290.6 126.9 305.6C121.5 314.8 76.1001 319.4 76.1001 319.4Z" fill="white"/>
<path d="M76.1001 319.4C76.1001 319.4 31.0001 326.3 23.5001 318.7C11.2001 306.3 32.1001 301.2 30.6001 289.3C27.4001 264.4 28.9002 236.4 38.8002 223.9C38.9002 223.8 39.0001 223.7 39.1001 223.5C51.0001 208.8 72.8002 206 88.0002 217.3C88.1002 217.4 88.3001 217.5 88.4001 217.6C101.1 227.3 109.5 254 112.7 278.9C114.2 290.8 135.7 290.6 126.9 305.6C121.5 314.8 76.1001 319.4 76.1001 319.4Z" stroke="#4E5A7D" stroke-width="6" stroke-miterlimit="10" stroke-linecap="round" stroke-linejoin="round"/>
<path d="M97.9004 281.3C98.8004 288.2 101.9 293.3 105.4 297.1" stroke="#4E5A7D" stroke-width="4" stroke-miterlimit="10" stroke-linecap="round" stroke-linejoin="round"/>
<path d="M80.4004 232L80.6004 232.2C85.6004 236 92.1004 249.9 96.0004 269.6" stroke="#4E5A7D" stroke-width="4" stroke-miterlimit="10" stroke-linecap="round" stroke-linejoin="round"/>
<path d="M89.6001 317.7C90.5001 325 85.2001 331.7 77.8001 332.6C70.4001 333.5 63.6001 328.4 62.6001 321.1L89.6001 317.7Z" fill="white"/>
<path d="M89.6001 317.7C90.5001 325 85.2001 331.7 77.8001 332.6C70.4001 333.5 63.6001 328.4 62.6001 321.1L89.6001 317.7Z" stroke="#4E5A7D" stroke-width="6" stroke-miterlimit="10" stroke-linecap="round" stroke-linejoin="round"/>
<path d="M129.3 280.099L136.6 277.199" stroke="white" stroke-width="2" stroke-miterlimit="10" stroke-linecap="round" stroke-linejoin="round"/>
<path d="M122.5 275.6L125.1 267.1" stroke="white" stroke-width="2" stroke-miterlimit="10" stroke-linecap="round" stroke-linejoin="round"/>
<path d="M125.9 277.199L133.4 268.699" stroke="white" stroke-width="2" stroke-miterlimit="10" stroke-linecap="round" stroke-linejoin="round"/>
<path d="M383 16.2002L391.6 12.7002" stroke="white" stroke-width="2" stroke-miterlimit="10" stroke-linecap="round" stroke-linejoin="round"/>
<path d="M375.2 10.9L378.1 1" stroke="white" stroke-width="2" stroke-miterlimit="10" stroke-linecap="round" stroke-linejoin="round"/>
<path d="M379.1 12.7004L387.8 2.90039" stroke="white" stroke-width="2" stroke-miterlimit="10" stroke-linecap="round" stroke-linejoin="round"/>
<path d="M642.5 189.7L651 186.3" stroke="white" stroke-width="2" stroke-miterlimit="10" stroke-linecap="round" stroke-linejoin="round"/>
<path d="M634.6 184.5L637.6 174.5" stroke="white" stroke-width="2" stroke-miterlimit="10" stroke-linecap="round" stroke-linejoin="round"/>
<path d="M638.6 186.3L647.3 176.4" stroke="white" stroke-width="2" stroke-miterlimit="10" stroke-linecap="round" stroke-linejoin="round"/>
<path d="M17.0001 294.9L15.1001 287" stroke="white" stroke-width="2" stroke-miterlimit="10" stroke-linecap="round" stroke-linejoin="round"/>
<path d="M11.3 301.2L1 299.2" stroke="white" stroke-width="2" stroke-miterlimit="10" stroke-linecap="round" stroke-linejoin="round"/>
<path d="M13.3999 297.9L5.8999 289" stroke="white" stroke-width="2" stroke-miterlimit="10" stroke-linecap="round" stroke-linejoin="round"/>
<path d="M620.8 293.199C594.7 294.399 568.5 294.399 542.3 293.199C533.2 292.799 525.9 285.299 525.9 276.199V217.599C525.9 208.399 533.1 200.999 542.3 200.599C568.4 199.399 594.6 199.399 620.8 200.599C629.9 200.999 637.2 208.499 637.2 217.599V276.199C637.2 285.299 629.9 292.799 620.8 293.199Z" fill="white"/>
<path d="M620.8 293.199C594.7 294.399 568.5 294.399 542.3 293.199C533.2 292.799 525.9 285.299 525.9 276.199V217.599C525.9 208.399 533.1 200.999 542.3 200.599C568.4 199.399 594.6 199.399 620.8 200.599C629.9 200.999 637.2 208.499 637.2 217.599V276.199C637.2 285.299 629.9 292.799 620.8 293.199Z" stroke="#4E5A7D" stroke-width="6" stroke-miterlimit="10" stroke-linecap="round" stroke-linejoin="round"/>
<path d="M541.1 264.9L564.9 234.2L593.1 254.5L621.4 227.6" stroke="#4E5A7D" stroke-width="6" stroke-miterlimit="10" stroke-linecap="round" stroke-linejoin="round"/>
<path d="M541.1 271.499C544.359 271.499 547 268.858 547 265.599C547 262.341 544.359 259.699 541.1 259.699C537.842 259.699 535.2 262.341 535.2 265.599C535.2 268.858 537.842 271.499 541.1 271.499Z" fill="white"/>
<path d="M541.1 271.499C544.359 271.499 547 268.858 547 265.599C547 262.341 544.359 259.699 541.1 259.699C537.842 259.699 535.2 262.341 535.2 265.599C535.2 268.858 537.842 271.499 541.1 271.499Z" stroke="#4E5A7D" stroke-width="6" stroke-miterlimit="10" stroke-linecap="round" stroke-linejoin="round"/>
<path d="M565.4 241C569.101 241 572.1 238 572.1 234.3C572.1 230.599 569.101 227.6 565.4 227.6C561.7 227.6 558.7 230.599 558.7 234.3C558.7 238 561.7 241 565.4 241Z" fill="white"/>
<path d="M565.4 241C569.101 241 572.1 238 572.1 234.3C572.1 230.599 569.101 227.6 565.4 227.6C561.7 227.6 558.7 230.599 558.7 234.3C558.7 238 561.7 241 565.4 241Z" stroke="#4E5A7D" stroke-width="6" stroke-miterlimit="10" stroke-linecap="round" stroke-linejoin="round"/>
<path d="M593 259.7C597.032 259.7 600.3 256.431 600.3 252.4C600.3 248.368 597.032 245.1 593 245.1C588.969 245.1 585.7 248.368 585.7 252.4C585.7 256.431 588.969 259.7 593 259.7Z" fill="white"/>
<path d="M593 259.7C597.032 259.7 600.3 256.431 600.3 252.4C600.3 248.368 597.032 245.1 593 245.1C588.969 245.1 585.7 248.368 585.7 252.4C585.7 256.431 588.969 259.7 593 259.7Z" stroke="#4E5A7D" stroke-width="6" stroke-miterlimit="10" stroke-linecap="round" stroke-linejoin="round"/>
<path d="M622.6 233.299C626.632 233.299 629.9 230.031 629.9 225.999C629.9 221.968 626.632 218.699 622.6 218.699C618.568 218.699 615.3 221.968 615.3 225.999C615.3 230.031 618.568 233.299 622.6 233.299Z" fill="white"/>
<path d="M622.6 233.299C626.632 233.299 629.9 230.031 629.9 225.999C629.9 221.968 626.632 218.699 622.6 218.699C618.568 218.699 615.3 221.968 615.3 225.999C615.3 230.031 618.568 233.299 622.6 233.299Z" stroke="#4E5A7D" stroke-width="6" stroke-miterlimit="10" stroke-linecap="round" stroke-linejoin="round"/>
<path d="M634.4 318.599C652.68 318.599 667.5 303.78 667.5 285.499C667.5 267.219 652.68 252.399 634.4 252.399C616.119 252.399 601.3 267.219 601.3 285.499C601.3 303.78 616.119 318.599 634.4 318.599Z" fill="white"/>
<path d="M634.4 318.599C652.68 318.599 667.5 303.78 667.5 285.499C667.5 267.219 652.68 252.399 634.4 252.399C616.119 252.399 601.3 267.219 601.3 285.499C601.3 303.78 616.119 318.599 634.4 318.599Z" fill="white"/>
<path d="M634.4 318.599C652.68 318.599 667.5 303.78 667.5 285.499C667.5 267.219 652.68 252.399 634.4 252.399C616.119 252.399 601.3 267.219 601.3 285.499C601.3 303.78 616.119 318.599 634.4 318.599Z" stroke="#4E5A7D" stroke-width="6" stroke-miterlimit="10" stroke-linecap="round" stroke-linejoin="round"/>
<path d="M648.1 266.699C653.9 270.899 657.6 277.699 657.6 285.399C657.6 298.199 647.2 308.599 634.4 308.599C621.6 308.599 611.2 298.299 611.2 285.499C611.2 283.499 611.5 281.499 612 279.599" stroke="#4E5A7D" stroke-width="5" stroke-miterlimit="10" stroke-linecap="round" stroke-linejoin="round"/>
<path d="M644 275.699C644.9 276.599 645.7 277.599 646.3 278.799C650 285.399 647.6 293.799 641 297.399C637.7 299.199 633.9 299.599 630.6 298.599" stroke="#4E5A7D" stroke-width="5" stroke-miterlimit="10" stroke-linecap="round" stroke-linejoin="round"/>
<path d="M144.7 465.699C117.4 437.399 97.0998 403.399 86.2998 365.899" stroke="white" stroke-width="3" stroke-miterlimit="10" stroke-linecap="round" stroke-linejoin="round" stroke-dasharray="18 18"/>
<path d="M589.5 345.5C583.1 384 566.9 419.5 543.3 449.9" stroke="white" stroke-width="3" stroke-miterlimit="10" stroke-linecap="round" stroke-linejoin="round" stroke-dasharray="18 18"/>
<path d="M423.3 68.0996C485.8 84.9996 538.8 122.1 573.3 171.1" stroke="white" stroke-width="3" stroke-miterlimit="10" stroke-linecap="round" stroke-linejoin="round" stroke-dasharray="18 18"/>
<path d="M113.6 189.699C138.2 141.799 180.7 102.999 233.3 80.6992" stroke="white" stroke-width="3" stroke-miterlimit="10" stroke-linecap="round" stroke-linejoin="round" stroke-dasharray="18 18"/>
</svg>
