<svg width="668" height="444" viewBox="0 0 668 444" fill="none" xmlns="http://www.w3.org/2000/svg">
<path d="M374.046 339.299L505.988 68.6406L375.378 4.97016L243.436 275.629L374.046 339.299Z" fill="#77BA85"/>
<path d="M374.046 339.299L505.988 68.6406L375.378 4.97016L243.436 275.629L374.046 339.299Z" stroke="#474747" stroke-width="6" stroke-miterlimit="10" stroke-linecap="round" stroke-linejoin="round"/>
<path d="M454.3 61.9L412.5 41.5C404.6 57.8 385 64.5 368.7 56.6L265.7 267.8L366.4 316.9L469.4 105.7C453.1 97.8 446.3 78.2 454.3 61.9Z" fill="#F6F9EA"/>
<path d="M454.3 61.9L412.5 41.5C404.6 57.8 385 64.5 368.7 56.6L265.7 267.8L366.4 316.9L469.4 105.7C453.1 97.8 446.3 78.2 454.3 61.9Z" stroke="#474747" stroke-width="6" stroke-miterlimit="10" stroke-linecap="round" stroke-linejoin="round"/>
<path d="M483.741 76.262L383.064 27.1836L265.714 267.909L366.391 316.987L483.741 76.262Z" stroke="#474747" stroke-width="6" stroke-miterlimit="10" stroke-linecap="round" stroke-linejoin="round"/>
<path d="M384.7 185.3C403.643 185.3 419 169.944 419 151C419 132.057 403.643 116.7 384.7 116.7C365.757 116.7 350.4 132.057 350.4 151C350.4 169.944 365.757 185.3 384.7 185.3Z" fill="#77BA85"/>
<path d="M384.7 185.3C403.643 185.3 419 169.944 419 151C419 132.057 403.643 116.7 384.7 116.7C365.757 116.7 350.4 132.057 350.4 151C350.4 169.944 365.757 185.3 384.7 185.3Z" stroke="#474747" stroke-width="6" stroke-miterlimit="10" stroke-linecap="round" stroke-linejoin="round"/>
<path opacity="0.15" d="M3 440.7H665" stroke="#474747" stroke-width="6" stroke-miterlimit="10" stroke-linecap="round" stroke-linejoin="round"/>
<path d="M393.4 440.7H183.4C150.3 440.7 123.4 413.8 123.4 380.7V144.7C123.4 111.6 150.3 84.7002 183.4 84.7002H393.4C426.5 84.7002 453.4 111.6 453.4 144.7V380.7C453.4 413.9 426.6 440.7 393.4 440.7Z" fill="#F58870"/>
<path d="M393.4 440.7H183.4C150.3 440.7 123.4 413.8 123.4 380.7V144.7C123.4 111.6 150.3 84.7002 183.4 84.7002H393.4C426.5 84.7002 453.4 111.6 453.4 144.7V380.7C453.4 413.9 426.6 440.7 393.4 440.7Z" fill="#F58870"/>
<path d="M393.4 428.601H183.4C150.3 428.601 123.4 401.701 123.4 368.601V380.701C123.4 413.801 150.3 440.701 183.4 440.701H393.4C426.5 440.701 453.4 413.801 453.4 380.701V368.601C453.4 401.701 426.6 428.601 393.4 428.601Z" fill="#DD7868"/>
<path d="M393.4 84.7002H183.4C150.3 84.7002 123.4 109.4 123.4 139.8V152.7C123.4 122.3 150.3 97.6002 183.4 97.6002H393.4C426.5 97.6002 453.4 122.3 453.4 152.7V139.8C453.4 109.4 426.6 84.7002 393.4 84.7002Z" fill="#FFA399"/>
<path opacity="0.3" d="M323.4 231.2H269.4C259.5 231.2 251.4 223.1 251.4 213.2V102.7C251.4 92.8002 259.5 84.7002 269.4 84.7002H341.4V213.2C341.4 223.1 333.4 231.2 323.4 231.2Z" fill="#474747" stroke="#474747" stroke-width="6" stroke-miterlimit="10" stroke-linecap="round" stroke-linejoin="round"/>
<path d="M393.4 440.7H183.4C150.3 440.7 123.4 413.8 123.4 380.7V144.7C123.4 111.6 150.3 84.7002 183.4 84.7002H393.4C426.5 84.7002 453.4 111.6 453.4 144.7V380.7C453.4 413.9 426.6 440.7 393.4 440.7Z" stroke="#474747" stroke-width="6" stroke-miterlimit="10" stroke-linecap="round" stroke-linejoin="round"/>
<g opacity="0.46">
<path opacity="0.46" d="M145.4 379.2V146.2C145.4 125.2 162.4 108.2 183.4 108.2H393.4C414.4 108.2 431.4 125.2 431.4 146.2V379.1C431.4 400.1 414.4 417.1 393.4 417.1H183.4C162.4 417.2 145.4 400.2 145.4 379.2Z" stroke="#474747" stroke-width="4" stroke-linecap="round" stroke-linejoin="round" stroke-dasharray="13.96 13.96"/>
</g>
<path d="M315.4 220.2H261.4C251.5 220.2 243.4 212.1 243.4 202.2V80.2002C243.4 70.3002 251.5 62.2002 261.4 62.2002H315.4C325.3 62.2002 333.4 70.3002 333.4 80.2002V202.2C333.4 212.1 325.4 220.2 315.4 220.2Z" fill="#F79765"/>
<path d="M315.4 211.9H261.4C251.5 211.9 243.4 203.8 243.4 193.9V202.2C243.4 212.1 251.5 220.2 261.4 220.2H315.4C325.3 220.2 333.4 212.1 333.4 202.2V193.9C333.4 203.8 325.4 211.9 315.4 211.9Z" fill="#E27444"/>
<path d="M315.4 62.2002H261.4C251.5 62.2002 243.4 70.3002 243.4 80.2002V87.0002C243.4 77.1002 251.5 69.0002 261.4 69.0002H315.4C325.3 69.0002 333.4 77.1002 333.4 87.0002V80.2002C333.4 70.3002 325.4 62.2002 315.4 62.2002Z" fill="#FFB797"/>
<path d="M315.4 220.2H261.4C251.5 220.2 243.4 212.1 243.4 202.2V80.2002C243.4 70.3002 251.5 62.2002 261.4 62.2002H315.4C325.3 62.2002 333.4 70.3002 333.4 80.2002V202.2C333.4 212.1 325.4 220.2 315.4 220.2Z" stroke="#474747" stroke-width="6" stroke-miterlimit="10" stroke-linecap="round" stroke-linejoin="round"/>
<path opacity="0.3" d="M291.4 194.4C304.213 194.4 314.6 184.013 314.6 171.2C314.6 158.387 304.213 148 291.4 148C278.587 148 268.2 158.387 268.2 171.2C268.2 184.013 278.587 194.4 291.4 194.4Z" fill="#474747" stroke="#474747" stroke-width="6" stroke-miterlimit="10" stroke-linecap="round" stroke-linejoin="round"/>
<g opacity="0.46">
<path opacity="0.46" d="M261.4 208.2C258.1 208.2 255.4 205.5 255.4 202.2V80.2002C255.4 76.9002 258.1 74.2002 261.4 74.2002H315.4C318.7 74.2002 321.4 76.9002 321.4 80.2002V202.2C321.4 205.5 318.7 208.2 315.4 208.2H261.4Z" stroke="#474747" stroke-width="4" stroke-linecap="round" stroke-linejoin="round" stroke-dasharray="9.84 9.84"/>
</g>
<path d="M288.4 188.4C301.213 188.4 311.6 178.013 311.6 165.2C311.6 152.387 301.213 142 288.4 142C275.587 142 265.2 152.387 265.2 165.2C265.2 178.013 275.587 188.4 288.4 188.4Z" fill="#8F6D5D"/>
<path d="M288.4 188.4C301.213 188.4 311.6 178.013 311.6 165.2C311.6 152.387 301.213 142 288.4 142C275.587 142 265.2 152.387 265.2 165.2C265.2 178.013 275.587 188.4 288.4 188.4Z" stroke="#474747" stroke-width="6" stroke-miterlimit="10" stroke-linecap="round" stroke-linejoin="round"/>
<g opacity="0.6">
<path opacity="0.6" d="M298.2 153.3C299 157.1 294.5 159.501 287.9 160.901C281.2 162.201 275.2 162.401 274.4 159.201C273.6 156.101 278.1 150.2 284.7 148.3C291.4 146.4 297.4 149.6 298.2 153.3Z" fill="#FFFCEE"/>
</g>
<path d="M622.3 440.7H552.3C548.3 440.7 545 437.4 545 433.4V428.5C545 424.5 548.3 421.2 552.3 421.2H622.3C626.3 421.2 629.6 424.5 629.6 428.5V433.4C629.6 437.5 626.3 440.7 622.3 440.7Z" fill="#FDB740"/>
<path opacity="0.88" d="M622.3 423.3H552.3C548.3 423.3 545 426.6 545 430.6V433.4C545 429.4 548.3 426.1 552.3 426.1H622.3C626.3 426.1 629.6 429.4 629.6 433.4V430.6C629.6 426.6 626.3 423.3 622.3 423.3Z" fill="#FFF3C0"/>
<path d="M622.3 438.5H552.3C548.3 438.5 545 435.2 545 431.2V428.4C545 432.4 548.3 435.7 552.3 435.7H622.3C626.3 435.7 629.6 432.4 629.6 428.4V431.2C629.6 435.3 626.3 438.5 622.3 438.5Z" fill="#F29E25"/>
<path d="M622.3 440.7H552.3C548.3 440.7 545 437.4 545 433.4V428.5C545 424.5 548.3 421.2 552.3 421.2H622.3C626.3 421.2 629.6 424.5 629.6 428.5V433.4C629.6 437.5 626.3 440.7 622.3 440.7Z" stroke="#474747" stroke-width="6" stroke-miterlimit="10" stroke-linecap="round" stroke-linejoin="round"/>
<path d="M634 421.3H564C560 421.3 556.7 418 556.7 414V409.1C556.7 405.1 560 401.8 564 401.8H634C638 401.8 641.3 405.1 641.3 409.1V414C641.2 418.1 638 421.3 634 421.3Z" fill="#FDB740"/>
<path opacity="0.88" d="M634 403.899H564C560 403.899 556.7 407.199 556.7 411.199V413.999C556.7 409.999 560 406.699 564 406.699H634C638 406.699 641.3 409.999 641.3 413.999V411.199C641.2 407.199 638 403.899 634 403.899Z" fill="#FFF3C0"/>
<path d="M634 419.1H564C560 419.1 556.7 415.8 556.7 411.8V409C556.7 413 560 416.3 564 416.3H634C638 416.3 641.3 413 641.3 409V411.8C641.2 415.9 638 419.1 634 419.1Z" fill="#F29E25"/>
<path d="M634 421.3H564C560 421.3 556.7 418 556.7 414V409.1C556.7 405.1 560 401.8 564 401.8H634C638 401.8 641.3 405.1 641.3 409.1V414C641.2 418.1 638 421.3 634 421.3Z" stroke="#474747" stroke-width="6" stroke-miterlimit="10" stroke-linecap="round" stroke-linejoin="round"/>
<path d="M622.3 401.9H552.3C548.3 401.9 545 398.6 545 394.6V389.7C545 385.7 548.3 382.4 552.3 382.4H622.3C626.3 382.4 629.6 385.7 629.6 389.7V394.6C629.6 398.7 626.3 401.9 622.3 401.9Z" fill="#FDB740"/>
<path opacity="0.88" d="M622.3 384.601H552.3C548.3 384.601 545 387.901 545 391.901V394.701C545 390.701 548.3 387.401 552.3 387.401H622.3C626.3 387.401 629.6 390.701 629.6 394.701V391.901C629.6 387.801 626.3 384.601 622.3 384.601Z" fill="#FFF3C0"/>
<path d="M622.3 399.8H552.3C548.3 399.8 545 396.5 545 392.5V389.7C545 393.7 548.3 397 552.3 397H622.3C626.3 397 629.6 393.7 629.6 389.7V392.5C629.6 396.5 626.3 399.8 622.3 399.8Z" fill="#F29E25"/>
<path d="M622.3 401.9H552.3C548.3 401.9 545 398.6 545 394.6V389.7C545 385.7 548.3 382.4 552.3 382.4H622.3C626.3 382.4 629.6 385.7 629.6 389.7V394.6C629.6 398.7 626.3 401.9 622.3 401.9Z" stroke="#474747" stroke-width="6" stroke-miterlimit="10" stroke-linecap="round" stroke-linejoin="round"/>
<path d="M543.1 387.3L495.3 438.4C492.6 441.3 488 441.5 485 438.7L481.5 435.4C478.6 432.7 478.4 428.1 481.2 425.1L529 374C531.7 371.1 536.3 370.9 539.3 373.7L542.8 377C545.6 379.8 545.8 384.3 543.1 387.3Z" fill="#FDB740"/>
<path opacity="0.88" d="M530.4 375.4L482.6 426.5C479.9 429.4 480 434 482.9 436.8L485 438.7C482.1 436 481.9 431.4 484.7 428.4L532.5 377.3C535.2 374.4 539.8 374.2 542.8 377L540.7 375.1C537.7 372.3 533.1 372.5 530.4 375.4Z" fill="#FFF3C0"/>
<path d="M541.5 385.8L493.7 436.9C491 439.8 486.4 440 483.4 437.2L481.3 435.3C484.2 438 488.8 437.9 491.6 435L539.4 383.9C542.1 381 542 376.4 539.1 373.6L541.2 375.5C544 378.3 544.2 382.9 541.5 385.8Z" fill="#F29E25"/>
<path d="M543.1 387.3L495.3 438.4C492.6 441.3 488 441.5 485 438.7L481.5 435.4C478.6 432.7 478.4 428.1 481.2 425.1L529 374C531.7 371.1 536.3 370.9 539.3 373.7L542.8 377C545.6 379.8 545.8 384.3 543.1 387.3Z" stroke="#474747" stroke-width="6" stroke-miterlimit="10" stroke-linecap="round" stroke-linejoin="round"/>
</svg>
