<svg width="157" height="57" viewBox="0 0 157 57" fill="none" xmlns="http://www.w3.org/2000/svg">
<path d="M14.564 23.712C14.564 24.544 14.82 25.136 15.332 25.488C15.876 25.84 16.628 26.016 17.588 26.016C18.068 26.016 18.564 25.984 19.076 25.92C19.588 25.824 20.036 25.712 20.42 25.584C20.708 25.936 20.948 26.336 21.14 26.784C21.364 27.2 21.476 27.712 21.476 28.32C21.476 29.536 21.012 30.528 20.084 31.296C19.188 32.064 17.588 32.448 15.284 32.448C12.468 32.448 10.292 31.808 8.75599 30.528C7.25199 29.248 6.49999 27.168 6.49999 24.288V3.74401C6.85199 3.64801 7.34799 3.55201 7.98799 3.45601C8.65999 3.32801 9.36399 3.26401 10.1 3.26401C11.508 3.26401 12.596 3.52001 13.364 4.03201C14.164 4.51201 14.564 5.55201 14.564 7.15201V10.224H20.852C21.044 10.576 21.22 11.024 21.38 11.568C21.572 12.08 21.668 12.656 21.668 13.296C21.668 14.416 21.412 15.232 20.9 15.744C20.42 16.224 19.764 16.464 18.932 16.464H14.564V23.712Z" fill="black"/>
<path d="M1.55213 10.0462H4.69885V16.0462H3.55986C2.68984 16.0462 2.00387 15.8154 1.50194 15.3539C0.966548 14.8615 0.698853 14.0769 0.698853 13C0.698853 12.3846 0.799238 11.8308 1.00001 11.3385C1.16732 10.8154 1.35136 10.3846 1.55213 10.0462Z" fill="black"/>
<path d="M5.39697 43.7783C5.39697 43.5062 5.29313 43.2913 5.08545 43.1338C4.87777 42.9727 4.5931 42.8921 4.23145 42.8921C3.88053 42.8921 3.58691 42.9834 3.35059 43.166C3.11784 43.3486 3.00146 43.5635 3.00146 43.8105H2.01318C2.01318 43.3057 2.22445 42.8921 2.64697 42.5698C3.0695 42.2476 3.59766 42.0864 4.23145 42.0864C4.91178 42.0864 5.44173 42.2332 5.82129 42.5269C6.20085 42.8169 6.39062 43.2323 6.39062 43.7729C6.39062 44.0343 6.31185 44.2743 6.1543 44.4927C5.99674 44.7111 5.77295 44.8848 5.48291 45.0137C6.15967 45.2428 6.49805 45.694 6.49805 46.3672C6.49805 46.9007 6.29215 47.3232 5.88037 47.6348C5.46859 47.9463 4.91895 48.1021 4.23145 48.1021C3.56185 48.1021 3.00863 47.9391 2.57178 47.6133C2.13851 47.2839 1.92188 46.8398 1.92188 46.2812H2.91016C2.91016 46.5641 3.03548 46.8076 3.28613 47.0117C3.54036 47.2122 3.85547 47.3125 4.23145 47.3125C4.611 47.3125 4.91715 47.2248 5.1499 47.0493C5.38265 46.8739 5.49902 46.6465 5.49902 46.3672C5.49902 46.0413 5.40055 45.8086 5.20361 45.6689C5.01025 45.5257 4.70768 45.4541 4.2959 45.4541H3.30225V44.6162H4.38184C5.05859 44.5983 5.39697 44.319 5.39697 43.7783ZM11.375 48C11.3177 47.8854 11.2712 47.6813 11.2354 47.3877C10.7734 47.8675 10.222 48.1074 9.58105 48.1074C9.00814 48.1074 8.53727 47.9463 8.16846 47.624C7.80322 47.2982 7.62061 46.8864 7.62061 46.3887C7.62061 45.7835 7.84977 45.3145 8.30811 44.9814C8.77002 44.6449 9.41813 44.4766 10.2524 44.4766H11.2192V44.02C11.2192 43.6727 11.1154 43.397 10.9077 43.1929C10.7 42.9852 10.3939 42.8813 9.98926 42.8813C9.63477 42.8813 9.33757 42.9709 9.09766 43.1499C8.85775 43.3289 8.73779 43.5456 8.73779 43.7998H7.73877C7.73877 43.5098 7.84082 43.2305 8.04492 42.9619C8.2526 42.6898 8.5319 42.4749 8.88281 42.3174C9.2373 42.1598 9.62581 42.0811 10.0483 42.0811C10.7179 42.0811 11.2425 42.2493 11.6221 42.5859C12.0016 42.9189 12.1986 43.3791 12.2129 43.9663V46.6411C12.2129 47.1746 12.2809 47.599 12.417 47.9141V48H11.375ZM9.72607 47.2427C10.0376 47.2427 10.333 47.1621 10.6123 47.001C10.8916 46.8398 11.0939 46.6304 11.2192 46.3726V45.1802H10.4404C9.22298 45.1802 8.61426 45.5365 8.61426 46.249C8.61426 46.5605 8.7181 46.804 8.92578 46.9795C9.13346 47.1549 9.40023 47.2427 9.72607 47.2427ZM18.5239 48H17.5303V43.0103H14.8555V48H13.8564V42.1885H18.5239V48ZM19.856 45.0405C19.856 44.4712 19.967 43.9591 20.189 43.5044C20.4146 43.0496 20.7261 42.6987 21.1235 42.4517C21.5246 42.2046 21.9811 42.0811 22.4932 42.0811C23.2845 42.0811 23.9237 42.355 24.4106 42.9028C24.9012 43.4507 25.1465 44.1794 25.1465 45.0889V45.1587C25.1465 45.7244 25.0373 46.2329 24.8188 46.6841C24.604 47.1317 24.2943 47.4808 23.8896 47.7314C23.4886 47.9821 23.0267 48.1074 22.5039 48.1074C21.7161 48.1074 21.077 47.8335 20.5864 47.2856C20.0994 46.7378 19.856 46.0127 19.856 45.1104V45.0405ZM20.855 45.1587C20.855 45.8032 21.0036 46.3206 21.3008 46.7109C21.6016 47.1012 22.0026 47.2964 22.5039 47.2964C23.0088 47.2964 23.4098 47.0994 23.707 46.7056C24.0042 46.3081 24.1528 45.7531 24.1528 45.0405C24.1528 44.4032 24.0007 43.8875 23.6963 43.4937C23.3955 43.0962 22.9945 42.8975 22.4932 42.8975C22.0026 42.8975 21.6069 43.0926 21.3062 43.4829C21.0054 43.8732 20.855 44.4318 20.855 45.1587ZM30.7808 48H29.7817V45.8945C29.3449 46.0091 28.8973 46.0664 28.439 46.0664C27.7121 46.0664 27.1571 45.8802 26.7739 45.5078C26.3944 45.1354 26.201 44.6055 26.1938 43.918V42.1831H27.1875V43.9502C27.2054 44.8167 27.6226 45.25 28.439 45.25C28.8973 45.25 29.3449 45.1927 29.7817 45.0781V42.1885H30.7808V48ZM37.124 48H36.1304V45.5186H33.4609V48H32.4619V42.1885H33.4609V44.7075H36.1304V42.1885H37.124V48ZM42.4844 42.1885H43.478V48H42.4844V43.7622L39.8042 48H38.8105V42.1885H39.8042V46.4316L42.4844 42.1885ZM52.5552 48H51.5615V43.0103H48.8867V48H47.8877V42.1885H52.5552V48ZM59.0596 45.1587C59.0596 46.0431 58.8573 46.7557 58.4526 47.2964C58.048 47.8371 57.5002 48.1074 56.8091 48.1074C56.1037 48.1074 55.5487 47.8836 55.144 47.436V50.2344H54.1504V42.1885H55.0581L55.1064 42.833C55.5111 42.3317 56.0732 42.0811 56.793 42.0811C57.4912 42.0811 58.0426 42.3442 58.4473 42.8706C58.8555 43.397 59.0596 44.1292 59.0596 45.0674V45.1587ZM58.0659 45.0459C58.0659 44.3906 57.9263 43.8732 57.647 43.4937C57.3677 43.1141 56.9845 42.9243 56.4976 42.9243C55.896 42.9243 55.4448 43.1911 55.144 43.7246V46.5015C55.4412 47.0314 55.896 47.2964 56.5083 47.2964C56.9845 47.2964 57.3623 47.1084 57.6416 46.7324C57.9245 46.3529 58.0659 45.7907 58.0659 45.0459ZM64.0869 42.1885H65.0806V48H64.0869V43.7622L61.4067 48H60.4131V42.1885H61.4067V46.4316L64.0869 42.1885ZM68.4858 45.5239H67.7607V48H66.7617V42.1885H67.7607V44.6484H68.4106L70.3657 42.1885H71.5688L69.27 44.9814L71.7622 48H70.5L68.4858 45.5239ZM77.3804 42.1885V48H76.3813V43.0103H74.4048L74.2866 45.1855C74.2222 46.1846 74.0539 46.8989 73.7817 47.3286C73.5132 47.7583 73.0853 47.9821 72.498 48H72.1006V47.1245L72.3853 47.103C72.7075 47.0672 72.9385 46.881 73.0781 46.5444C73.2178 46.2078 73.3073 45.5848 73.3467 44.6753L73.4541 42.1885H77.3804ZM80.0605 44.6538H81.457C81.5322 43.8804 81.8062 43.2591 82.2788 42.79C82.755 42.3174 83.3548 42.0811 84.0781 42.0811C84.8372 42.0811 85.4585 42.3371 85.9419 42.8491C86.4253 43.3612 86.6867 44.0272 86.7261 44.8472L86.7314 45.1587C86.7314 45.7244 86.6204 46.2347 86.3984 46.6895C86.1764 47.1442 85.8649 47.4951 85.4639 47.7422C85.0628 47.9857 84.6045 48.1074 84.0889 48.1074C83.3405 48.1074 82.7282 47.8639 82.252 47.377C81.7757 46.8864 81.509 46.2508 81.4517 45.4702H80.0605V48H79.0669V42.1885H80.0605V44.6538ZM82.4346 45.1587C82.4346 45.8032 82.5832 46.3206 82.8804 46.7109C83.1812 47.1012 83.584 47.2964 84.0889 47.2964C84.5938 47.2964 84.993 47.0977 85.2866 46.7002C85.5838 46.3027 85.7324 45.7495 85.7324 45.0405C85.7324 44.4067 85.582 43.8911 85.2812 43.4937C84.9805 43.0962 84.5794 42.8975 84.0781 42.8975C83.584 42.8975 83.1865 43.0926 82.8857 43.4829C82.585 43.8732 82.4346 44.4318 82.4346 45.1587ZM92.3442 48H91.3452V45.8945C90.9084 46.0091 90.4608 46.0664 90.0024 46.0664C89.2756 46.0664 88.7205 45.8802 88.3374 45.5078C87.9578 45.1354 87.7645 44.6055 87.7573 43.918V42.1831H88.751V43.9502C88.7689 44.8167 89.186 45.25 90.0024 45.25C90.4608 45.25 90.9084 45.1927 91.3452 45.0781V42.1885H92.3442V48ZM96.3511 48.1074C95.5633 48.1074 94.9224 47.8496 94.4282 47.334C93.9341 46.8148 93.687 46.1219 93.687 45.2554V45.0728C93.687 44.4963 93.7962 43.9824 94.0146 43.5312C94.2367 43.0765 94.5446 42.722 94.9385 42.4678C95.3359 42.21 95.7656 42.0811 96.2275 42.0811C96.9831 42.0811 97.5703 42.3299 97.9893 42.8276C98.4082 43.3254 98.6177 44.0379 98.6177 44.9653V45.3789H94.6807C94.695 45.9518 94.8615 46.4155 95.1802 46.77C95.5024 47.1209 95.9106 47.2964 96.4048 47.2964C96.7557 47.2964 97.0529 47.2248 97.2964 47.0815C97.5399 46.9383 97.7529 46.7485 97.9355 46.5122L98.5425 46.9849C98.0555 47.7332 97.325 48.1074 96.3511 48.1074ZM96.2275 42.8975C95.8265 42.8975 95.4899 43.0443 95.2178 43.3379C94.9456 43.6279 94.7773 44.0361 94.7129 44.5625H97.624V44.4873C97.5954 43.9824 97.4593 43.5921 97.2158 43.3164C96.9723 43.0371 96.6429 42.8975 96.2275 42.8975ZM104.521 48H103.527V45.5186H100.857V48H99.8584V42.1885H100.857V44.7075H103.527V42.1885H104.521V48ZM109.881 42.1885H110.875V48H109.881V43.7622L107.201 48H106.207V42.1885H107.201V46.4316L109.881 42.1885ZM114.881 48.1074C114.094 48.1074 113.453 47.8496 112.958 47.334C112.464 46.8148 112.217 46.1219 112.217 45.2554V45.0728C112.217 44.4963 112.326 43.9824 112.545 43.5312C112.767 43.0765 113.075 42.722 113.469 42.4678C113.866 42.21 114.296 42.0811 114.758 42.0811C115.513 42.0811 116.101 42.3299 116.52 42.8276C116.938 43.3254 117.148 44.0379 117.148 44.9653V45.3789H113.211C113.225 45.9518 113.392 46.4155 113.71 46.77C114.033 47.1209 114.441 47.2964 114.935 47.2964C115.286 47.2964 115.583 47.2248 115.827 47.0815C116.07 46.9383 116.283 46.7485 116.466 46.5122L117.073 46.9849C116.586 47.7332 115.855 48.1074 114.881 48.1074ZM114.758 42.8975C114.357 42.8975 114.02 43.0443 113.748 43.3379C113.476 43.6279 113.308 44.0361 113.243 44.5625H116.154V44.4873C116.126 43.9824 115.99 43.5921 115.746 43.3164C115.503 43.0371 115.173 42.8975 114.758 42.8975Z" fill="#C0C0C0"/>
<path d="M33.656 31.952C33.336 32.048 32.824 32.144 32.12 32.24C31.448 32.336 30.744 32.384 30.008 32.384C29.304 32.384 28.664 32.336 28.088 32.24C27.544 32.144 27.08 31.952 26.696 31.664C26.312 31.376 26.008 30.992 25.784 30.512C25.592 30 25.496 29.344 25.496 28.544V14.144C25.496 13.408 25.624 12.784 25.88 12.272C26.168 11.728 26.568 11.248 27.08 10.832C27.592 10.416 28.216 10.048 28.952 9.728C29.72 9.376 30.536 9.072 31.4 8.816C32.264 8.56 33.16 8.368 34.088 8.24C35.016 8.08 35.944 8 36.872 8C38.408 8 39.624 8.304 40.52 8.912C41.416 9.488 41.864 10.448 41.864 11.792C41.864 12.24 41.8 12.688 41.672 13.136C41.544 13.552 41.384 13.936 41.192 14.288C40.52 14.288 39.832 14.32 39.128 14.384C38.424 14.448 37.736 14.544 37.064 14.672C36.392 14.8 35.752 14.944 35.144 15.104C34.568 15.232 34.072 15.392 33.656 15.584V31.952ZM54.5113 26.816C55.0553 26.816 55.6473 26.768 56.2873 26.672C56.9593 26.544 57.4553 26.384 57.7753 26.192V22.352L54.3193 22.64C53.4233 22.704 52.6873 22.896 52.1113 23.216C51.5353 23.536 51.2473 24.016 51.2473 24.656C51.2473 25.296 51.4873 25.824 51.9673 26.24C52.4793 26.624 53.3273 26.816 54.5113 26.816ZM54.1273 7.952C55.8553 7.952 57.4233 8.128 58.8313 8.48C60.2713 8.832 61.4873 9.376 62.4793 10.112C63.5033 10.816 64.2873 11.728 64.8313 12.848C65.3753 13.936 65.6473 15.232 65.6473 16.736V27.488C65.6473 28.32 65.4073 29.008 64.9273 29.552C64.4793 30.064 63.9353 30.512 63.2953 30.896C61.2153 32.144 58.2873 32.768 54.5113 32.768C52.8153 32.768 51.2793 32.608 49.9033 32.288C48.5593 31.968 47.3913 31.488 46.3993 30.848C45.4393 30.208 44.6873 29.392 44.1433 28.4C43.6313 27.408 43.3753 26.256 43.3753 24.944C43.3753 22.736 44.0313 21.04 45.3433 19.856C46.6553 18.672 48.6873 17.936 51.4393 17.648L57.7273 16.976V16.64C57.7273 15.712 57.3113 15.056 56.4793 14.672C55.6793 14.256 54.5113 14.048 52.9753 14.048C51.7593 14.048 50.5753 14.176 49.4233 14.432C48.2713 14.688 47.2313 15.008 46.3033 15.392C45.8873 15.104 45.5353 14.672 45.2473 14.096C44.9593 13.488 44.8153 12.864 44.8153 12.224C44.8153 11.392 45.0073 10.736 45.3913 10.256C45.8073 9.744 46.4313 9.312 47.2633 8.96C48.1913 8.608 49.2793 8.352 50.5273 8.192C51.8073 8.032 53.0073 7.952 54.1273 7.952ZM85.6741 31.376C85.2261 31.728 84.5701 32.016 83.7061 32.24C82.8421 32.464 81.8661 32.576 80.7781 32.576C79.5301 32.576 78.4421 32.416 77.5141 32.096C76.6181 31.776 75.9941 31.264 75.6421 30.56C75.3541 30.016 75.0021 29.264 74.5861 28.304C74.2021 27.312 73.7861 26.224 73.3381 25.04C72.8901 23.824 72.4261 22.528 71.9461 21.152C71.4661 19.776 71.0021 18.416 70.5541 17.072C70.1381 15.728 69.7541 14.432 69.4021 13.184C69.0501 11.936 68.7621 10.832 68.5381 9.872C68.9861 9.424 69.5781 9.04 70.3141 8.72C71.0821 8.368 71.9141 8.192 72.8101 8.192C73.9301 8.192 74.8421 8.432 75.5461 8.912C76.2821 9.36 76.8261 10.224 77.1781 11.504L79.0501 18.848C79.4021 20.288 79.7381 21.6 80.0581 22.784C80.3781 23.936 80.6181 24.832 80.7781 25.472H81.0181C81.6261 23.104 82.2661 20.48 82.9381 17.6C83.6101 14.72 84.2181 11.888 84.7621 9.104C85.3061 8.816 85.9141 8.592 86.5861 8.432C87.2901 8.272 87.9621 8.192 88.6021 8.192C89.7221 8.192 90.6661 8.432 91.4341 8.912C92.2021 9.392 92.5861 10.224 92.5861 11.408C92.5861 11.92 92.4581 12.672 92.2021 13.664C91.9781 14.624 91.6741 15.728 91.2901 16.976C90.9381 18.192 90.5061 19.488 89.9941 20.864C89.5141 22.24 89.0181 23.584 88.5061 24.896C87.9941 26.208 87.4821 27.44 86.9701 28.592C86.4901 29.712 86.0581 30.64 85.6741 31.376ZM104.534 31.952C104.182 32.016 103.654 32.096 102.95 32.192C102.278 32.32 101.59 32.384 100.886 32.384C100.182 32.384 99.5424 32.336 98.9664 32.24C98.4224 32.144 97.9584 31.952 97.5744 31.664C97.1904 31.376 96.8864 30.992 96.6624 30.512C96.4704 30 96.3744 29.344 96.3744 28.544V0.704C96.7264 0.639998 97.2384 0.559999 97.9104 0.464C98.6144 0.335999 99.3184 0.271999 100.022 0.271999C100.726 0.271999 101.35 0.319999 101.894 0.415998C102.47 0.511998 102.95 0.703999 103.334 0.991999C103.718 1.28 104.006 1.68 104.198 2.192C104.422 2.672 104.534 3.312 104.534 4.112V31.952Z" fill="black" fill-opacity="0.86"/>
<path d="M107.98 29.084C107.98 28.076 108.292 27.236 108.916 26.564C109.54 25.892 110.392 25.556 111.472 25.556C112.552 25.556 113.404 25.892 114.028 26.564C114.652 27.236 114.964 28.076 114.964 29.084C114.964 30.092 114.652 30.932 114.028 31.604C113.404 32.276 112.552 32.612 111.472 32.612C110.392 32.612 109.54 32.276 108.916 31.604C108.292 30.932 107.98 30.092 107.98 29.084ZM117.71 8.564C117.95 8.492 118.334 8.42 118.862 8.348C119.39 8.252 119.93 8.204 120.482 8.204C121.01 8.204 121.478 8.24 121.886 8.312C122.318 8.384 122.678 8.528 122.966 8.744C123.254 8.96 123.47 9.26 123.614 9.644C123.758 10.004 123.83 10.484 123.83 11.084V14.612C124.43 14.372 124.994 14.204 125.522 14.108C126.074 14.012 126.674 13.964 127.322 13.964C128.474 13.964 129.566 14.168 130.598 14.576C131.63 14.984 132.542 15.584 133.334 16.376C134.126 17.144 134.75 18.104 135.206 19.256C135.662 20.408 135.89 21.74 135.89 23.252C135.89 24.812 135.65 26.18 135.17 27.356C134.714 28.508 134.066 29.468 133.226 30.236C132.386 31.004 131.354 31.592 130.13 32C128.93 32.384 127.598 32.576 126.134 32.576C124.55 32.576 123.206 32.384 122.102 32C120.998 31.64 120.062 31.184 119.294 30.632C118.238 29.888 117.71 28.928 117.71 27.752V8.564ZM126.134 27.752C127.238 27.752 128.09 27.38 128.69 26.636C129.314 25.868 129.626 24.74 129.626 23.252C129.626 21.74 129.314 20.612 128.69 19.868C128.066 19.124 127.226 18.752 126.17 18.752C125.69 18.752 125.27 18.8 124.91 18.896C124.574 18.992 124.202 19.136 123.794 19.328V27.176C124.058 27.344 124.37 27.488 124.73 27.608C125.114 27.704 125.582 27.752 126.134 27.752ZM147.404 13.964C148.772 13.964 150.008 14.144 151.112 14.504C152.24 14.84 153.188 15.284 153.956 15.836C154.436 16.172 154.808 16.544 155.072 16.952C155.36 17.36 155.504 17.888 155.504 18.536V31.136C155.504 32.408 155.264 33.5 154.784 34.412C154.304 35.348 153.644 36.116 152.804 36.716C151.988 37.34 151.016 37.796 149.888 38.084C148.784 38.372 147.596 38.516 146.324 38.516C144.14 38.516 142.424 38.216 141.176 37.616C139.928 37.04 139.304 36.092 139.304 34.772C139.304 34.22 139.412 33.728 139.628 33.296C139.868 32.888 140.132 32.576 140.42 32.36C141.116 32.744 141.896 33.068 142.76 33.332C143.648 33.596 144.56 33.728 145.496 33.728C146.792 33.728 147.824 33.512 148.592 33.08C149.36 32.648 149.744 31.952 149.744 30.992V30.416C148.76 30.848 147.56 31.064 146.144 31.064C145.064 31.064 144.032 30.908 143.048 30.596C142.088 30.26 141.236 29.756 140.492 29.084C139.772 28.388 139.184 27.5 138.728 26.42C138.296 25.34 138.08 24.056 138.08 22.568C138.08 21.104 138.308 19.832 138.764 18.752C139.244 17.672 139.892 16.784 140.708 16.088C141.548 15.368 142.532 14.84 143.66 14.504C144.812 14.144 146.06 13.964 147.404 13.964ZM149.636 19.184C149.468 19.088 149.216 18.992 148.88 18.896C148.568 18.8 148.172 18.752 147.692 18.752C146.516 18.752 145.628 19.088 145.028 19.76C144.452 20.408 144.164 21.344 144.164 22.568C144.164 23.96 144.452 24.968 145.028 25.592C145.628 26.192 146.384 26.492 147.296 26.492C148.28 26.492 149.06 26.264 149.636 25.808V19.184Z" fill="#F7AA39"/>
</svg>
